<svg viewBox="0 0 202 202" fill="none" xmlns="http://www.w3.org/2000/svg">
<circle cx="101" cy="101" r="98" fill="#4758FF"/>
<path d="M93.3691 71.4817H93.376V138.734H75.6956L74.1802 132.933H73.6751C71.4861 135.119 68.9603 136.884 66.0978 138.229C63.2353 139.574 60.4569 140.247 57.7628 140.247C52.5428 140.247 47.9965 138.902 44.1237 136.212C40.2508 133.522 37.262 129.697 35.1572 124.737C33.0524 119.777 32 113.935 32 107.209C32 100.568 33.2207 94.7467 35.6623 89.7448C38.1039 84.7429 41.3032 80.897 45.2602 78.2069C49.2173 75.5168 53.3848 74.1718 57.7628 74.1718C60.9621 74.1718 63.6773 74.6972 65.9084 75.748C67.8703 76.672 69.7833 78.0023 71.6476 79.7389V62.5489C72.3465 54.7356 79.5868 50.8289 93.3687 50.8289L93.3691 71.4817ZM71.6545 113.812H71.6476V94.8457C69.3755 92.8322 66.5152 91.8254 63.0668 91.8254C60.5411 91.8254 58.4363 93.0444 56.7525 95.4823C55.0686 97.9202 54.2267 101.745 54.2267 106.957C54.2267 112.421 55.0266 116.393 56.6262 118.873C58.2259 121.353 60.5411 122.593 63.5721 122.593C65.3401 122.593 66.8556 122.257 68.1184 121.584C69.3813 120.912 70.56 119.735 71.6545 118.054V113.812ZM95.6521 160.662L95.6621 160.658C105.55 156.767 110.429 148.702 110.298 136.462C110.298 136.379 110.299 136.296 110.299 136.212L110.551 75.685H132.273L132.02 135.455C132.02 143.441 130.126 149.935 126.337 154.937C122.549 159.939 116.276 162.44 107.52 162.44C102.806 162.44 98.8485 161.852 95.6492 160.675L95.6521 160.662ZM121.835 64.3946C114.812 64.3946 109.119 58.7098 109.119 51.6973C109.119 44.6848 114.812 39 121.835 39C128.858 39 134.552 44.6848 134.552 51.6973C134.552 58.7098 128.858 64.3946 121.835 64.3946ZM157.962 138.909C150.939 138.909 145.245 133.225 145.245 126.212C145.245 119.2 150.939 113.515 157.962 113.515C164.985 113.515 170.678 119.2 170.678 126.212C170.678 133.225 164.985 138.909 157.962 138.909Z" fill="#FEFEFE"/>
</svg>
