<svg width="16" height="16" viewBox="0 0 16 16" fill="none" xmlns="http://www.w3.org/2000/svg">
  <path
    d="M4.05077 6.25512C4.15395 6.50424 4.39705 6.66667 4.66669 6.66667H11.3333C11.603 6.66667 11.8461 6.50424 11.9493 6.25512C12.0525 6.00601 11.9954 5.71926 11.8047 5.52859L8.4714 2.19526C8.21107 1.93491 7.78893 1.93491 7.5286 2.19526L4.19528 5.52859C4.00461 5.71926 3.94758 6.00601 4.05077 6.25512Z"
    fill="currentColor" />
  <path
    d="M4.05077 9.74454C4.15395 9.49541 4.39705 9.33301 4.66669 9.33301H11.3333C11.603 9.33301 11.8461 9.49541 11.9493 9.74454C12.0525 9.99367 11.9954 10.2804 11.8047 10.4711L8.4714 13.8044C8.21107 14.0647 7.78893 14.0647 7.5286 13.8044L4.19528 10.4711C4.00461 10.2804 3.94758 9.99367 4.05077 9.74454Z"
    fill="currentColor" />
</svg>
