<svg fill="currentColor" version="1.1" id="Layer_1" xmlns="http://www.w3.org/2000/svg" xmlns:xlink="http://www.w3.org/1999/xlink" 
	 viewBox="0 0 512 512" xml:space="preserve">
<g>
	<g>
		<rect x="322.065" y="256" width="49.548" height="49.548"/>
	</g>
</g>
<g>
	<g>
		<path d="M256,0C114.84,0,0,114.842,0,256s114.84,256,256,256s256-114.842,256-256S397.16,0,256,0z M437.066,355.097H222.968
			v49.548h176.151c-37.141,35.772-87.603,57.806-143.119,57.806c-77.948,0-145.938-43.427-181.066-107.355h48.937v-49.548H55.573
			c-3.926-15.88-6.025-32.472-6.025-49.548h173.419v-49.548H55.573c4.327-17.496,10.882-34.119,19.36-49.548h65.453v-49.548h-27.506
			C150.023,71.583,200.484,49.548,256,49.548c77.948,0,145.938,43.427,181.066,107.355H289.032v49.548h167.394
			c3.926,15.88,6.025,32.472,6.025,49.548h-41.29v49.548h35.265C452.099,323.044,445.544,339.667,437.066,355.097z"/>
	</g>
</g>
</svg>
