<?xml version="1.0" standalone="no"?>
<!DOCTYPE svg PUBLIC "-//W3C//DTD SVG 20010904//EN"
 "http://www.w3.org/TR/2001/REC-SVG-20010904/DTD/svg10.dtd">
<svg version="1.0" xmlns="http://www.w3.org/2000/svg"
 width="458.000000pt" height="458.000000pt" viewBox="0 0 458.000000 458.000000"
 preserveAspectRatio="xMidYMid meet">
<metadata>
Created by potrace 1.14, written by Peter Selinger 2001-2017
</metadata>
<g transform="translate(0.000000,458.000000) scale(0.100000,-0.100000)"
fill="#000000" stroke="none">
<path d="M570 3831 c0 -406 3 -520 13 -523 10 -3 608 -2 655 1 9 1 12 38 12
151 l0 150 546 0 546 0 -6 -27 c-3 -16 -8 -46 -11 -68 -3 -22 -10 -67 -15
-100 -26 -165 -30 -195 -39 -260 -11 -73 -20 -133 -26 -175 -3 -14 -7 -43 -10
-65 -3 -22 -10 -65 -15 -95 -5 -30 -12 -75 -15 -100 -3 -25 -10 -70 -15 -100
-5 -30 -14 -86 -19 -125 -14 -99 -21 -142 -31 -205 -5 -30 -11 -71 -14 -90 -3
-19 -15 -98 -27 -175 -11 -77 -22 -149 -24 -160 -6 -42 -16 -112 -25 -165 -5
-30 -12 -75 -15 -100 -4 -25 -13 -88 -22 -140 -17 -106 -17 -112 -27 -190 -4
-30 -9 -62 -11 -70 -3 -8 -7 -35 -10 -59 -3 -23 -7 -55 -9 -70 -3 -14 -7 -45
-11 -68 l-7 -42 -221 -3 c-122 -2 -277 -2 -344 0 l-123 3 0 172 0 173 -340 0
-340 0 0 -543 0 -543 2005 0 2005 0 0 2065 0 2065 -2005 0 -2005 0 0 -519z
m3330 -308 l-1 -88 -366 -245 c-202 -135 -424 -283 -493 -330 -69 -47 -142
-96 -162 -108 -36 -23 -37 -23 -47 -3 -10 18 -6 72 14 191 16 96 37 232 41
270 3 25 7 52 9 60 2 8 7 35 10 60 3 25 13 89 21 142 8 53 16 106 17 117 1 21
2 21 479 21 l478 0 0 -87z m-2 -1895 l-3 -364 -145 204 c-80 112 -150 209
-155 215 -6 7 -41 55 -78 107 -36 52 -123 174 -192 270 -69 96 -125 177 -125
180 0 3 156 110 348 238 l347 233 3 -360 c1 -198 1 -523 0 -723z m-861 -195
c183 -257 331 -468 329 -470 -2 -2 -562 -5 -788 -3 -25 0 -36 4 -33 13 4 11
11 56 20 120 10 68 17 118 30 202 8 50 17 108 20 130 2 22 7 49 9 60 2 11 16
101 31 200 24 157 31 202 34 213 4 13 61 -62 348 -465z"/>
<path d="M0 2280 l0 -780 233 2 232 3 0 398 c0 390 0 398 18 375 11 -13 111
-162 224 -333 113 -170 208 -314 213 -318 6 -6 115 143 129 177 2 6 8 15 13
21 14 17 148 217 148 222 0 2 5 9 11 16 5 7 45 64 87 129 l77 116 0 -404 0
-404 232 0 233 0 0 780 0 780 -232 -2 -233 -3 -1 -90 c-1 -49 -2 -97 -3 -106
0 -8 -66 -103 -147 -210 -80 -107 -153 -204 -162 -217 -91 -125 -146 -192
-153 -185 -4 4 -108 142 -231 306 l-224 299 1 104 1 104 -233 0 -233 0 0 -780z"/>
</g>
</svg>
