<?xml version="1.0" standalone="no"?>
<!DOCTYPE svg PUBLIC "-//W3C//DTD SVG 20010904//EN"
 "http://www.w3.org/TR/2001/REC-SVG-20010904/DTD/svg10.dtd">
<svg version="1.0" xmlns="http://www.w3.org/2000/svg"
 width="575.000000pt" height="575.000000pt" viewBox="0 0 575.000000 575.000000"
 preserveAspectRatio="xMidYMid meet">
<metadata>
Created by potrace 1.14, written by Peter Selinger 2001-2017
</metadata>
<g transform="translate(0.000000,575.000000) scale(0.100000,-0.100000)"
fill="#000000" stroke="none">
<path d="M0 2875 l0 -1895 465 0 465 0 1 38 c0 20 1 459 1 975 0 515 3 937 6
937 6 0 63 -43 84 -63 10 -10 167 -138 302 -247 10 -8 23 -20 30 -25 6 -6 47
-39 91 -75 44 -35 82 -67 85 -70 3 -3 39 -33 80 -66 76 -60 93 -74 145 -118
27 -23 31 -24 52 -11 25 17 53 20 53 6 0 -19 31 -20 53 -1 47 41 66 56 103 85
35 28 203 165 249 203 11 10 81 66 155 127 74 60 141 115 148 122 9 9 12 130
12 537 0 289 -3 526 -6 526 -4 0 -25 -17 -48 -37 l-41 -38 -3 38 c-2 20 -6 37
-10 37 -4 -1 -29 -21 -57 -46 -27 -25 -81 -71 -120 -102 -38 -31 -72 -59 -75
-62 -3 -3 -75 -64 -160 -135 -85 -72 -157 -132 -160 -135 -3 -3 -17 -16 -32
-29 l-27 -24 -43 34 c-24 18 -45 36 -48 39 -3 3 -43 37 -90 75 -47 38 -87 72
-90 75 -3 3 -43 37 -90 75 -47 39 -94 78 -105 87 -75 63 -357 298 -382 318
-17 14 -223 185 -458 380 -235 195 -430 356 -435 358 -5 2 -10 -11 -12 -28
l-3 -32 -35 31 c-19 17 -38 31 -42 31 -5 0 -8 -853 -8 -1895z"/>
<path d="M3625 4733 l-40 -36 -3 32 c-2 17 -6 31 -10 31 -4 0 -46 -33 -93 -73
-47 -39 -132 -110 -189 -157 -58 -47 -159 -130 -226 -185 -67 -55 -167 -138
-223 -183 l-101 -84 0 -1549 0 -1549 465 0 465 0 0 548 1 547 27 -31 c40 -45
63 -74 487 -591 l386 -473 589 0 590 0 -96 118 c-53 64 -106 128 -118 142 -12
14 -73 88 -136 165 -63 77 -137 167 -165 200 -27 33 -66 80 -85 104 -19 23
-43 53 -53 64 -11 12 -33 39 -50 61 -58 71 -149 181 -170 206 -12 14 -51 62
-87 105 -35 44 -69 85 -75 91 -5 7 -24 29 -41 50 -18 22 -78 96 -135 165 -57
69 -120 145 -139 169 -19 24 -40 48 -45 54 -6 6 -27 32 -48 57 -36 45 -44 64
-29 71 4 2 27 28 52 58 54 66 72 87 101 120 11 14 38 45 58 70 20 25 38 47 41
50 3 3 25 30 50 60 25 30 50 61 57 68 7 7 29 34 50 60 21 26 40 49 43 52 3 3
25 30 50 60 25 30 47 57 50 60 3 3 52 61 109 130 57 69 120 145 141 170 21 25
88 106 150 180 62 74 122 146 134 160 67 78 366 439 366 443 0 2 -259 4 -575
4 -446 0 -577 -3 -583 -13 -8 -13 -77 -97 -102 -123 -9 -9 -47 -54 -85 -101
-65 -78 -105 -126 -130 -154 -6 -6 -42 -49 -80 -96 -38 -47 -72 -87 -75 -90
-3 -3 -61 -72 -129 -155 -69 -82 -129 -154 -136 -160 -6 -5 -17 -19 -25 -31
-8 -11 -35 -44 -60 -73 -25 -29 -53 -62 -62 -73 -17 -20 -18 10 -20 635 l-3
656 -40 -36z"/>
</g>
</svg>
