<svg xmlns="http://www.w3.org/2000/svg" fill="none" viewBox="0 0 140 140">
  <g clip-path="url(#a)">
    <path fill="#252F3E" d="M44.2 60.54c0 1.45.16 2.62.44 3.48.31.86.7 1.8 1.25 2.82.2.3.27.62.27.9 0 .39-.23.78-.74 1.17l-2.46 1.64c-.36.24-.7.35-1.02.35-.4 0-.78-.2-1.17-.54a12.1 12.1 0 0 1-1.41-1.84c-.4-.67-.78-1.41-1.22-2.31a14.45 14.45 0 0 1-11.5 5.4c-3.28 0-5.9-.94-7.82-2.82-1.91-1.88-2.89-4.38-2.89-7.5 0-3.33 1.17-6.03 3.56-8.06 2.39-2.04 5.55-3.06 9.58-3.06 1.33 0 2.7.12 4.15.32 1.44.2 2.93.5 4.5.86v-2.86c0-2.97-.63-5.04-1.84-6.25-1.26-1.22-3.37-1.8-6.38-1.8-1.37 0-2.78.15-4.22.5-1.45.36-2.86.79-4.23 1.33-.62.28-1.1.43-1.37.51a2.4 2.4 0 0 1-.62.12c-.55 0-.82-.4-.82-1.21v-1.92c0-.62.08-1.1.27-1.37.2-.27.55-.55 1.1-.82 1.37-.7 3-1.29 4.92-1.76 1.92-.5 3.95-.74 6.1-.74 4.66 0 8.06 1.05 10.25 3.17 2.15 2.1 3.25 5.32 3.25 9.62v12.67h.08Zm-15.87 5.94c1.29 0 2.62-.23 4.03-.7a8.72 8.72 0 0 0 3.71-2.5 6.2 6.2 0 0 0 1.33-2.5c.24-.95.4-2.08.4-3.4v-1.65a32.65 32.65 0 0 0-7.28-.9c-2.62 0-4.54.5-5.83 1.56s-1.92 2.55-1.92 4.5c0 1.84.47 3.2 1.45 4.15.94.97 2.3 1.44 4.1 1.44Zm31.4 4.23c-.7 0-1.17-.12-1.48-.4-.32-.23-.59-.78-.82-1.52l-9.2-30.23a6.85 6.85 0 0 1-.35-1.57c0-.62.32-.97.94-.97h3.83c.75 0 1.26.11 1.53.39.31.23.55.78.78 1.52l6.57 25.9 6.1-25.9c.2-.78.43-1.29.75-1.52.31-.24.86-.4 1.56-.4h3.13c.74 0 1.25.12 1.56.4.32.23.6.78.75 1.52l6.18 26.2 6.76-26.2c.24-.78.51-1.29.79-1.52.3-.24.82-.4 1.52-.4h3.64c.62 0 .98.32.98.98 0 .2-.04.4-.08.63-.04.23-.12.55-.28.98l-9.42 30.23c-.24.78-.51 1.3-.82 1.53-.32.23-.82.39-1.49.39H79.8c-.75 0-1.25-.12-1.57-.4-.31-.27-.58-.78-.74-1.56l-6.06-25.22-6.03 25.18c-.2.78-.43 1.3-.74 1.57s-.86.39-1.56.39h-3.37ZM110 71.76c-2.03 0-4.07-.23-6.02-.7a17.79 17.79 0 0 1-4.5-1.56c-.63-.36-1.06-.75-1.21-1.1a2.76 2.76 0 0 1-.24-1.1v-1.99c0-.82.32-1.21.9-1.21.24 0 .47.04.7.12.24.07.6.23.98.39 1.33.58 2.78 1.05 4.3 1.37 1.57.3 3.1.46 4.66.46 2.46 0 4.38-.43 5.71-1.29a4.21 4.21 0 0 0 2.03-3.71c0-1.1-.35-2-1.05-2.74-.7-.74-2.04-1.4-3.95-2.03l-5.67-1.76c-2.86-.9-4.97-2.23-6.26-4a9.32 9.32 0 0 1-.9-10c.7-1.26 1.64-2.35 2.81-3.21 1.18-.9 2.5-1.57 4.07-2.04a19.63 19.63 0 0 1 7.55-.5c.9.11 1.72.27 2.54.43.78.2 1.53.39 2.23.62.7.24 1.25.47 1.64.7.55.32.94.63 1.18.98.23.32.35.75.35 1.3v1.83c0 .82-.31 1.25-.9 1.25-.31 0-.82-.15-1.48-.46a17.9 17.9 0 0 0-7.51-1.53c-2.23 0-4 .35-5.2 1.1-1.22.74-1.84 1.87-1.84 3.48 0 1.1.39 2.03 1.17 2.77.78.75 2.23 1.49 4.3 2.15l5.56 1.76c2.81.9 4.84 2.15 6.06 3.76a8.85 8.85 0 0 1 1.8 5.47c0 1.69-.36 3.21-1.02 4.54-.7 1.33-1.64 2.5-2.86 3.44a12.6 12.6 0 0 1-4.34 2.2c-1.76.54-3.6.81-5.59.81Z"/>
    <path fill="#F90" fill-rule="evenodd" d="M117.38 90.77c-12.86 9.5-31.56 14.55-47.63 14.55a86.18 86.18 0 0 1-58.16-22.18c-1.21-1.1-.12-2.58 1.33-1.72 16.58 9.62 37.04 15.45 58.2 15.45 14.27 0 29.95-2.97 44.38-9.07 2.16-.98 4 1.4 1.88 2.97Z" clip-rule="evenodd"/>
    <path fill="#F90" fill-rule="evenodd" d="M122.74 84.67c-1.64-2.11-10.87-1.02-15.06-.5-1.25.15-1.44-.95-.31-1.77 7.35-5.16 19.44-3.67 20.84-1.95 1.41 1.76-.39 13.84-7.27 19.63-1.05.9-2.07.43-1.6-.74 1.56-3.88 5.04-12.6 3.4-14.67Z" clip-rule="evenodd"/>
  </g>
  <defs>
    <clipPath id="a">
      <path fill="#fff" d="M0 0h120v70.32H0z" transform="translate(10 35)"/>
    </clipPath>
  </defs>
</svg>
