<svg xmlns="http://www.w3.org/2000/svg" fill="none" viewBox="0 0 140 140">
  <path fill="#222" d="M65.05 82.26h6.59V55.99h-6.6v26.27ZM87.98 76.74c4.18 0 7.25-3.6 7.25-7.62 0-4.03-3.09-7.59-7.25-7.59-4.18 0-7.27 3.56-7.27 7.59 0 4.03 3.1 7.62 7.27 7.62Zm.06-21.6c7.9 0 14.24 6.06 14.24 13.92 0 7.9-6.4 14.08-14.32 14.08-7.91 0-14.32-6.1-14.32-13.97 0-7.86 6.5-14.02 14.4-14.02Zm15 19.19 6.03-1.42c.45 3.16 2.76 4.3 5.2 4.3 2.42 0 3.3-1.41 3.3-2.52 0-.88-.5-1.76-2.28-2.11l-3.68-.72c-4.4-.85-7.52-3.59-7.52-7.8 0-5.03 4.62-8.56 9.84-8.56 6.74 0 9.5 4.16 9.98 7.65l-5.93 1.66c-.31-2.15-1.66-3.7-4.08-3.7-2.1 0-3.12 1.38-3.12 2.45 0 .88.43 1.88 2 2.19l3.84.73c5.02.96 7.78 4 7.78 7.96 0 4.3-3.73 8.42-10.14 8.42-6.73-.05-10.34-3.53-11.22-8.53Z"/>
  <path fill="#0A99E0" d="M21.04 82.26h-7.08l11.72-26.27h7.12L21.04 82.26Z"/>
  <path fill="#222" d="m54.61 68.82 8.8-12.84h-8.04l-4.75 7.78-4.64-7.78h-8.17l8.93 12.84-4.97 7.22-8.95-20.05H25.7l11.76 26.27h7.6l5.56-8.32 5.48 8.32h7.7L54.6 68.82Z"/>
</svg>
