<svg xmlns="http://www.w3.org/2000/svg" fill="none" viewBox="0 0 140 140">
  <g clip-path="url(#a)">
    <path fill="#1B73BA" d="M26.77 117.43 18 10.2l104.78.22-9.27 107-42.72 12.38-44.02-12.37Z"/>
    <path fill="#1C88C7" d="M70.79 119.44V20.41l43.15.15-7.7 88.6-35.45 10.28Z"/>
    <path fill="#fff" d="M103.22 33.07H36.84l1.8 12.95h31.5l-31 13.3 1.8 12.51h45.67l-1.65 17.48-15.47 3.02-14.02-3.6-1.08-9.92H41.52l1.72 20.64 27.62 7.7 26.47-8.42 3.38-40.35H72.73l30.5-12.65V33.07Z"/>
  </g>
  <defs>
    <clipPath id="a">
      <path fill="#fff" d="M0 0h104.78v120H0z" transform="translate(18 10)"/>
    </clipPath>
  </defs>
</svg>
