<svg width="140" height="140" viewBox="0 0 140 140" fill="none" xmlns="http://www.w3.org/2000/svg">
<g clip-path="url(#clip0_205_1382)">
<path d="M26.774 117.429L18 10.2013L122.784 10.4168L113.506 117.429L70.7875 129.799L26.774 117.429Z" fill="#1B73BA"/>
<path d="M70.7875 119.443V20.4135L113.938 20.5572L106.243 109.159L70.7875 119.443Z" fill="#1C88C7"/>
<path d="M103.222 33.0712H36.8425L38.6408 46.0154H70.1402L39.1444 59.3205L40.9418 71.8337H86.6099L84.9553 89.309L69.4929 92.33L55.4696 88.7343L54.3905 78.8094H41.5172L43.2428 99.4502L70.8593 107.145L97.3257 98.7311L100.706 58.385H72.7285L103.222 45.7281L103.222 33.0712Z" fill="white"/>
</g>
<defs>
<clipPath id="clip0_205_1382">
<rect width="104.784" height="120" fill="white" transform="translate(18 10)"/>
</clipPath>
</defs>
</svg>
