<svg xmlns="http://www.w3.org/2000/svg" fill="none" viewBox="0 0 140 140">
  <g clip-path="url(#a)">
    <path fill="#DE4C36" d="m127.74 64.65-52.4-52.39a7.73 7.73 0 0 0-10.92 0L53.54 23.14l13.8 13.8a9.17 9.17 0 0 1 11.62 11.7l13.3 13.3a9.18 9.18 0 0 1 9.5 15.2 9.2 9.2 0 0 1-15-10.01l-12.41-12.4v32.64a9.2 9.2 0 1 1-7.56-.27V54.15a9.2 9.2 0 0 1-5-12.06L48.2 28.5 12.26 64.4a7.73 7.73 0 0 0 0 10.93l52.4 52.4a7.73 7.73 0 0 0 10.93 0l52.15-52.15a7.73 7.73 0 0 0 0-10.94Z"/>
  </g>
  <defs>
    <clipPath id="a">
      <path fill="#fff" d="M0 0h120v120H0z" transform="translate(10 10)"/>
    </clipPath>
  </defs>
</svg>
