<svg xmlns="http://www.w3.org/2000/svg" fill="none" viewBox="0 0 140 140">
  <g clip-path="url(#a)">
    <path fill="#000" d="M10 70c0-16.56 5.86-30.7 17.58-42.42C39.3 15.86 53.44 10 70 10c16.56 0 30.7 5.86 42.42 17.58C124.14 39.3 130 53.44 130 70c0 16.56-5.86 30.7-17.58 42.42C100.7 124.14 86.56 130 70 130c-16.56 0-30.7-5.86-42.42-17.58C15.86 100.7 10 86.56 10 70Zm6.56 0c0 14.69 5.24 27.27 15.7 37.73 10.47 10.47 23.05 15.7 37.74 15.7 14.69 0 27.27-5.23 37.73-15.7 10.47-10.46 15.7-23.04 15.7-37.73 0-14.69-5.23-27.27-15.7-37.73C97.27 21.8 84.7 16.57 70 16.57c-14.69 0-27.27 5.23-37.73 15.7C21.8 42.73 16.57 55.3 16.57 70Zm16.88 12.9c-.31-.32-.31-.63 0-.95.62-.62 1.4-.86 2.34-.7.94.16 1.49.31 1.64.47 1.1.47 2.3 1.52 3.63 3.16a23.87 23.87 0 0 0 3.17 3.4c3.75 3.13 7.58 3.36 11.48.7.32-1.09.82-2.03 1.53-2.8a7.1 7.1 0 0 1 1.99-1.65c.62-.31 1.72-.78 3.28-1.4-5.16-.47-9.34-1.37-12.54-2.7-3.2-1.33-5.74-3-7.62-5.04-2.5-2.81-4.02-6.48-4.57-11.02-.54-4.53-.2-8.67 1.06-12.42a20.64 20.64 0 0 1 3.98-6.33c-1.25-3.9-1.01-8.35.7-13.35 5 .3 9.54 2.03 13.6 5.15a51.35 51.35 0 0 1 24.37-.23c1.1-.78 2.78-1.76 5.04-2.93 2.27-1.17 5.12-1.84 8.56-2a25.28 25.28 0 0 1 1.29 6.1c.23 2.34.11 4.53-.35 6.56 3.59 3.75 5.46 8.75 5.62 15 0 5-.86 9.14-2.58 12.42-1.72 3.28-4.76 6.02-9.14 8.2-2.97 1.41-6.87 2.27-11.72 2.58 2.19 1.1 3.8 2.23 4.8 3.4 1.02 1.17 1.69 3.01 2 5.51v7.38l.23 7.15a8.27 8.27 0 0 0 1.64 2c.63.54 1.18.93 1.65 1.17.46.23.62.58.46 1.05-.15.47-.78.7-1.87.7a7.8 7.8 0 0 1-6.33-2.8 5.37 5.37 0 0 1-.7-2.82V94.6c0-1.25-.31-2.15-.94-2.7a4.57 4.57 0 0 0-1.87-1.05v14.77c0 2.65.3 4.37.93 5.15a5.52 5.52 0 0 1 1.17 2.34c.16.16.04.28-.35.36a4.54 4.54 0 0 1-1.99-.36c-2.03-.46-3.44-1.52-4.22-3.16a12.11 12.11 0 0 1-1.17-5.27V90.16H68.6v14.53c0 1.87-.39 3.67-1.17 5.39-1.1 2.19-3.12 3.36-6.1 3.51-.46-.15-.7-.3-.7-.47.16-.15.63-.93 1.41-2.34a13.61 13.61 0 0 0 .94-5.16V90.86a3.8 3.8 0 0 0-1.76 1.05c-.55.55-.82 1.45-.82 2.7v11.25c0 1.1-.23 2.03-.7 2.81-1.4 1.88-3.52 2.81-6.33 2.81-1.1 0-1.72-.23-1.88-.7-.15-.31-.11-.59.12-.82.24-.23.59-.5 1.06-.82.47-.31.78-.55.93-.7.63-.47 1.1-1.1 1.41-1.88.47-.62.59-2.26.35-4.92-.23-2.66-.27-4.37-.12-5.16-4.06 1.41-8.2.7-12.42-2.1a22.9 22.9 0 0 1-3.75-5.4c-.94-1.71-2.81-3.75-5.62-6.09Z"/>
  </g>
  <defs>
    <clipPath id="a">
      <path fill="#fff" d="M0 0h120v120H0z" transform="translate(10 10)"/>
    </clipPath>
  </defs>
</svg>
