<svg width="140" height="140" viewBox="0 0 140 140" fill="none" xmlns="http://www.w3.org/2000/svg">
<g clip-path="url(#clip0_205_1454)">
<path d="M70.0351 125.66L92.1152 57.7054H47.9547L70.0351 125.66Z" fill="#E24329"/>
<path d="M70.0352 125.66L47.9547 57.705H17.0106L70.0352 125.66Z" fill="#FC6D26"/>
<path d="M17.0106 57.705L10.3009 78.3563C10.0026 79.2743 10.0026 80.2633 10.3008 81.1814C10.5991 82.0995 11.1803 82.8996 11.9612 83.4671L70.0351 125.66L17.0101 57.7055L17.0106 57.705Z" fill="#FCA326"/>
<path d="M17.0106 57.7054H47.9547L34.6567 16.7765C33.9723 14.6704 30.993 14.6709 30.3091 16.7765L17.0106 57.7054Z" fill="#E24329"/>
<path d="M70.0352 125.66L92.1152 57.705H123.06L70.0352 125.66Z" fill="#FC6D26"/>
<path d="M123.06 57.705L129.769 78.3563C130.068 79.2744 130.068 80.2634 129.769 81.1815C129.471 82.0996 128.89 82.8997 128.109 83.4671L70.0352 125.66L123.06 57.7055V57.705Z" fill="#FCA326"/>
<path d="M123.06 57.7054H92.1152L105.414 16.7765C106.098 14.6704 109.077 14.6709 109.761 16.7765L123.06 57.7054Z" fill="#E24329"/>
</g>
<defs>
<clipPath id="clip0_205_1454">
<rect width="120" height="110.64" fill="white" transform="translate(10 15)"/>
</clipPath>
</defs>
</svg>
