<svg xmlns="http://www.w3.org/2000/svg" fill="none" viewBox="0 0 140 140">
  <g clip-path="url(#a)">
    <path fill="#E24329" d="m70.04 125.66 22.08-67.95H47.95l22.09 67.95Z"/>
    <path fill="#FC6D26" d="M70.04 125.66 47.95 57.71H17.01l53.03 67.95Z"/>
    <path fill="#FCA326" d="m17.01 57.7-6.7 20.66a4.57 4.57 0 0 0 1.65 5.1l58.08 42.2L17 57.71Z"/>
    <path fill="#E24329" d="M17.01 57.7h30.94l-13.3-40.92a2.29 2.29 0 0 0-4.34 0L17 57.7Z"/>
    <path fill="#FC6D26" d="m70.04 125.66 22.08-67.95h30.94l-53.02 67.95Z"/>
    <path fill="#FCA326" d="m123.06 57.7 6.7 20.66a4.56 4.56 0 0 1-1.65 5.1l-58.07 42.2 53.02-67.95Z"/>
    <path fill="#E24329" d="M123.06 57.7H92.12l13.3-40.92a2.29 2.29 0 0 1 4.34 0l13.3 40.93Z"/>
  </g>
  <defs>
    <clipPath id="a">
      <path fill="#fff" d="M0 0h120v110.64H0z" transform="translate(10 15)"/>
    </clipPath>
  </defs>
</svg>
