<svg xmlns="http://www.w3.org/2000/svg" fill="none" viewBox="0 0 140 140">
  <path fill="#E535AB" d="m28.7 99.96-4.2-2.42 46.74-80.95 4.2 2.42L28.7 99.96Z"/>
  <path fill="#E535AB" d="M23.54 91.07h93.48v4.84H23.54v-4.84Z"/>
  <path fill="#E535AB" d="m72.15 120.79-46.76-27 2.43-4.2 46.75 27-2.42 4.2Zm40.61-70.36-46.75-27 2.42-4.19 46.76 27-2.43 4.2Z"/>
  <path fill="#E535AB" d="m27.83 50.41-2.42-4.2 46.75-26.99 2.42 4.2-46.75 27Z"/>
  <path fill="#E535AB" d="M111.9 99.96 65.17 19.01l4.19-2.42 46.74 80.95-4.2 2.42ZM27.25 43.01h4.85v53.98h-4.85V43.01Z"/>
  <path fill="#E535AB" d="M108.5 43h4.84v54h-4.84V43Z"/>
  <path fill="#E535AB" d="m71.32 118.74-2.11-3.67 40.66-23.48 2.12 3.67-40.67 23.48Z"/>
  <path fill="#E535AB" d="M119.76 98.57a10.2 10.2 0 0 1-17.65-10.18 10.2 10.2 0 0 1 17.65 10.18Zm-81.3-46.96A10.2 10.2 0 0 1 20.8 41.43a10.2 10.2 0 0 1 17.66 10.18ZM20.83 98.57a10.2 10.2 0 0 1 3.74-13.92 10.2 10.2 0 0 1 13.92 3.74 10.2 10.2 0 0 1-17.66 10.18Zm81.3-46.96a10.2 10.2 0 0 1 3.74-13.92 10.2 10.2 0 0 1 13.92 3.74 10.2 10.2 0 0 1-17.66 10.18ZM70.3 127.14a10.18 10.18 0 1 1 0-20.37 10.17 10.17 0 1 1 0 20.37Zm0-93.91a10.18 10.18 0 1 1 0-20.37 10.18 10.18 0 1 1 0 20.37Z"/>
</svg>
