<svg xmlns="http://www.w3.org/2000/svg" fill="none" viewBox="0 0 140 140">
  <g clip-path="url(#a)">
    <path fill="#F0DB4F" d="M10 10h120v120H10V10Z"/>
    <path fill="#323330" d="M120.18 101.38c-.88-5.48-4.45-10.07-15.02-14.36-3.68-1.69-7.77-2.9-9-5.68-.43-1.62-.48-2.53-.2-3.51.78-3.19 4.58-4.18 7.59-3.27a8.36 8.36 0 0 1 4.88 4.53c5.18-3.35 5.17-3.33 8.78-5.63-1.32-2.06-2.03-3-2.9-3.88-3.1-3.48-7.35-5.27-14.14-5.14l-3.53.46c-3.4.86-6.62 2.64-8.51 5.02-5.69 6.45-4.07 17.73 2.85 22.37 6.8 5.1 16.81 6.27 18.09 11.05 1.24 5.85-4.3 7.75-9.81 7.08-4.06-.85-6.32-2.91-8.76-6.67l-9.12 5.26c1.1 2.4 2.25 3.48 4.09 5.56 8.69 8.81 30.44 8.38 34.34-4.96.16-.46 1.21-3.52.37-8.23ZM75.24 65.15H64c0 9.7-.04 19.33-.04 29.02 0 6.17.32 11.83-.69 13.56-1.64 3.41-5.9 3-7.84 2.33-1.97-.97-2.97-2.35-4.14-4.3-.32-.56-.55-1-.63-1.03l-9.13 5.6a18.03 18.03 0 0 0 6.62 7.57c4.27 2.56 10.02 3.35 16.03 1.97 3.92-1.14 7.3-3.5 9.06-7.1 2.56-4.7 2-10.4 1.99-16.72.05-10.29 0-20.57 0-30.9Z"/>
  </g>
  <defs>
    <clipPath id="a">
      <path fill="#fff" d="M0 0h120v120H0z" transform="translate(10 10)"/>
    </clipPath>
  </defs>
</svg>
