<svg xmlns="http://www.w3.org/2000/svg" fill="none" viewBox="0 0 140 140">
  <path fill="#000" fill-rule="evenodd" d="M10.18 15h11.15v74h44.1v9.12H10.18V15Zm85.66 21.8c7.6-1.02 15.71.5 21.8 5.57 6.58 4.56 10.13 12.67 10.64 20.27 1.01 9.13 0 18.25-5.07 25.85a26.72 26.72 0 0 1-19.77 10.65c-7.6 1.01-16.22-.51-22.8-5.58C74.54 88.5 71.5 80.9 70.5 73.3c-1.02-8.11 0-17.24 5.06-24.33 4.06-7.1 12.17-11.66 20.28-12.17Zm1.52 8.61a19.7 19.7 0 0 1 14.7 4.56 25.47 25.47 0 0 1 6.08 14.2c.5 5.57 0 11.65-2.53 16.72a17.6 17.6 0 0 1-12.67 9.63c-5.07 1.01-10.65-.5-14.2-3.55a20.9 20.9 0 0 1-7.6-12.16c-1.01-6.6-.5-13.18 2.03-19.26A17.55 17.55 0 0 1 97.36 45.4Z" clip-rule="evenodd"/>
  <path fill="#3492FF" fill-rule="evenodd" d="M10.18 111.3H129.8v12.67H10.18V111.3Z" clip-rule="evenodd"/>
</svg>
