<svg xmlns="http://www.w3.org/2000/svg" fill="none" viewBox="0 0 140 140">
  <g clip-path="url(#a)">
    <path fill="#F0684E" d="M48.22 73.81c0 .4.32.71.71.73H52c.4-.02.71-.34.72-.73V65.5c.38-1.02 1.28-2.38 3.18-2.38 1.9 0 2.8 1.25 2.8 3.22v7.5c0 .4.33.72.73.72h2.84c.4 0 .71-.32.73-.72v-7.71c0-.68-.04-1.45-.04-1.45a3.8 3.8 0 0 1 3.2-1.6c1.9 0 2.85 1.26 2.85 3.23v7.5c0 .4.32.73.72.73h3.07c.4 0 .72-.32.72-.72v-7.24c0-3.98-1.78-7.58-6.63-7.58a7.72 7.72 0 0 0-5.35 2.35 5.98 5.98 0 0 0-4.93-2.35 6.9 6.9 0 0 0-5.08 2.24L51 59.8a.63.63 0 0 0-.65-.41h-1.4c-.4-.01-.72.3-.73.7v13.72h-.01Zm29.52 4.82c0 2.2-.95 3.45-2.65 3.45-.83 0-1.75-.46-2.24-.75a.64.64 0 0 0-.9.16l-.01.03-1.25 2.43a.7.7 0 0 0 .15.87c.64.6 2.46 1.48 4.48 1.48 4.01 0 7.04-2.65 7.04-7.66V60.1c0-.4-.32-.72-.71-.72h-3.2c-.39 0-.71.33-.71.72v18.54Zm9.17-4.82c.02.4.33.71.72.73h3.07c.4-.02.7-.34.72-.73V65.5c.37-1.02 1.28-2.38 3.18-2.38 1.9 0 2.8 1.25 2.8 3.22v7.5c0 .4.32.72.72.72h2.85c.4-.01.7-.33.72-.72v-7.71c0-.68-.04-1.45-.04-1.45a3.8 3.8 0 0 1 3.18-1.6c1.9 0 2.85 1.26 2.85 3.23v7.5c0 .4.32.73.71.73h3.07c.4 0 .72-.32.72-.72v-7.23c0-3.98-1.78-7.59-6.63-7.59a7.71 7.71 0 0 0-5.35 2.35A5.98 5.98 0 0 0 95.28 59c-1.93 0-3.78.82-5.08 2.25l-.52-1.44a.63.63 0 0 0-.64-.4h-1.41c-.4 0-.72.31-.72.7v13.71Zm29.53 0c0 .4.33.71.72.73h3.18c.4-.02.7-.34.72-.73v-25.1a.75.75 0 0 0-.72-.71h-3.18c-.4.01-.7.33-.72.72v25.1ZM37.17 60.15a3.17 3.17 0 1 0 0-6.33 3.17 3.17 0 0 0 0 6.33ZM79.92 56.42a2.64 2.64 0 1 0 0-5.28 2.64 2.64 0 0 0 0 5.28Zm47.45 17.25a2.64 2.64 0 1 0 0-5.28 2.64 2.64 0 0 0 0 5.28ZM13.16 53.84h14.61a3.15 3.15 0 0 1 0 6.31c.01 0 .01 0 0 0H13.16a3.16 3.16 0 1 1 0-6.31Z"/>
    <path fill="#ED4B59" d="M13.17 70.18a3.17 3.17 0 1 0 0-6.33 3.17 3.17 0 0 0 0 6.33Z"/>
    <path fill="#F0684E" d="M22.56 63.86h14.62a3.16 3.16 0 0 1 0 6.32H22.56a3.16 3.16 0 0 1-3.16-3.15v-.01a3.16 3.16 0 0 1 3.16-3.16ZM37.17 80.18a3.17 3.17 0 1 0 0-6.33 3.17 3.17 0 0 0 0 6.33ZM13.16 73.84h14.62a3.16 3.16 0 0 1 0 6.32H13.16a3.16 3.16 0 0 1 0-6.32ZM87.65 83.8a2.17 2.17 0 0 1 1.76-.83 2.78 2.78 0 0 1 2.78 2.78v.05a2.83 2.83 0 0 1-2.78 2.88h-.01a2.6 2.6 0 0 1-1.75-.67v.53h-.75v-8.36h.75v3.62Zm0 3.33c.42.53 1.06.84 1.73.86a2.06 2.06 0 0 0 2.04-2.1v-.04c0-1.17-.84-2.19-2.03-2.19a2 2 0 0 0-1.74 1.03v2.44Zm6.02-4.03 1.53 4.61 1.65-4.6h.8l-2.95 7.92-.64-.25.73-1.96-1.94-5.72h.82Zm26.55 5.92c-.13.7-.2.86-1.69 2.02l-.36-.49c1.15-.93 1.28-1.04 1.4-1.66l1.08-6.08.69-.1-1.13 6.3Zm.84-8.64.7-.1-.24 1.35-.69.1.23-1.35Zm1.2 6.66c0 .1-.03.21-.03.32 0 .5.2.74 1 .74a4.86 4.86 0 0 0 2.06-.56l.17.51a5 5 0 0 1-2.3.65c-1.1 0-1.6-.43-1.6-1.31 0-.2.03-.39.06-.58l.34-1.95c.27-1.48 1.03-2.2 2.52-2.2.94 0 1.54.47 1.54 1.35 0 .93-.62 1.43-2.2 1.87l-1.43.4-.13.76Zm3.12-3.07c0-.53-.35-.77-.96-.77-1.04 0-1.6.54-1.79 1.68l-.13.74 1.35-.36c1.09-.28 1.53-.67 1.53-1.3Zm1.32 3.94c0-.08 0-.15.02-.23l.77-4.35h-1.1l.08-.57h1.13l.25-1.42.68-.1-.27 1.52h1.75l-.13.57h-1.73l-.75 4.28c-.02.07-.02.15-.03.22 0 .22.12.28.4.28.4-.02.78-.11 1.15-.27l.17.45a3 3 0 0 1-1.45.39c-.57 0-.94-.24-.94-.77Zm-24.37-4.56a5.5 5.5 0 0 1 2.34-.73.94.94 0 0 1 1.02.74c.72-.44 1.54-.7 2.38-.74.8 0 1.07.53 1.07 1.16 0 .19-.03.38-.07.57l-.73 4.2h-1.44l.73-4.14v-.16c0-.15-.07-.24-.3-.24-.38 0-1.19.35-1.73.68l-.68 3.86h-1.43l.76-4.13v-.16c0-.15-.08-.24-.3-.24-.39 0-1.2.35-1.73.68l-.68 3.86h-1.43l.77-4.34m12.9 4.35h-1.2v-.65c-.52.5-1.2.77-1.9.77-1 0-1.36-.53-1.36-1.33.01-.2.03-.4.07-.6l.3-1.7c.27-1.58.64-2.42 2.87-2.42.75.03 1.48.16 2.2.37l-.97 5.56Zm-.6-4.65a4.17 4.17 0 0 0-.82-.08c-.92 0-1.1.39-1.23 1.14l-.36 2.05v.14c0 .21.13.32.4.32.45 0 1.1-.43 1.55-.87l.46-2.7Zm2.5-1.05 1.47-.2-1.04 5.9h-1.43l1-5.7Zm.44-2.49 1.47-.2-.29 1.63-1.46.2.28-1.63Zm2.4 0 1.46-.2-1.48 8.4h-1.44l1.45-8.2Z"/>
  </g>
  <defs>
    <clipPath id="a">
      <path fill="#fff" d="M0 0h120v43.03H0z" transform="translate(10 48)"/>
    </clipPath>
  </defs>
</svg>
