<svg width="140" height="140" viewBox="0 0 140 140" fill="none" xmlns="http://www.w3.org/2000/svg">
<mask id="mask0_205_1380" style="mask-type:alpha" maskUnits="userSpaceOnUse" x="10" y="10" width="120" height="120">
<path d="M70 130C103.137 130 130 103.137 130 70C130 36.8629 103.137 10 70 10C36.8629 10 10 36.8629 10 70C10 103.137 36.8629 130 70 130Z" fill="black"/>
</mask>
<g mask="url(#mask0_205_1380)">
<path d="M70 130C103.137 130 130 103.137 130 70C130 36.8629 103.137 10 70 10C36.8629 10 10 36.8629 10 70C10 103.137 36.8629 130 70 130Z" fill="black"/>
<path d="M109.672 115.013L56.0947 46H46V93.98H54.0757V56.2557L103.333 119.897C105.555 118.409 107.673 116.777 109.672 115.013Z" fill="url(#paint0_linear_205_1380)"/>
<path d="M94.6667 46H86.6667V94H94.6667V46Z" fill="url(#paint1_linear_205_1380)"/>
</g>
<defs>
<linearGradient id="paint0_linear_205_1380" x1="82.6667" y1="87.6667" x2="106.333" y2="117" gradientUnits="userSpaceOnUse">
<stop stop-color="white"/>
<stop offset="1" stop-color="white" stop-opacity="0"/>
</linearGradient>
<linearGradient id="paint1_linear_205_1380" x1="90.6667" y1="46" x2="90.5327" y2="81.25" gradientUnits="userSpaceOnUse">
<stop stop-color="white"/>
<stop offset="1" stop-color="white" stop-opacity="0"/>
</linearGradient>
</defs>
</svg>
