<svg xmlns="http://www.w3.org/2000/svg" fill="none" viewBox="0 0 140 140">
  <g fill="#8CC84B" clip-path="url(#a)">
    <path d="M65.58 11.52c2.96-1.7 6.82-1.7 9.78 0l44.67 25.24a9.2 9.2 0 0 1 4.65 7.92V95.3a9.3 9.3 0 0 1-5 8.1L75.18 128.5a9.73 9.73 0 0 1-9.89-.27l-13.36-7.73c-.9-.54-1.93-.97-2.57-1.85.56-.77 1.58-.86 2.4-1.2 1.86-.59 3.57-1.53 5.27-2.45.43-.3.96-.19 1.38.08 3.8 2.18 7.57 4.42 11.39 6.58.81.47 1.64-.15 2.34-.54 14.56-8.23 29.14-16.43 43.7-24.66.55-.26.84-.84.8-1.43v-50.1a1.56 1.56 0 0 0-.93-1.56l-44.36-25a1.54 1.54 0 0 0-1.74 0c-14.8 8.33-29.57 16.68-44.36 25-.6.28-1.01.89-.94 1.56v50.1a1.42 1.42 0 0 0 .8 1.41l11.85 6.69c2.23 1.2 4.96 1.9 7.41 1A5.62 5.62 0 0 0 48 98.84c.02-16.6-.01-33.2.01-49.8-.05-.74.65-1.35 1.36-1.28 1.9-.01 3.8-.03 5.7 0 .79-.01 1.33.78 1.23 1.52 0 16.7.02 33.42 0 50.12 0 4.46-1.83 9.3-5.95 11.48-5.08 2.63-11.35 2.07-16.36-.45-4.34-2.16-8.48-4.72-12.74-7.04a9.28 9.28 0 0 1-5-8.1V44.68a9.21 9.21 0 0 1 4.81-8.02l44.52-25.14Z"/>
    <path d="M78.52 46.6c6.47-.43 13.4-.26 19.23 2.93 4.5 2.45 7 7.57 7.09 12.58-.13.68-.84 1.05-1.48 1-1.88 0-3.76.03-5.63 0-.8.02-1.26-.71-1.36-1.41-.54-2.4-1.85-4.78-4.1-5.93-3.47-1.74-7.49-1.65-11.26-1.61-2.76.14-5.72.38-8.06 2-1.8 1.23-2.34 3.71-1.7 5.7.6 1.44 2.26 1.9 3.61 2.33 7.8 2.04 16.07 1.84 23.72 4.52 3.17 1.1 6.27 3.22 7.35 6.54 1.42 4.45.8 9.76-2.36 13.33-2.57 2.93-6.3 4.53-10.03 5.4-4.96 1.1-10.1 1.13-15.13.64-4.74-.54-9.66-1.78-13.31-5-3.13-2.72-4.65-6.94-4.5-11.02.03-.7.72-1.17 1.38-1.12 1.89-.01 3.78-.02 5.67 0 .76-.05 1.32.6 1.36 1.32.35 2.28 1.2 4.68 3.2 6.03 3.84 2.48 8.66 2.31 13.06 2.38 3.65-.16 7.74-.2 10.72-2.62 1.57-1.37 2.03-3.67 1.6-5.65-.45-1.67-2.2-2.45-3.7-2.96-7.7-2.43-16.06-1.55-23.68-4.3-3.1-1.1-6.1-3.17-7.28-6.35-1.66-4.5-.9-10.07 2.6-13.52 3.4-3.43 8.32-4.75 13-5.22Z"/>
  </g>
  <defs>
    <clipPath id="a">
      <path fill="#fff" d="M0 0h108.96v120H0z" transform="translate(16 10)"/>
    </clipPath>
  </defs>
</svg>
