<svg xmlns="http://www.w3.org/2000/svg" fill="none" viewBox="0 0 140 140">
  <path fill="#FF6C37" d="M117.49 33.33a60 60 0 1 0-94.97 73.33 60 60 0 0 0 94.97-73.33Z"/>
  <path fill="#fff" d="M90.2 48.21 64.95 73.74l-7.14-7.36C82.67 41.46 85.16 43.7 90.2 48.2Z"/>
  <path fill="#FF6C37" d="M64.94 74.45a.9.9 0 0 1-.6-.25L57.15 67a.9.9 0 0 1 0-1.26C81.67 41.16 85.01 42.31 90.8 47.57a.8.8 0 0 1 .3.65.7.7 0 0 1-.25.65L65.6 74.21a.94.94 0 0 1-.65.24Zm-5.89-8.06 5.9 5.91L88.9 48.27a5.39 5.39 0 0 0-7.1-1.2c-4.34 1.95-11.33 7.9-22.76 19.32Z"/>
  <path fill="#fff" d="m72.17 80.76-6.9-7.05 25.3-25c6.8 6.65-3.3 17.75-18.4 32.05Z"/>
  <path fill="#FF6C37" d="M72.19 81.66c-.22-.02-.43-.1-.6-.25l-7.05-6.9c-.1-.25-.1-.54 0-.8a.97.97 0 0 1 0-.64L89.83 47.8a.95.95 0 0 1 1.3 0 7.75 7.75 0 0 1 2.5 5.94c0 6.74-7.7 15.23-20.8 27.62-.17.17-.4.28-.64.3Zm-5.6-7.94 5.65 5.64c10-9.44 19.54-19.18 19.59-25.77a5.7 5.7 0 0 0-1.3-3.85L66.59 73.72Z"/>
  <path fill="#fff" d="m57.95 66.54 4.97 5.01a.3.3 0 0 1 .08.35.3.3 0 0 1-.08.1l-10.49 2.25a.99.99 0 0 1-1.08-.5 1 1 0 0 1 .19-1.2l6.11-6.1s.2 0 .3.1Z"/>
  <path fill="#FF6C37" d="M52.2 75.27a1.93 1.93 0 0 1-1.65-.96 1.93 1.93 0 0 1 .35-2.27l6.1-6.19a1.2 1.2 0 0 1 1.59 0l5 5.04c.29.28.4.7.3 1.1-.12.4-.45.72-.86.81L52.5 75.07l-.3.2Zm5.6-7.66-5.65 5.7 9.34-2.02-3.7-3.68Z"/>
  <path fill="#fff" d="M103.71 34.15a9.72 9.72 0 1 0-1.75 15.34l-6.82-6.82 8.57-8.52Z"/>
  <path fill="#FF6C37" d="M96.9 51.77a10.63 10.63 0 0 1-9.68-6.56 10.56 10.56 0 0 1 2.26-11.45 10.74 10.74 0 0 1 15.01 0 .84.84 0 0 1 0 1.3l-8.1 7.63 6.15 6.04a.83.83 0 0 1 .25.75.9.9 0 0 1-.4.64 10.92 10.92 0 0 1-5.5 1.65h.01Zm0-19.36a8.77 8.77 0 1 0 3.5 16.81l-5.9-5.88a.8.8 0 0 1 0-1.25l7.8-7.83a9 9 0 0 0-5.4-1.84Z"/>
  <path fill="#fff" d="m103.8 34.3-8.55 8.5 6.8 6.81c.69-.4 1.32-.86 1.9-1.4a10 10 0 0 0-.15-13.9Z"/>
  <path fill="#FF6C37" d="M101.94 50.38a.74.74 0 0 1-.6-.25l-6.78-6.8a.8.8 0 0 1 0-1.25l8.48-8.36a.9.9 0 0 1 1.5 0 10.52 10.52 0 0 1 0 15.01 9.14 9.14 0 0 1-2 1.6.8.8 0 0 1-.6.05Zm-5.48-7.7 5.63 5.65c.39-.27.75-.57 1.1-.9a8.88 8.88 0 0 0 2.6-6.25c0-2.1-.77-4.13-2.15-5.7l-7.18 7.2Z"/>
  <path fill="#fff" d="M91.27 49.25a3.64 3.64 0 0 0-5 0L63.65 71.91l3.75 3.8 23.92-21.05a3.72 3.72 0 0 0-.05-5.4Z"/>
  <path fill="#FF6C37" d="M67.14 76.61a.9.9 0 0 1-.6-.25l-3.8-3.8a.9.9 0 0 1 0-1.26L85.4 48.7a4.6 4.6 0 1 1 6.3 6.72L67.75 76.46a.85.85 0 0 1-.6.15ZM64.5 71.9l2.5 2.56 23.53-20.5c.58-.5.92-1.23.95-2a2.69 2.69 0 0 0-.85-2.05 2.8 2.8 0 0 0-3.96 0L64.5 71.9Z"/>
  <path fill="#fff" d="M46.08 97.64a.5.5 0 0 0 0 .6l1 4.35a1.3 1.3 0 0 1-.62 1.32 1.22 1.22 0 0 1-1.43-.15l-6.85-6.6 21.35-21.53h7.4l5 5a113.53 113.53 0 0 1-25.85 17.01Z"/>
  <path fill="#FF6C37" d="M45.63 104.97a2.11 2.11 0 0 1-1.5-.65l-6.55-6.53a.8.8 0 0 1 0-1.25l21.5-21.51a.84.84 0 0 1 .45-.25h7.45a.9.9 0 0 1 .6 0l5 4.99a.8.8 0 0 1 .25.7.8.8 0 0 1-.3.65l-.4.35a122.53 122.53 0 0 1-25.65 16.42l.95 4.04a2.15 2.15 0 0 1-2.05 2.64l.25.4Zm-6.1-7.83 5.9 5.94a.3.3 0 0 0 .4 0 .3.3 0 0 0 0-.35l-1-4.35a1.39 1.39 0 0 1 .75-1.6 122.96 122.96 0 0 0 25-16.07l-4.1-4.09h-6.7L39.53 97.14Z"/>
  <path fill="#fff" d="M32.98 102.3 38 97.31l7.74 7.65-12.3-.84a1.02 1.02 0 0 1-.9-.76.98.98 0 0 1 .44-1.08Z"/>
  <path fill="#FF6C37" d="m45.89 105.78-12.2-.85a1.93 1.93 0 0 1-1.6-1.23c-.26-.67-.1-1.46.4-2l5-5.02a.9.9 0 0 1 1.25 0l7.65 7.7a.86.86 0 0 1 0 1 .96.96 0 0 1-.5.4Zm-12.2-2.81 10 .65-5.5-5.18-4.5 4.53Z"/>
  <path fill="#fff" d="m67.61 76.25-10.08 1.54 5.84-5.76 4.24 4.22Z"/>
  <path fill="#FF6C37" d="M57.5 78.78a.85.85 0 0 1-.8-.5.85.85 0 0 1 0-1.01l5.79-5.89a.94.94 0 0 1 1.3 0l4.23 4.28a.85.85 0 0 1 0 .9.89.89 0 0 1-.7.66l-9.96 1.56h.14Zm5.84-5.49-3.24 3.27 5.58-.85-2.34-2.42Z"/>
  <path fill="#fff" d="m67.61 76.24-7.08.9a.92.92 0 0 1-.99-.44.88.88 0 0 1 .13-1.05l3.67-3.62 4.27 4.21Z"/>
  <path fill="#FF6C37" d="M60.35 78.06a1.85 1.85 0 0 1-1.81-2.08c.05-.39.23-.75.51-1.02l3.65-3.65a.95.95 0 0 1 1.3 0l4.25 4.25a.9.9 0 0 1-.55 1.55l-7 .9-.35.05Zm0-1.85 5.3-.65-2.35-2.35-3 3h.05Zm43.49-36.14a.75.75 0 0 0-.95-.3.7.7 0 0 0-.3.95c.35.74.25 1.61-.25 2.25a.63.63 0 0 0-.2.48c.01.17.08.34.2.47.12.05.27.05.4 0a.66.66 0 0 0 .65-.2 3.46 3.46 0 0 0 .45-3.65Z"/>
</svg>
