<svg width="140" height="140" viewBox="0 0 140 140" fill="none" xmlns="http://www.w3.org/2000/svg">
<path d="M94.8865 17.5348C96.6363 17.6046 98.2235 18.0277 99.5887 18.8259L99.5919 18.8278C102.85 20.6993 104.921 24.6026 105.724 30.067C106.526 35.5204 106.047 42.4382 104.294 50.1794L104.192 50.6321L100.795 41.6311M94.8865 17.5348V21.9949C95.8493 22.0546 96.6727 22.2827 97.3908 22.6766L97.3992 22.6812L97.3992 22.6812C99.2593 23.7481 100.49 26.2311 101.133 29.4878C101.782 32.7759 101.858 36.9828 101.291 41.6897M94.8865 17.5348C94.8783 17.5345 94.8702 17.5342 94.862 17.5339V21.9934M101.291 41.6897C101.291 41.6901 101.291 41.6905 101.291 41.6908L100.795 41.6311M101.291 41.6897C101.292 41.6896 101.292 41.6894 101.292 41.6892L100.795 41.6311M101.291 41.6897C101.02 44.0101 100.576 46.4484 100.036 48.9287L99.9268 49.4299L99.4286 49.3079C94.658 48.1396 89.4457 47.2382 83.9625 46.6533L83.7422 46.6298L83.6116 46.4509C80.3214 41.942 76.9112 37.8502 73.4794 34.2723L73.1278 33.9058L73.4998 33.56C77.5088 29.8339 81.4059 26.9394 84.9533 24.9738C88.2631 23.1399 91.3027 22.0954 93.862 21.9678V22.4685C88.8725 22.7289 81.7744 26.6382 74.2075 33.5869C74.2054 33.5846 74.2032 33.5824 74.201 33.5801L73.8402 33.9262C73.8402 33.9262 73.8402 33.9262 73.8402 33.9262C73.8402 33.9262 73.8402 33.9262 73.8402 33.9262L74.1806 34.2924C74.1822 34.2909 74.1838 34.2894 74.1854 34.2879C77.5175 37.7966 80.8236 41.7821 84.0155 46.1561C89.3335 46.7234 94.4003 47.5876 99.0614 48.7045C99.0606 48.7083 99.0598 48.7121 99.0589 48.7158L99.5475 48.8223L99.6664 48.3366C99.6619 48.3355 99.6574 48.3344 99.6528 48.3333C100.143 46.0324 100.544 43.7784 100.795 41.6311M94.8865 22.4959C95.7736 22.5546 96.5137 22.7658 97.1504 23.115L94.8865 22.4959Z" fill="#61DAFB" stroke="black"/>
<path d="M80.6537 70.4447C80.6537 76.3421 75.8729 81.1229 69.9755 81.1229C64.0781 81.1229 59.2974 76.3421 59.2974 70.4447C59.2974 64.5474 64.0781 59.7666 69.9755 59.7666C75.8729 59.7666 80.6537 64.5474 80.6537 70.4447Z" fill="#61DAFB" stroke="black"/>
</svg>
