<svg xmlns="http://www.w3.org/2000/svg" fill="none" viewBox="0 0 140 140">
  <rect width="117.6" height="120" x="10" y="9" fill="#D9D9D9" rx="21"/>
  <g filter="url(#a)">
    <rect width="98.4" height="98.4" x="19.6" y="21" fill="#D94D90" rx="15"/>
  </g>
  <path fill="#fff" d="M86.75 41H75.17a6.36 6.36 0 0 0-6.1-4.41A6.45 6.45 0 0 0 62.94 41H51.36c-2.19 0-4.29.86-5.84 2.4a8.15 8.15 0 0 0-2.42 5.78v42.66c0 2.17.87 4.25 2.42 5.79a8.3 8.3 0 0 0 5.84 2.4h35.4c2.19 0 4.29-.87 5.84-2.4a8.15 8.15 0 0 0 2.42-5.8V49.2c0-2.17-.87-4.25-2.42-5.78a8.3 8.3 0 0 0-5.85-2.4Zm-23.22 1.5a.76.76 0 0 0 .75-.6 4.86 4.86 0 0 1 4.8-3.82 4.94 4.94 0 0 1 4.8 3.83.74.74 0 0 0 .75.59h4.04v4.87c0 .6-.23 1.16-.66 1.58-.42.42-1 .65-1.59.65H61.74a2.22 2.22 0 0 1-2.25-2.23V42.5h4.04Zm29.98 49.35c0 1.77-.7 3.48-1.98 4.73a6.8 6.8 0 0 1-4.78 1.97H51.37a6.8 6.8 0 0 1-4.78-1.97 6.67 6.67 0 0 1-1.98-4.73V49.19c0-1.77.7-3.48 1.98-4.73a6.8 6.8 0 0 1 4.77-1.96h6.62v4.87c0 .99.4 1.93 1.1 2.63.7.7 1.66 1.1 2.66 1.1h14.64c1 0 1.95-.4 2.66-1.1a3.7 3.7 0 0 0 1.1-2.63V42.5h6.61c1.8 0 3.52.7 4.78 1.96a6.67 6.67 0 0 1 1.98 4.73v42.66Z"/>
  <path fill="#fff" d="M85.2 82.73H71.87c-.2 0-.39.09-.53.24a.86.86 0 0 0-.22.58c0 .22.08.43.22.59.14.15.33.24.53.24H85.2c.2 0 .39-.09.53-.24a.86.86 0 0 0 .22-.59.86.86 0 0 0-.22-.58.72.72 0 0 0-.53-.24Z"/>
  <path fill="#fff" d="M85.2 82.73H71.87c-.2 0-.39.09-.53.24a.86.86 0 0 0-.22.58c0 .22.08.43.22.59.14.15.33.24.53.24H85.2c.2 0 .39-.09.53-.24a.86.86 0 0 0 .22-.59.86.86 0 0 0-.22-.58.72.72 0 0 0-.53-.24ZM65.42 82.73H52.1c-.2 0-.4.09-.54.24a.86.86 0 0 0-.22.58c0 .22.08.43.22.59.15.15.34.24.54.24h13.32c.2 0 .4-.09.53-.24a.86.86 0 0 0 .23-.59.86.86 0 0 0-.23-.58.72.72 0 0 0-.53-.24ZM64.6 65.43H51.27c-.2 0-.39.08-.53.24a.86.86 0 0 0-.22.58c0 .22.08.43.22.58.14.16.33.24.53.24H64.6c.2 0 .39-.08.53-.24a.86.86 0 0 0 .22-.58.86.86 0 0 0-.22-.58.72.72 0 0 0-.53-.24ZM85.2 65.43H71.87c-.2 0-.39.08-.53.24a.86.86 0 0 0-.22.58c0 .22.08.43.22.58.14.16.33.24.53.24H85.2c.2 0 .39-.08.53-.24a.86.86 0 0 0 .22-.58.86.86 0 0 0-.22-.58.72.72 0 0 0-.53-.24Z"/>
  <defs>
    <filter id="a" width="98.4" height="98.4" x="19.6" y="21" color-interpolation-filters="sRGB" filterUnits="userSpaceOnUse">
      <feFlood flood-opacity="0" result="BackgroundImageFix"/>
      <feBlend in="SourceGraphic" in2="BackgroundImageFix" result="shape"/>
      <feColorMatrix in="SourceAlpha" result="hardAlpha" values="0 0 0 0 0 0 0 0 0 0 0 0 0 0 0 0 0 0 127 0"/>
      <feOffset/>
      <feGaussianBlur stdDeviation="1"/>
      <feComposite in2="hardAlpha" k2="-1" k3="1" operator="arithmetic"/>
      <feColorMatrix values="0 0 0 0 0 0 0 0 0 0 0 0 0 0 0 0 0 0 0.46 0"/>
      <feBlend in2="shape" result="effect1_innerShadow_205_1461"/>
    </filter>
  </defs>
</svg>
