<svg xmlns="http://www.w3.org/2000/svg" fill="none" viewBox="0 0 140 140">
  <g clip-path="url(#a)">
    <path fill="#CF649A" d="M113.27 76.7c-4.2.03-7.83 1.03-10.88 2.53-1.12-2.22-2.25-4.17-2.44-5.62-.2-1.69-.47-2.72-.2-4.73.25-2.02 1.42-4.88 1.42-5.11-.02-.22-.26-1.25-2.67-1.27-2.41-.02-4.5.47-4.73 1.1-.24.63-.7 2.09-1.01 3.59-.42 2.2-4.83 10-7.34 14.1-.82-1.59-1.52-3-1.66-4.12-.21-1.69-.47-2.72-.21-4.73.25-2.02 1.43-4.88 1.43-5.11-.03-.21-.26-1.24-2.68-1.27-2.4-.02-4.5.47-4.73 1.1-.23.64-.5 2.14-1 3.59-.5 1.45-6.36 14.48-7.88 17.88a72.37 72.37 0 0 1-1.95 4.06c-.49.94-.02.07-.07.16l-.65 1.24v.03c-.33.58-.68 1.15-.85 1.15-.12 0-.35-1.57.05-3.73.87-4.52 2.98-11.58 2.95-11.84 0-.11.4-1.36-1.36-1.99-1.7-.63-2.32.42-2.46.42-.14 0-.26.38-.26.38s1.9-7.95-3.63-7.95c-3.47 0-8.25 3.78-10.62 7.22l-8.06 4.4c-1.29.71-2.62 1.46-3.89 2.14l-.26-.28c-6.7-7.15-19.1-12.21-18.58-21.82.18-3.5 1.4-12.7 23.81-23.86 18.35-9.14 33.05-6.63 35.6-1.06 3.63 7.97-7.85 22.79-26.93 24.92-7.26.82-11.08-2-12.05-3.05-1-1.1-1.14-1.15-1.52-.94-.6.33-.23 1.32 0 1.9.56 1.48 2.9 4.1 6.9 5.42 3.48 1.15 12.02 1.78 22.33-2.2 11.55-4.48 20.58-16.9 17.93-27.29-2.7-10.57-20.23-14.04-36.8-8.15-9.87 3.51-20.55 9-28.24 16.2-9.14 8.52-10.6 15.98-9.99 19.07 2.14 11.04 17.35 18.23 23.44 23.55l-.84.47c-3.05 1.5-14.65 7.57-17.56 14-3.28 7.26.52 12.49 3.05 13.2 7.83 2.17 15.84-1.74 20.18-8.19 4.31-6.44 3.8-14.81 1.8-18.63l-.07-.14 2.4-1.4a143.7 143.7 0 0 1 4.4-2.5 29.18 29.18 0 0 0-1.57 7.98c-.33 4.12 1.36 9.46 3.59 11.57.98.92 2.15.94 2.88.94 2.58 0 3.75-2.13 5.04-4.69 1.6-3.11 3-6.72 3-6.72s-1.76 9.77 3.05 9.77c1.75 0 3.51-2.27 4.3-3.44v.02l.15-.24.28-.44v-.05c.7-1.22 2.27-4 4.62-8.62 3.02-5.96 5.93-13.4 5.93-13.4s.28 1.82 1.14 4.82c.52 1.78 1.65 3.73 2.51 5.62-.7.99-1.12 1.55-1.12 1.55l.02.02c-.56.75-1.2 1.55-1.85 2.35-2.4 2.86-5.25 6.12-5.63 7.05-.44 1.1-.35 1.92.52 2.58.63.47 1.76.56 2.95.47 2.16-.14 3.66-.68 4.4-1 1.18-.43 2.52-1.06 3.8-2a8.45 8.45 0 0 0 3.64-7.48c-.07-1.8-.66-3.58-1.38-5.27l.63-.94a98.94 98.94 0 0 0 6.56-11.36s.28 1.82 1.15 4.82c.45 1.53 1.34 3.2 2.13 4.83-3.47 2.84-5.65 6.12-6.4 8.28-1.38 3.98-.3 5.78 1.74 6.2.91.2 2.23-.23 3.21-.65 1.22-.4 2.7-1.08 4.05-2.09 2.35-1.73 4.6-4.14 4.48-7.4a14.2 14.2 0 0 0-1-4.38c2.95-1.22 6.77-1.93 11.62-1.34 10.43 1.22 12.49 7.73 12.1 10.45-.4 2.72-2.59 4.22-3.31 4.69-.73.45-.96.6-.9.94.1.49.43.47 1.06.37.87-.14 5.49-2.22 5.67-7.24.28-6.45-5.83-13.48-16.68-13.4Zm-80.44 27.12c-3.45 3.77-8.3 5.2-10.36 3.99-2.23-1.3-1.36-6.85 2.88-10.86a55.15 55.15 0 0 1 8.13-6.07l2.14-1.29.23-.14c.17-.1.35-.2.54-.33a14.95 14.95 0 0 1-3.56 14.7Zm25.2-17.13c-1.2 2.93-3.73 10.45-5.26 10.03-1.3-.35-2.1-6.05-.25-11.67a26.06 26.06 0 0 1 4.1-7.53c1.9-2.1 3.96-2.8 4.47-1.94.61 1.12-2.32 9.28-3.07 11.1Zm20.78 9.94c-.51.25-.98.44-1.2.3-.16-.1.22-.45.22-.45s2.6-2.78 3.63-4.07c.59-.75 1.29-1.62 2.04-2.6v.28c0 3.37-3.23 5.62-4.69 6.53Zm16.03-3.66c-.37-.28-.32-1.15.94-3.87a14.5 14.5 0 0 1 3.56-4.6c.24.71.38 1.39.36 2.02-.03 4.22-3.03 5.8-4.86 6.45Z"/>
  </g>
  <defs>
    <clipPath id="a">
      <path fill="#fff" d="M0 0h120v90H0z" transform="translate(10 25)"/>
    </clipPath>
  </defs>
</svg>
