<svg xmlns="http://www.w3.org/2000/svg" fill="none" viewBox="0 0 140 140">
  <path fill="#010101" d="M55.2 13.46c15.13-3.88 31.85-1.62 45.19 6.61 16.8 10.05 27.77 29.06 28.05 48.62.61 19.76-9.69 39.35-26.23 50.1-18.42 12.38-43.9 12.86-62.71 1.08C20.33 108.43 9.13 85.35 12 63.19c2.33-23.41 20.41-44.06 43.21-49.73Z"/>
  <path fill="#fff" d="M52.9 23.03c28.57-11.44 63.62 9.69 66.58 40.33 4.6 27.57-18.28 55.59-46.22 56.4C46.7 122.4 21.02 99.89 20.27 73.2c-1.98-21.6 12.25-43.03 32.62-50.18Z"/>
  <path fill="#010101" d="M55.77 67.04C68.57 56.58 81.1 45.74 94.2 35.6c-6.87 10.55-13.93 20.96-20.8 31.5-5.88.04-11.77.04-17.63-.05Zm10.83 5.83c5.91 0 11.8 0 17.69.09-12.9 10.4-25.37 21.32-38.49 31.45 6.87-10.55 13.93-20.99 20.8-31.54Z"/>
</svg>
