<svg width="140" height="140" viewBox="0 0 140 140" fill="none" xmlns="http://www.w3.org/2000/svg">
<g clip-path="url(#clip0_205_1384)">
<path d="M10 70V10H130V130H10" fill="#007ACC"/>
<path d="M36.31 70.21V75.1H51.91V119.5H62.98V75.1H78.58V70.3C78.58 67.6 78.58 65.41 78.46 65.35C78.46 65.26 68.95 65.23 57.4 65.23L36.4 65.32V70.24L36.31 70.21ZM106.42 65.2C109.48 65.92 111.82 67.3 113.92 69.49C115.03 70.69 116.68 72.79 116.8 73.33C116.8 73.51 111.61 77.02 108.46 78.97C108.34 79.06 107.86 78.55 107.38 77.77C105.82 75.55 104.23 74.59 101.74 74.41C98.14 74.17 95.74 76.06 95.74 79.21C95.74 80.17 95.92 80.71 96.28 81.49C97.09 83.14 98.59 84.13 103.24 86.17C111.82 89.86 115.54 92.29 117.79 95.77C120.34 99.67 120.91 105.79 119.2 110.38C117.28 115.39 112.6 118.78 105.91 119.89C103.81 120.25 99.01 120.19 96.76 119.8C91.96 118.9 87.37 116.5 84.55 113.41C83.44 112.21 81.31 109 81.43 108.79L82.57 108.07L87.07 105.46L90.46 103.48L91.24 104.53C92.23 106.09 94.45 108.19 95.74 108.91C99.64 110.92 104.86 110.65 107.44 108.31C108.55 107.29 109.03 106.21 109.03 104.71C109.03 103.33 108.82 102.7 108.13 101.65C107.17 100.33 105.25 99.25 99.85 96.85C93.64 94.21 91 92.53 88.54 89.95C87.13 88.39 85.84 85.96 85.24 83.95C84.79 82.21 84.64 77.95 85.06 76.24C86.35 70.24 90.88 66.04 97.36 64.84C99.46 64.42 104.41 64.6 106.48 65.14L106.42 65.2Z" fill="white"/>
</g>
<defs>
<clipPath id="clip0_205_1384">
<rect width="120" height="120" fill="white" transform="translate(10 10)"/>
</clipPath>
</defs>
</svg>
