<svg xmlns="http://www.w3.org/2000/svg" fill="none" viewBox="0 0 140 140">
  <g clip-path="url(#a)">
    <path fill="#fff" d="m70 10 53.03 30v60L70 130l-53.03-30V40L70 10Z"/>
    <path fill="#8ED6FB" d="m113.56 97.93-41.81 23.65v-18.42L97.8 88.83l15.76 9.1Zm2.86-2.59V45.88l-15.3 8.83V86.5l15.3 8.84Zm-90.15 2.59 41.81 23.65v-18.42L42.03 88.83l-15.76 9.1Zm-2.86-2.59V45.88l15.3 8.83V86.5l-15.3 8.84Zm1.79-52.66 42.88-24.26v17.81L40.61 51.34l-.21.12-15.2-8.78Zm89.43 0L71.75 18.42v17.81l27.47 15.11.21.12 15.2-8.78Z"/>
    <path fill="#1C78C0" d="m68.08 98.97-25.7-14.13v-28l25.7 14.84v27.29Zm3.67 0 25.7-14.13v-28l-25.7 14.84v27.29ZM44.12 53.6l25.8-14.19 25.8 14.19-25.8 14.9-25.8-14.9Z"/>
  </g>
  <defs>
    <clipPath id="a">
      <path fill="#fff" d="M0 0h120v120H0z" transform="translate(10 10)"/>
    </clipPath>
  </defs>
</svg>
