<svg width="140" height="140" viewBox="0 0 140 140" fill="none" xmlns="http://www.w3.org/2000/svg">
<g clip-path="url(#clip0_205_1459)">
<path d="M70 10L123.03 40V100L70 130L16.97 100V40L70 10Z" fill="white"/>
<path d="M113.56 97.93L71.75 121.58V103.16L97.8 88.83L113.56 97.93ZM116.42 95.34V45.88L101.12 54.71V86.5L116.42 95.34ZM26.27 97.93L68.08 121.58V103.16L42.03 88.83L26.27 97.93ZM23.41 95.34V45.88L38.71 54.71V86.5L23.41 95.34ZM25.2 42.68L68.08 18.42V36.23L40.61 51.34L40.4 51.46L25.2 42.68ZM114.63 42.68L71.75 18.42V36.23L99.22 51.34L99.43 51.46L114.63 42.68Z" fill="#8ED6FB"/>
<path d="M68.08 98.97L42.38 84.84V56.84L68.08 71.68V98.97ZM71.75 98.97L97.45 84.84V56.84L71.75 71.68V98.97ZM44.12 53.6L69.92 39.41L95.72 53.6L69.92 68.5L44.12 53.6Z" fill="#1C78C0"/>
</g>
<defs>
<clipPath id="clip0_205_1459">
<rect width="120" height="120" fill="white" transform="translate(10 10)"/>
</clipPath>
</defs>
</svg>
