<svg width="140" height="140" viewBox="0 0 140 140" fill="none" xmlns="http://www.w3.org/2000/svg">
<g clip-path="url(#clip0_205_1456)">
<path d="M70.0223 10C102.809 10.0644 129.128 36.1505 129.97 68.373C130.862 102.983 102.666 130.773 68.6207 129.985C36.7894 129.262 11.466 103.859 10.0644 72.781C8.50429 38.3396 36.0564 9.97525 70.0223 10Z" fill="#3398C2"/>
<path d="M47.9231 52.0191C48.3144 50.4986 48.879 49.0277 49.6021 47.626C50.3104 46.2739 51.3207 45.2636 52.7867 44.7782C53.8367 44.4365 54.7134 43.8322 55.5008 43.0348C58.2793 40.2415 61.6521 38.617 65.5747 38.1812C66.2186 38.1168 66.5455 37.879 66.7931 37.2748C67.3825 35.8435 68.1155 34.4666 69.0862 33.2482C70.369 31.6336 71.9043 30.4301 74.1231 30.5589C75.5248 30.6381 76.6936 31.2275 77.5455 32.3567C78.5014 33.6147 79.2096 35.0213 79.8931 36.4378C80.116 36.8984 80.2992 37.0668 80.8638 36.9479C82.9341 36.4873 84.6131 37.3937 85.5046 39.3203C86.5397 41.5738 87.0399 43.961 87.2875 46.4027C87.8125 51.4793 87.4708 56.4766 85.7522 61.3402C84.7418 64.1979 83.3253 66.8476 81.5968 69.3389C81.3888 69.641 81.3343 69.8391 81.6216 70.1511C86.2524 75.3465 88.5208 81.4037 88.2583 88.3821V88.8824C88.5852 88.8972 88.8378 88.6991 89.0854 88.5654C91.1309 87.5154 92.9931 86.1782 95.0535 85.1431C97.9508 83.6869 100.982 82.6667 104.271 82.6914C109.134 82.7311 112.259 87.4659 110.224 91.6856C109.421 93.3498 108.114 94.5335 106.316 94.9247C103.037 95.6577 100.125 97.1435 97.3466 98.9662C92.7702 102.007 87.7581 104.266 82.5131 105.994C82.1615 106.113 81.8296 106.257 81.5275 106.494C80.1259 107.544 78.4865 107.975 76.7778 108.213C71.5973 108.936 66.3919 109.248 61.1717 109.471C59.0222 109.565 56.8827 109.273 54.9808 108.134C54.4707 107.817 54.0249 107.227 53.4999 107.138C52.9898 107.059 52.4103 107.529 51.8457 107.663C48.5026 108.411 45.3675 107.782 42.4702 106.024C40.7516 104.989 39.9393 103.349 40.0285 101.329C40.0532 100.789 39.8997 100.397 39.5827 99.9666C38.191 98.0251 37.5125 95.8113 37.1311 93.4736C36.3833 88.8725 38.0226 85.0688 41.0636 81.7356C41.3509 81.4186 41.4549 81.1066 41.4549 80.6856C41.4549 76.0845 42.3315 71.7013 44.694 67.6896C46.0163 65.446 47.725 63.5194 49.6269 61.776C49.9934 61.4491 50.033 61.2263 49.7854 60.8053C48.983 59.468 48.4878 57.9971 48.0519 56.5013C47.6854 56.2389 47.9231 55.8327 47.7746 55.5058C47.7498 55.2582 47.7746 55.0056 47.6953 54.758V53.1186C47.7597 52.8809 47.7597 52.6333 47.7597 52.3856C47.8191 52.2668 47.7944 52.1083 47.9231 52.0191Z" fill="#FEFEFE"/>
<path d="M47.8835 55.4959C47.9875 55.8227 47.8588 56.1892 48.0519 56.5062C47.9974 56.5458 47.9975 56.8083 47.9232 56.6251C47.7795 56.2734 47.6755 55.8772 47.6755 55.4959C47.6508 54.2379 47.5319 52.965 47.8835 51.7169C47.8984 51.8209 47.9083 51.9249 47.938 52.019C47.9232 52.1379 47.9133 52.2568 47.8984 52.3608C47.7795 52.5836 47.9133 52.8461 47.7944 53.069V54.7876C47.8835 55.0105 47.7696 55.273 47.8835 55.4959Z" fill="#3298C3"/>
<path d="M84.7369 89.0655C84.7369 90.274 84.4596 91.4528 84.306 92.6315C84.1772 93.6666 84.2813 93.7855 85.3312 93.6022C87.6937 93.1961 89.8283 92.2006 91.8887 91.0318C94.0926 89.7738 96.1926 88.3424 98.5501 87.4014C100.373 86.6684 102.235 86.183 104.216 86.183C105.935 86.183 107.128 87.1141 107.336 88.5851C107.534 89.9471 106.787 91.2497 105.42 91.5369C101.512 92.3641 98.139 94.2907 94.8504 96.4303C90.4425 99.2781 85.6433 101.333 80.6459 102.908C80.4627 102.963 80.225 103.003 80.1061 103.116C78.9273 104.365 77.3672 104.573 75.7923 104.781C71.3744 105.36 66.9268 105.618 62.4694 105.88C61.1866 105.959 59.8989 105.999 58.6161 105.751C56.5707 105.345 55.7039 104.582 55.3919 102.903C55.1145 101.393 55.8228 99.9665 57.3334 98.9809C57.4919 98.8769 57.6603 98.7729 57.9129 98.6144C57.1006 98.1142 56.432 97.5248 55.9218 96.7918C55.6742 96.4501 55.5405 96.663 55.4612 96.9503C55.2136 97.8963 54.961 98.8521 54.7134 99.7981C54.545 100.427 54.332 101.046 54.0695 101.645C53.3068 103.389 51.92 104.231 50.0826 104.399C48.2055 104.568 46.4373 104.152 44.7584 103.324C43.6044 102.76 43.2626 101.908 43.644 100.66C43.8421 99.9913 44.2235 99.4118 44.6791 98.7036C43.0942 99.0205 42.3959 98.0993 41.8462 96.985C40.6129 94.5433 40.1919 91.9629 40.6922 89.2884C41.0983 87.1637 42.3464 85.4352 43.8421 83.9394C44.7187 83.0628 44.9812 82.2208 44.9565 80.9876C44.7584 73.8656 47.4477 68.0164 52.9849 63.4945C53.4702 63.0884 53.9556 62.6674 54.4657 62.3009C54.7827 62.078 54.8174 61.9344 54.5598 61.6075C53.1285 59.8097 52.0141 57.8583 51.504 55.5899C50.9245 53.0343 51.7913 50.8155 53.079 48.6908C53.2622 48.4035 53.5495 48.2599 53.8665 48.141C55.4811 47.5615 56.8431 46.6849 58.0763 45.4517C60.8548 42.6732 64.292 41.4003 68.2245 41.5687C68.7247 41.5935 68.9476 41.4499 69.1011 40.9793C69.6905 39.2607 70.4235 37.6065 71.4091 36.0761C71.7756 35.4967 72.1817 34.9618 72.7067 34.5309C73.6774 33.7285 74.5045 33.8474 75.1583 34.9122C76.3668 36.8389 77.2979 38.9141 78.2389 40.9843C78.4766 41.5093 78.6599 41.6925 79.2096 41.3359C79.8535 40.9298 80.5716 40.6426 81.2948 40.39C81.8742 40.1919 82.211 40.3256 82.4636 40.9298C83.1966 42.6979 83.5928 44.5503 83.8157 46.4521C83.8801 46.9771 83.9989 47.4872 83.9346 48.0122C83.8949 49.1514 83.9494 50.2955 83.9593 51.4494C83.9593 51.9596 83.7761 52.4747 83.9346 52.9947C83.8157 56.1149 82.9886 59.0668 81.7851 61.9245C80.6558 64.599 79.0165 66.9713 77.3771 69.3487C76.7333 70.2649 76.7481 70.2798 77.5851 71.0276C81.6761 74.7125 83.9346 79.3433 84.6923 84.7467C84.7171 84.9547 84.7072 85.1776 84.7072 85.4005C84.5388 85.9007 84.722 86.3861 84.732 86.8715C84.7765 87.6094 84.6081 88.3474 84.7369 89.0655Z" fill="#3398C2"/>
<path d="M83.9494 53.0047C83.7909 52.8759 83.8305 52.6877 83.8305 52.5193V48.5175C83.8305 48.3491 83.7909 48.1658 83.9494 48.0321C84.1228 49.6863 84.1327 51.3504 83.9494 53.0047Z" fill="#2B95C1"/>
<path d="M84.7369 89.0655C84.4744 88.0552 84.6824 87.0349 84.618 86.0245C84.6032 85.8165 84.5388 85.5788 84.7369 85.4104C84.9053 86.6288 84.8805 87.8472 84.7369 89.0655Z" fill="#2693BF"/>
<path d="M47.7795 53.0691C47.7944 52.8313 47.6755 52.5689 47.8835 52.3608C47.8835 52.5936 47.8984 52.8462 47.7795 53.0691ZM47.8835 55.4959C47.6854 55.2879 47.7894 55.0254 47.7795 54.7877C47.9132 55.0106 47.8835 55.2582 47.8835 55.4959Z" fill="#3398C2"/>
</g>
<defs>
<clipPath id="clip0_205_1456">
<rect width="119.99" height="120" fill="white" transform="translate(10 10)"/>
</clipPath>
</defs>
</svg>
