<svg xmlns="http://www.w3.org/2000/svg" fill="none" viewBox="0 0 140 140">
  <g clip-path="url(#a)">
    <path fill="#3398C2" d="M70 10a60 60 0 1 1 0 120 60 60 0 0 1 0-120Z"/>
    <path fill="#FEFEFE" d="m48 52 2-4c0-2 1-3 3-3l3-2c2-3 6-4 10-5l1-1 2-4c1-1 3-3 5-2l4 1 2 4 1 1c2-1 4 0 5 2l1 7a34 34 0 0 1-5 23v1c4 5 7 11 6 18v1h1l6-4 9-2c5 0 8 4 6 9-1 1-2 3-4 3l-9 4a61 61 0 0 1-15 7c-2 2-4 2-5 2l-16 1c-2 1-4 0-6-1l-2-1-1 1c-3 0-7 0-10-2l-2-5v-1c-2-2-2-4-3-7-1-4 1-8 4-11v-1c0-5 1-9 4-13 1-3 3-4 5-6v-1l-2-4v-5Z"/>
    <path fill="#3298C3" d="M48 55v2-5 3Z"/>
    <path fill="#3398C2" d="m85 89-1 4 1 1 7-3 7-4 5-1c2 0 3 1 3 3 1 1 0 2-2 3-3 0-7 2-10 4l-14 7h-1l-4 2-14 1h-3l-4-3 2-4h1l-2-2h-1v3l-1 2-4 2c-2 1-4 0-5-1-1 0-2-1-1-2l1-2c-2 0-3-1-3-2-1-2-2-5-1-8 0-2 1-4 3-5l1-3c0-7 2-13 8-18l1-1h1l-3-6c-1-3 0-5 1-7l1-1 4-3c3-2 6-4 10-3l1-1 2-5 2-1h2l3 6h1l2-1 1 1 2 5v7l-2 9-5 7 1 2c4 4 6 8 7 14v4Z"/>
    <path fill="#2B95C1" d="M84 53v-5 5Z"/>
    <path fill="#2693BF" d="M85 89v-4 4Z"/>
    <path fill="#3398C2" d="M48 53v-1 1Zm0 2Z"/>
  </g>
  <defs>
    <clipPath id="a">
      <path fill="#fff" d="M0 0h120v120H0z" transform="translate(10 10)"/>
    </clipPath>
  </defs>
</svg>
