<svg xmlns="http://www.w3.org/2000/svg" style="shape-rendering:geometricPrecision;text-rendering:geometricPrecision;image-rendering:optimizeQuality;fill-rule:evenodd;clip-rule:evenodd" viewBox="0 0 6922 6922">
  <circle cx="3461" cy="3461" r="3461" style="fill:transparent"/>
  <path d="m1843 459 256-39-123-13-133 52zm218-21-265 41-34 49 299-90zm115-22 5 1v-2l-5 1zm9 1 8 1-6 1 1 1 361 22 89-146-456 119 3 2zm-5 3-33 5-22 23 55-26v-2zm-180-23 143 16 170-138-313 122zm-30-1 4-1 370-146h2l3-2h3l260-114 24-11-9 10 147 5h1l245-76h1l290-44c4-1 7 2 7 5 1 3-1 5-3 6l47-9h3l156 11 36-10c3-1 7 0 8 4 1 3-1 6-4 7l-6 2 46 3h1l203 29 310 75 80 15-12-58c-1-3 2-6 5-7s6 1 7 5l13 63 371 70h1v1h2l52 43 255 100 94 19c3 0 5 3 4 7 0 3-3 5-7 4l-28-5 179 70c2 1 4 3 4 6l139 197 93 102 104 21c3 1 5 4 4 7 0 3-4 5-7 5l-87-18 161 174c2 3 2 7-1 9-2 2-6 2-8 0l-172-187-120-25 315 284c2 3 2 7 0 9s-6 3-8 0l-324-292-42 172c-1 3-4 5-8 4-3 0-5-4-4-7l43-176-448-112 2 9c0 4-2 7-6 7-3 1-6-2-6-5l-2-14-17-4-4-1v-1l-353-177-91 5 280 248c3 2 3 6 1 9-3 2-6 3-9 0l-289-256-129 8 11 81 294 106c3 1 4 4 3 8-1 3-4 4-8 3l-287-103 7 52c1 3-1 6-5 7-3 0-6-2-7-5l-8-59-202-73 76 216c1 3-1 6-4 7-3 2-6 0-8-3l-80-228-4-12 11 4 197-12-19-137-307-17-260 32 28 17 315 54c3 1 6 4 5 7s-4 6-7 5l-285-49 241 146c3 2 4 6 3 8-1 3-5 5-8 3l-356-171 152 222c2 3 1 7-1 9-3 2-7 1-9-2l-160-234-133 197 162 91c3 2 4 5 2 8-1 3-5 4-8 3l-163-92-18 27c-2 3-6 3-8 2-3-2-4-6-2-9l18-26-193-108-152 129-47 133c-1 3-5 4-8 3s-5-4-3-7l40-113-78 66c-3 2-6 2-9-1-2-2-2-6 1-8l94-80 28-80-501 180c-4 1-7 0-8-3-1-4 0-7 4-8l485-175-407-24-111 182v1l-4 2-615 106-419 236c-3 2-7 1-8-2-2-3-1-7 2-8l413-233-53-49-106-10-264 289c-2 3-6 3-8 1-3-3-3-7-1-9l266-291 130-187-5 1c-3 1-7-1-7-4-1-3 1-7 4-8l21-5 179-71zm-210 145c-3 1-5 0-7-1l-82 119 38-18c-1-2 0-4 2-6 2-3 6-3 8 0l2 1 371-173 23-23-15 7 16-12-356 106zm419-105-79 37-226 225c-1 2-3 2-5 2l-88-8 45 42 600-104-235-192-23 213c0 3-3 6-7 5-3 0-5-3-5-6l23-214zm-112 52-337 157 36 33 102 10 199-200zm-349 162-42 20 71 7-29-27zm493-211 227 186 104-171-291-18 201 50c3 1 5 4 4 7-1 4-4 6-7 5l-238-59zm382-201-12 5 68 36 27-31-83-10zm-27 11-339 142 407-106-68-36zm-244 89 231-97h-1l-43 4-187 93zm331-44-90 149 431 26 8 1-3 7-26 72 131-111-62-20h-4c-3 1-6-1-7-4l-378-120zm-304-33-158 128 284-140-124 11-2 1zm157-27 28-14 2-1 3-3-103 24 70-6zm47-34 39-46-179 79 140-33zm64-56-44 51 189-45 1-1-146-5zm-58 67-12 14 8 4 36-4h1l118-16 38-43-189 45zm252-60-42 10-40 46 273-38-191-18zM1499 627c3-2 7-2 9 1 2 2 2 6-1 8l-145 122-141 155-77 184c-1 3-4 5-8 4-3-2-4-5-3-8l66-157-261 262 154-66c3-1 7 1 8 4 2 3 0 6-3 8l-182 76-157 143c-2 3-6 3-9 0-2-2-2-6 1-9l157-142 11-27v-1l76-135 1-1 1-1 188-128v-1h1l27-13 141-155 1-1 145-122zm-313 305-182 124-75 133 257-257zm-224 449c2-2 6-2 8 0 3 3 2 7 0 9l-290 265 10 106 49 53 233-413c2-3 5-4 8-3 3 2 4 6 3 9l-237 419-105 612 2 4-5 3h-1l-181 110 24 408 183-486c1-3 5-5 8-4s5 5 4 8l-189 501 79-27 81-94c2-3 6-3 8-1 3 2 3 6 1 9l-67 78 113-39c3-2 7 0 8 3s-1 7-4 8l-132 46-130 151 108 193 26-18c3-1 7-1 9 2s1 7-2 8l-27 19 92 162c1 3 0 7-3 9-3 1-6 0-8-3l-91-161-195 134h-1l233 159c3 2 3 6 2 8-2 3-6 4-9 2l-231-157v8l14 77 167 276c2 2 1 6-2 8s-7 1-9-2l-150-248 53 291c0 4-2 7-5 7-4 1-7-1-7-5l-59-322-5-9-22 553 136 20 13-198 1-29 9 25 225 79c4 1 5 5 4 8s-4 5-8 3l-215-75 72 201 59 9c3 0 6 3 5 7 0 3-3 5-7 5l-52-8 103 288c1 3 0 6-4 7-3 1-6 0-7-3l-106-294-80-11-8 128 254 289c2 3 2 7 0 9-3 2-7 2-9-1l-246-280-6 93 174 350 1 2c3 1 5 4 5 7 0 2-1 3-3 4l3 10 18 3c3 0 5 3 5 7-1 3-4 5-7 5l-13-2 105 447 6 1 180-43c3-1 6 1 7 4s-1 7-5 7l-170 42 291 325c3 3 2 7 0 9-3 2-6 2-9-1l-297-331 31 130 194 177c2 3 3 6 0 9-2 2-6 2-8 0l-181-165 21 91c1 3-1 6-4 7-4 1-7-1-8-5l-25-108-94-86-201-141c-2-1-3-2-3-4l-25-213-80-156 41 219c0 3-2 6-5 7-3 0-7-2-7-5l-48-258-2-5-1-3-110-135c-3 0-6-2-7-5l-56-368-72-11c-3-1-5-4-5-7 1-3 4-6 7-5l67 10-16-53v5l-9-35-73-306h-1l-27-203-1-3 3-3 38-26-8-27c0-2 0-4 2-6l-16-54-25 80c-1 4-4 5-7 4-4-1-5-4-4-7l29-98-30-100c-1-3 1-7 4-8 4-1 7 1 8 4l25 83 19-64 88-323-20-207-64 274c0 2-1 4-3 4l-47 191c-1 3-4 5-7 4-4 0-6-4-5-7l48-197 4-4 49-213-45 121c-1 4-5 5-8 4s-5-5-3-8l77-208 7-29c-2 1-5 0-7-2l-1-4-5-148-11 9 11-24 116-263 143-362-2-11c0-3 2-6 6-7l2 1 70-178 5-23c1-3 4-5 7-4 4 0 6 4 5 7l-2 8 187-131 292-267zm-228 445-42-45 8 88-2 5-227 229-34 75 213-22c4 0 7 2 7 5 0 4-2 7-5 7l-213 22 192 236 103-600zm-56-60-37-40-156 346 202-204-9-102zm-35-55 33 35-7-82-128 90c1 1 2 3 1 5l-110 367 29-30 172-384 3-2 1-1h4l1 1 1 1zm-115 51-48 35-42 264 90-299zm-102 412 21-46-23 22-5 16 7 8zm-8-2-2 4-1-8-20 39 26-24-3-11zm-5-26-18-135-125 316 100-95 43-86zm-9-159 15 118 41-259-56 141zm93 461c1 3-1 7-4 7-4 1-7-1-8-4l-48-198 18 289 170-104-186-228 58 238zm-53 115-149 90 124 383v1l19 66 112-130-70 24-9 24-2-29-25-429zm-146 74 145-88-20-329-125 417zm-18 12-36-69-5 12 10 83 31-26zm-43-82-11-21-15 13-44 187 43-37 16-118 1-3 10-21zm-1-30 8 16 164-340-29 26-142 285-1 13zm15 30 35 67 113-376-148 309zm-25-47 6-51-16 70 10-19zm34-167-18 134 112-223-94 89zm-27 61-78 177 45-39 33-138zm-38 159-50 43 4 145 2-1 44-187zm-33 193-11 45 19 192 38-276-46 39zm62-69 8-7-2-35-6 42zm57-33-30 26 28 227 2-253zm-48 41-11 10-47 339 88 208-30-557zm174 334-114-352-3 321 39 311 49-100 29-180zm22 76-14-49-19 116 33-67zm-86 320 28-176-39 81 11 95zm47-212-36 222 187-129-105-187-46 94zm-102 98 18 44 13-27-30-238-1 221zm24 58 17 40-7-59-10 19zm2 36-9-21-2 5 11 16zm-15-36-12-28v27l8 10 4-9zm-34-81-95-224-82 306 14 55 57-216 3-4c2-2 6-1 8 2l98 134-3-53zm66 160-34-47-10 21v3l-1 2 30 48 14-19v-5l1-3zm-42-58-2-2v6l2-4zm-20-27-101-139-60 224 20 77 144-103-3-59zm7-94 2-270-30-244 28 514zM81 3402l-19 61 17 57 17-62-15-56zm4 142-1 3 4 16 30-21-16-60-17 62zm47 3 37 141 109-150-5-91-141 100zm28 157-39-149-29 21 74 259 2-20 4 30 109-255-2-33-108 149-8 10-3-12zm129-182 19-26-22-37 3 63zm26-15-25 34 1 24 25-57-1-1zm-139 688 29-18-35-257-18 190 24 85zm40-26 32-20 43-363-9-168-107 251 41 300zm45-29 48-31-14-253-34 284zm49-17-51 33-21 175 92 190-20-398zm-64 41-28 19 14 101 14-120zm-39 26-28 18 56 361 3 2 101 125-2-36-86-82c-2-1-2-3-2-4l-23-241v-1l-19-142zm107-207 17-425-28 229 11 196zm9-461-30 70 7 125 23-195zm146 607 76 10-65-180-11 170zm-12 10-126-18 119 135 7-117zm-294-271-82-285-31 22 27 199 66 270 20-206zm6594 321 4-7-5 32h-1l-80 437c2 2 3 6 2 8l-20 35-125 290-126 235c-2 3-5 4-8 3-3-2-4-5-3-8l126-235 78-182-188 338-2 2-3 3-62 46v1c-2 3-4 4-7 4l-140 76v1l-41 214c-1 3-4 5-7 5-3-1-6-4-5-7l37-194-21 28-35 157c-1 3-4 5-7 4-3 0-5-4-5-7l29-131-214 280c-2 3-6 4-9 1-3-2-3-5-1-8l230-301 9-39h-18l-260 291c-2 3-6 3-8 1-3-3-3-6-1-9l253-283h-114c-3 0-6-3-6-6 0-4 3-7 6-7h124l30-33-171-43c-4-1-6-4-5-8 1-3 4-5 8-4l175 44 78-295 41-181 1-4 1-1 156-311-41-48-191 196c-2 2-6 2-8 0-2-3-3-6 0-9l195-200 192-238-286 40c-4 1-7-1-7-5-1-3 2-6 5-7l296-42 6-107-32-135-55-215-67 111-7 105c0 3-3 6-6 6s-6-3-6-7l5-82-34 56c-1 3-5 4-8 2s-4-6-2-8l46-76 20-331-181 64-36 12h-2l-37-1h-2l-39-10-257-72 7 390 70 68c3 2 3 6 1 8-3 3-7 3-9 0l-62-59 2 101c0 3-3 6-6 6s-6-3-6-6l-2-112-133-127-147 293-167 226-9 123 597-131c3 0 6 2 7 5 0 3-2 7-5 7l-587 129 351 169 217 103c3 1 5 5 3 8-1 3-5 4-8 3l-213-102-164 133 153 246 4 3 1 4v1l-1 3-65 211v1l-136 339 356-282c3-2 7-2 9 1s2 7-1 9l-368 291 16 9 242-166c3-2 6-1 8 2s1 6-1 8l-238 163 155 98c3 1 4 5 2 8s-6 4-8 2l-160-100-65 44-42 61 100 162c2 3 1 7-2 8-3 2-7 1-8-2l-97-157-164 240c-2 2-6 3-9 1-2-2-3-5-1-8l167-244-9-14-286 361c-2 3-6 3-9 1-2-2-3-6-1-9l278-349-341 136-1 1-211 63-3 1-2-1-252-157-132 164 101 214c2 3 0 7-3 8-3 2-6 0-8-3l-103-217-170-351-128 587c0 4-3 6-7 5-3-1-5-4-4-7l130-597-123 9-225 168h-1l-274 166 108 113 112 2c3 0 6 3 6 6 0 4-3 6-6 6l-100-2 58 61v1l263 41c4 1 6 4 6 7-1 3-4 6-7 5l-279-43-4-4-351-73-62 223 39 29c2 2 3 6 1 8-2 3-6 4-9 1l-34-26-17 62c-1 3-5 5-8 4s-5-4-4-7l18-66-296-224-145 3-153 200c-2 3-6 3-9 1-2-2-3-6-1-8l155-203 54-68-634-520-85-1 19 400 70 86c2 3 1 7-1 9-3 2-7 2-9-1l-59-74 9 214c1 2 0 4-2 5-1 1-4 2-6 1l-721-242-126-7 99 145c2 3 1 7-1 8-3 2-7 2-9-1l-104-153-203-10c-3-1-6-3-6-7 0-3 3-6 6-6l194 11-140-205-184 115c-3 2-7 1-8-2-2-2-1-6 2-8l181-114-364-289c-3-2-3-6-1-9 2-2 6-3 8-1l354 281-69-172v-1l-124-353-31-15c-3-1-5-5-3-8 1-3 5-4 8-3l11 5 1-4 128-204-21-24c-2-2-2-6 1-8 2-2 6-2 8 0l18 21 80-127-65-122-363 175c-3 1-7 0-8-3-2-3-1-7 2-8l364-175-86-161-187-41-65 276c-1 4-4 6-7 5s-5-4-5-7l65-277-98-21c-3-1-5-4-5-8 1-3 4-5 7-4l99 21 49-210-285 10c-3 0-6-2-6-6 0-3 2-6 6-6l298-9 142 266 294 64-35-546-141-235-72 68-77 360c-1 3-4 5-7 4-3 0-6-4-5-7l73-342-265 253c-3 2-6 2-9 0-2-3-2-6 1-9l278-265 28-132-15 14 11-19-401 168c-4 2-7 0-8-3-2-3 0-7 3-8l404-169-349-143-129 171c-2 3-5 3-8 1s-3-5-1-8l127-168-48-20c-4-1-5-5-4-8s5-4 8-3l51 21 191-254-171-132-164-6c-3 0-6-2-6-6 0-3 3-6 6-6l148 5-82-63c-2-2-3-6-1-9 2-2 6-3 9-1l95 74 117 4-119-499c0-3 2-6 5-7s6 1 7 5l117 490 299-561-370 19c-4 0-7-2-7-6 0-3 2-5 5-6v-1l243-721 18-345c0-3 3-6 6-5 4 0 6 3 6 6l-17 331 41-35 12-346 1-5 5-1 344-18 8-9 1 7 711-239 11-12-1 17-17 367 565-300-491-117c-3-1-5-4-4-7 0-4 4-6 7-5l499 119-5-118-73-95c-2-3-2-6 1-8s6-2 9 1l63 81-6-148c0-3 3-6 6-6 4 0 6 3 7 6l5 164 133 172 249-188-22-50c-1-3 0-7 3-8s7 0 8 3l21 47 172-130c3-2 7-1 9 2 2 2 1 6-1 8l-175 132 144 326 173-385c1-3 5-4 8-3 3 2 4 5 3 8l-177 395 2 5c1 3 0 6-3 8h-1l146-30 266-279c2-2 6-2 8 0 3 2 3 6 1 9l-254 265 354-73c4-1 7 2 7 5 1 3-1 6-4 7l-371 77-68 71 242 139 536 37-3-7 4 2-64-289-260-138-6 1v-7l1-1 9-295c1-3 3-5 7-5 3 0 6 3 6 6l-10 287 209-50-22-101c-1-3 1-6 4-7 4-1 7 1 7 4l23 101 278-66c3-1 7 1 7 4 1 4-1 7-4 8l-279 66 41 185 162 86 175-364c1-3 5-4 8-3 3 2 4 5 3 8l-176 365 124 65 128-79-23-20c-3-3-3-6-1-9 2-2 6-3 9 0l26 23 193-119-5-8 15 5 377 137h1l173 63-279-351c-2-3-2-7 1-9s6-2 9 1l287 361 112-180c2-3 6-4 9-2s4 5 2 8l-115 183 205 141-10-194c-1-3 2-6 5-6 4 0 6 2 7 6l10 203 153 105c3 2 4 5 2 8s-6 4-9 2l-145-100 7 126 242 721v1h1v1l-2 3v1h-1v1h-1l-1 1h-2l-213-10 73 59c2 2 3 6 1 8-2 3-6 3-9 1l-85-69-471-21 581 731 4-5 1-1 154-119 30-161c1-4 4-6 7-5 4 1 6 4 5 7l-28 148 106-83c3-2 7-1 9 1 2 3 1 7-1 9l-117 91-51 268 222 279 37 9 35 1 33-11 143-254-58-253-92-104c-2-3-2-6 1-9 2-2 6-2 8 1l77 87-27-119c-1-4 1-7 4-8 3 0 7 2 7 5l33 141 75 85 39 51 130-405-15-62-166-101-23 28c-2 2-6 3-8 1-3-3-3-6-1-9l22-26-134-81-5 7-2-14-107-615-90-160h-75c-3 0-6-2-6-6 0-3 3-6 6-6h68l-140-248c-1-3 0-6 3-8 2-2 6-1 8 2l143 254h87l-263-342c-2-3-1-6 1-8 3-2 7-2 9 1l254 331-37-193c-1-3 2-6 5-7 3 0 6 2 7 5l41 213 1 3 86 51 4 2 1 1 95 57v-2c-1-4 1-7 4-8s6 1 7 4l5 15 6 4 1 1 1 1 119 187 1 2v2l-19 170 91 184 64-62 9-8 2 11 54 289 60 53c2 2 3 4 2 6v2l-4 158 76 243v1l29 132 1 2v2l1 1h-1l12 154c1 3-2 6-5 6-4 0-7-2-7-6l-10-136-30 47 15 97 2-8 2 37v1l14 252v1l7 160v4c0 2-1 4-3 5l-132 405-1 12zM1259 1621l1-29-32 28 31 1zm26-385-12 329 160-137 179-209-327 17zm-12 345-2 35 110-127-108 92zm362-323 3 2c2 3 1 7-1 9l-2 1 23 376 84 5 258-554c2-3 5-4 8-3 4 2 5 5 3 8l-241 519 558-638-696 234 3 41zm-11 22-183 157-160 186 365 22-22-365zm-130 96 129-111-2-37-127 148zm-225 261c-2 3-6 3-8 1l-3-4-41-3-234 697 639-559-519 241c-3 2-7 0-8-3-2-3 0-6 3-8l554-257-5-85-376-23-2 3zm390 21 5 75 57-51-48 56 60-6 6-60-11 9 5-10-13 7 13-15-74-5zm150-64 428-373c3-2 6-2 9 1 2 2 2 6-1 8l-455 397 534-283 16-357-531 607zm1115-560v9l-5-2-583 310-15 322h2l621-534h1l97-57-122-157 4 109zm-601 324-567 301 69 64 484-48 14-317zm-20 330-467 46 282 265 185-311zm-483 48-75 7-7 79 260 279 98-65 16-26-292-274zm-88 8-61 6 56 60 5-66zm14-13 63-6-58-55-5 61zm-151 78-613 536 360-18 286-538-397 456c-2 3-6 3-9 1-2-2-2-6 0-9l373-428zm532 198 5 5 446-257-264-61-187 313zm-5 12-1-1-2 2 3-1zm-115 91 17 19c3 2 3 6 0 8-2 3-6 2-9 0l-18-20-289 192h226l148-249-75 50zm-19-2-252-270-40 465 292-195zm-263-282-65-70-304 570 327-17 42-483zm-50 496-325 16-310 582-7 14-3-11-104-3 157 121 57-96v-1h1v-1h1l1-1h5v1h1l1 1v1l1 1v1l2 10 522-635zm-533 642-13 22 14-17-1-5zm-57 96-188 249 349 143-59-277-102-115zm97 91-36-167-54 66 90 101zm-26-179 42 197 134 151 180-302 164-679-520 633zm47 221 54 252 68-114-122-138zm902-1149-157 265h436l432-356-682 73-29 18zm-165 277-176 296 71 311 106-96 370-449 4-2 85-6-18-54h-442zm-185 311-232 390-59 241 361-326-70-305zm-253 426-162 271 23 26 85-77 54-220zm-168 282-54 90 74-67-20-23zm199-358 218-367-63-274-155 641zm227-382 166-279h-230l64 279zm185 245-106 96 35 154 11-6v-1h4l2 1h1l377 359 10-258-334-345zm-117 106-369 333-14 60 418-243-35-150zm-385 348-72 65 13 15 46-27 13-53zm-81 73-61 55 73-42-12-13zm525-271-10 6 94 410 200 34 95-90-379-360zm-21 13-425 246-15 61c2 1 4 3 4 6l528 88-92-401zm-440 255-34 19 23 26 11-45zm-44 26-116 67 67 38 77-73-28-32zm36 41-74 70 82 48-8-118zm-186 160 61-58-36-60-25 118zm70-67 9-8-31-28 22 36zm18-16 4-4-23-13 19 17zm14 2-5 6 100 91-2-43-93-54zm-14 14-12 11 130 218-8-129-110-100zm122 95 495 447-1-4 9 10 115-118-54-235-115 110-3 3-4-3-445-258 3 48zm497 465-496-448 9 139 434 725 102 44-49-460zm-501-528 448 261 117-111-42-183-530-88 7 121zm575 140 147-140-186-31 39 171zm269-255 128-122-119-122-9 244zm138-114-137 129 135 129 9-9-1 7 293-127-299-129zm-152 143-82 78 79 13 3-91zm-93 89-159 151 54 234 188-194 6-176-89-15zm225 25-120-114-3 93 123 21zm-91-1184-356 431 327 337 29-768zm-18 780 119 123-91-839-28 716zm33-775 100 910 311 135 20-9-259-783-172-253zm82 1192-130-21-6 161 136-140zm-136 158-26 680 67 81 100-906-141 145zm-27 698-7 181 72-103-65-78zm-18 165 7-179-67-80 60 259zm7-197 25-653-184 190 86 374 73 89zm-206 365v3h-1v2h-1l-184 195 111 205 81 7 95-270-105-176 4 34zm-12-1-6-57-131-218-382-164 339 629 180-190zm-9-86-16-141-93-40 109 181zm-52-598 48 449 217 93-70-305-195-237zm49 463 17 160 114 189 89-255-220-94zm-49-482 189 229-79-343-110 114zm-964 137 176 39-129-243-47 204zm474 116-275-60 82 153 193-93zm-9-533 33 527 380 163-413-690zm11 546-190 91 61 115 129-206zm-1012 50-16 264 48-200-32-64zm-31 309 20-331-119-240 20 408 79 163zm21-355 5-84-107-122 102 206zm172 373-122-246-56 233 178 13zm4 13-101-8 103 15-2-7zm-267-33 42 4-44-42 2 38zm272 53-191-28 13 27-1-1 199 430 31 6 12-145c0-2 2-4 4-5l-67-284zm-210-31-57-8 81 159-17-145-7-6zm-7-23-62-128 4 73 58 55zm-75-157-91-187 20 206 75 71-4-90zm1011 19 316 595 167-177-345-639-138 221zm284 561-292-549-77 125 369 424zm-376-414-118 189 500 250-382-439zm32 278-146-73 2 6 144 67zm675 213 44 81 26-75-70-6zm32 85-47-87-241-21 288 108zm-53-99-105-195-161 171 266 24zm-289-17-503-233 118 339c2-1 5 0 6 2l245 285 110 58 27-447-6-1 3-3zm-916 44-46-10-5 56 79 72-28-118zm-58-12-23-5 19 42 4-37zm-38-9-53-11-4-4-121-237 21 177 180 126-23-51zm-47-22 40 8-192-414 17 141 135 265zm98 21 42 9-32-134-10 125zm222 513-1-1-68-48c-3-2-3-6-1-9s5-3 8-1l13 9-229-235c-3-2-3-6 0-8 2-3 6-3 8 0l276 282 43 18-83-103c-2-3-2-7 1-9s6-1 8 1l97 121 117 49c3 1 5 5 3 8-1 3-4 4-8 3l-96-41 109 137 1 1 103-22c3-1 6 1 7 4 1 4-1 7-5 8l-92 20 289 228c3 2 3 6 1 9-2 2-6 3-8 1l-263-208 53 68 167 167 186 147c3 2 3 6 1 8-2 3-6 3-8 1l-185-145-2-1-1-1-167-168-1-1-82-104v-1l-2-2-1-1-124-154-64-27zm580-16 123 6-105-122-152-81 134 197zm-216-388 67 170 145 77-212-247zm722-1-317-117 243 273 74-156zm-332-117-27 445 163 87 117-247-253-285zm-28 458-4 54v2l697 234-404-453-117 248-3 5-5-3-164-87zm-15 45 3-51-87-47 84 98zm384-378-74 158 411 462-10-214-327-406zm531 6-106-2 622 510 109-96-220-109v-1h-1l-404-302zm-223-5-296-6 314 391-18-385zm-301-18 301 6-3-66-268-23-30 83zm313 6 70 2-73-60 3 58zm90 2 113 3-9-21-179-43 75 61zm-369-103 258 23-168-281-90 258zm195-536 241 514 393-107 318-221-952-186zm246 525 40 86 40 9 279-193-359 98zm47 100 6 14 13-9-19-5zm-22-18-37-79-135 37 172 42zm-42-90-239-509-89 255 176 296 152-42zm-151-642-78 113 959 187-32-109-849-191zm19-9 826 187-127-429-699 242zm839 190 102 23 176-233-193-256c-2-3-2-7 1-9s7-1 9 1l190 254 191-253 60-193-664 230 128 436zm115 26 258 58 25-134-113-150-170 226zm270 61 139 31-116-154-23 123zm128 41-130-29-13 68 143-39zm-142-32-264-60-67 90 107 102 210-57 14-75zm-277-63-90-20 30 101 60-81zm-237-477-121-409-249 205c-2 2-6 1-8-1-2-3-2-7 1-9l253-208-38-127-540 793 702-244zm-152-557 38 127 241-199-112-48-164 116-3 4zm41 139 122 414 664-230-536-389-250 205zm412 1100 127 119 46-43 24-130-197 54zm136 128 23 22 10-54-33 32zm34 32 250 235c3 3 3 7 1 9-3 2-6 3-9 0l-245-230-66 361 484-33-207-602-194 182-14 78zm-13 4-30-28-284 268c-3 2-7 2-9 0-2-3-2-6 0-9l284-267-132-125-161 44-134 391 398 96 68-370zm-181-170-100-94-46 133 146-39zm212 68 170-160-148 40-22 120zm-326-157-286 198 240-66 46-132zm-316 219-299 206 432 105 132-384-265 73zm-312 216-21 14 393 293 69-201-441-106zm453 109-71 205 219 110 246-219-394-96zm160 320 329 165 179-109-262-275-246 219zm304 166-314-157-110 98 85 64 339-5zm-323 17 280 211 60-216-340 5zm-35-11-74-56-46 57 120-1zm314-394 259 272 272-165-49-140-482 33zm423 462-54-56-235-5 289 61zm-65-69-101-106-167 101 268 5zm-2359 254c-3-1-5-4-5-7 1-4 4-6 7-5l194 37-331-254c-3-2-3-6-1-9s5-3 8-1l342 262v-86l-254-143c-3-2-4-6-2-9 1-3 5-4 8-2l248 140v-69c0-3 2-6 6-6 3 0 6 3 6 6v76l161 91 609 104 1-1c3-2 7-1 8 2l85 140 25-21c3-2 7-2 9 1 2 2 2 6-1 8l-27 23 100 167 61 14 406-130-50-38-1-1-191-168c-3-2-3-6-1-8 2-3 6-3 9-1l190 167 123 7 257-144-19-54c-1-3 1-6 4-7s7 0 8 3l17 52 35-19c3-1 6 0 8 3 2 2 1 6-2 8l-37 20 54 157 586-134c3 0 6 2 7 5s-1 6-5 7l-254 58 1 1c1 3 0 7-2 8l-58 35 84-6c3 0 6 2 7 5 0 4-3 7-6 7l-108 8-94 57 201 63h1l138 33 103-5 42-298c1-3 4-6 7-5 3 0 6 3 5 7l-41 287 239-192 199-195c3-2 6-2 9 0 2 3 2 6 0 9l-195 190 49 41 313-157 1-1 9-4v2l160-31 10-8c2-2 5-2 7 0l291-77-44-175c0-3 2-7 5-7 3-1 6 1 7 4l43 171 33-30v-124c0-3 2-6 6-6 3 0 6 3 6 6v113l280-253c2-2 6-2 8 1 2 2 2 6 0 8l-288 260v19l44-10 303-231c3-2 7-1 9 1 2 3 1 7-2 9l-282 215 127-29c3 0 6 2 7 5s-1 7-5 7l-152 34-30 23 191-38c3-1 6 1 7 4 1 4-1 7-5 7l-214 43-68 125 5-3-13 18-2 4-21 37 4-16-33 43-1 2h-1l-226 125 70-14 232-125c3-1 7 0 8 3 2 3 1 6-2 8l-233 125v1h-1l-108 21-215 118 2 2-10 2-63 18-4 2-7 1h-1l-2 1-359 59h-1l-23 74-3 4h-1l-1 1-404 56 5 4-22-1h-1l-163-8h-1l-289 20h-1l-156-12h-2l-132-31h-1l-245-76h-2l-160 5h-1l-1-1-2-1h-1l-74-86-193-96-67 66c-2 3-6 3-8 0-3-2-3-6 0-8l63-63-187-93-168 19-3-1-204-77h-1v-1l-66-45c-3-1-4-5-2-8s6-3 9-2l65 45 202 77 139-16-321-96c0 2-1 3-3 4-3 2-6 1-8-2l-4-7-23-7c-3-1-5-4-4-7s4-5 7-4l10 3-58-96-1-1-1-3-53-87-216-41zm244 46-12-2 45 73 59-54-92-17zm131-18-149-84v86l121 23 28-25zm10 7-23 21 53 9-30-30zm-34 31-68 62 63 105 338 101-254-254-79-14zm52-30 33 33 129 24h2l1 1 230 178 187-136-582-100zm48 48 255 255 82-60-226-174-111-21zm636 201-127 106 220 50-93-156zm-140 102 133-113-80-134-192 139 139 108zm-18 1-131-101-78 56 209 45zm-396-17c-2-1-3-2-4-5l4 5zm367 65 35-34-183-39 148 73zm50-32-38 38 183 92c2-1 5 0 6 1l30-17-181-114zm193 107 59-34-13-22-210-47 164 103zm66-24-55 32 108 68 17-20-70-80zm-66 39-34 19 69 77 129-3-46-19h-1l-117-74zm130 66 43 17-29-32-14 15zm88-98-12 13 288 69-276-82zm-21 23-45 50 45 51 438 66 69-45-507-122zm-53 41 40-44-100-24 60 68zm49-54 10-11-71-4 61 15zm280-72-207 49 265 1-58-50zm-257 49 257-62 149-38-90-44-394 126 78 18zm-146-9 22-7-30-6 8 13zm45-1-14 4 44 2-30-6zm378-179 40 31 47-26-87-5zm80 433 47-31-347-52 170 52 130 31zm147-82-67 44 114 17 89-24-136-37zm-82 54-46 30 139 10 190-13-154-8h-1l-128-19zm-380-204 436 130-149-129-287-1zm653-188-51-151-239 134 290 17zm-309-6-56 31 94 47 211-54-11 1 38-8-276-17zm318 19-263 67 195 97 201-122-133-42zm-281 72-152 38 62 54h278l-188-92zm210 104h-286l157 136 137-41-186-57c-3-1-5-4-4-7s4-5 7-4l204 62 22-7-51-82zm27-1 3 2h-16l49 78 170-52c4-1 7 1 8 4 1 4-1 7-4 8l-168 50 9 15 110 33 178-156-339 18zm190-141 84-51-198 15 114 36zm107-65 69-42-242 55 173-13zm-105 78-192 116 354-18 40-35-202-63zm396 97 70 17-8-20-62 3zm56 26-99-23-186 9-172 150 457-136zm-141-33-95-23-34 29 129-6zm174 41-9-3-450 135 524-40-65-92zm-616 117 11 18 49 1-60-19zm19 31 5 8 31-8h-36zm12 19 25 41 28 13 98-21-82-52-69 19zm8 36-21-33-52 14 73 19zm-27-44-8-11-176-1 115 31 69-19zm-15-24-15-23-41-13-118 36h174zm-24-39-4-5-7 2 11 3zm78 123h-1l-107-29-74 20 182 9zm80 4 94 5-29-19-65 14zm-11-77 79 50 404-86-483 36zm93 60 36 22 318-98-354 76zm391-244 90 127 234-144-324 17zm59 208 20-63-360 111 340-48zm181-408-203 164 249-125-46-39zm347 156 5-58-169 41 25 25 139-8zm6-71 6-87-161 125 155-38zm7-103 7-91-299 150 104 87 188-146zm20-96-7 86 146-113-139 27zm-8 102-7 94 254-63 195-100 28-123-296 58-174 134zm-8 107-4 57 212-108-208 51zm-308-48-278 140 328-18 55-34-105-88zm163 128 19 20 72-24-91 4zm29 30 20 20 56-46-76 26zm28 29 13 13 185-102-119 23-79 66zm1 17-10-9-22 18 32-9zm-18-18-24-24-316 109 294-49 3-1 43-35zm-33-34-23-23-94 5-211 131 328-113zm-34-34-21-22-40 25 61-3zm696-378-33 6-20 91 53-97zm-220 30 177-34 3-14-180 48zm190-37 35-7v-14l-32 7-3 14zm-465 368 115-22 219-121-104 26-230 117zm406-207-129 66 97-24 32-42zm106-185v11l21-15-21 4zm-12-9v-11l-16 14 16-3zm452-284c-3-1-5-4-4-7 0-3 4-5 7-5l103 24 75-75-24-102c-1-3 1-7 5-7 3-1 6 1 7 4l21 93 139-193c1-2 5-3 8-1l2 4 77-98c2-3 6-3 9-1 2 2 3 6 1 8l-196 251 137-118 81-81c3-2 7-2 9 1 2 2 2 6 0 8l-82 81-183 157-7 11-1-3-64 64 3 1-11 7-158 184-78 78-2 3-202 152c-3 2-6 1-8-1-2-3-2-7 1-9l199-150 1-1 80-81 118-136-251 196c-2 2-6 1-8-1-2-3-2-7 1-9l97-76-4-3c-2-2-1-6 2-8l194-139-94-22zm-217-289 7 12 21-31-28 19zm110-89-13-8-22 32 35-24zm-63 43 29-43-43 23-24 46 38-26zm-33-9-286 153 260-104 26-49zm-382 190 392-210 207-389-191-90-340 154-157 347 89 188zm411-220 47-25 102-255-149 280zm-1202-68 3-13 2 4 42-98-154 114 107-7zm20 22 164 339 127-158-291-181zm1374-344 61-195-242 109 181 86zm59-208-151-243-317 256 214 102 254-115zm-157-253-188-301-122 226-6 330 316-255zm-172-298 181 290 158-127-339-163zm-151 247-142 263 137 47 5-310zm-147 273-90 167 223-120-133-47zm-101 186-125 232 250-113 111-245-236 126zm-138 230 119-219-165 88 46 131zm129-239 98-181-428-150 151 428 179-97zm104-191 154-286 3-172-611 262 14 42 440 154zm166-309 108-199-105 45-3 154zm-144 644-248 113 101 213 147-326zm24-24 319-144-209-99-110 243zm-291 616 113-252-103-219-256 319 246 152zm120-238-107 237 192-58-85-179zm-1046 60 204-152-250 18 46 134zm222-165 172-128-650-449 206 596 272-19zm-474-589 658 454 263-611-921 157zm620 586 302 187 254-317-326 7-230 123zm1-14 202-109-157 3-45 106zm226-121 282-152-155-439-41-14-262 608 176-3zm286-141-260 140 308-6-48-134zm-164-465-13-36-13-19-6 44 32 11zm0-49 612-263-456-658-156 921zm-976 193 915-156-722-498-193 654zm-76-566-178 236 108 144 70-380zm78-220-62 198-76 415 125 167 193-656-180-124zm184 112 55-187-229 67 174 120zm59-201 72-245-580-413-169 120 433 610 244-72zm81-233-67 229 187-55-120-174zm-71 243-59 198 736 508 7-55-486-710-198 59zm67-271 231-663-414-122-205 247 388 538zm12 18 124 180 597-176 7-58-98-74-630 128zm131 191 477 695 111-869-588 174zm487 710 13 18 156-922-55 17-114 887zm115-901 48-14-42-31-6 45zm-2466 786 528-775-6-16-422-115-100 906zm537-787h-1 1zm7-11 2-3c1-2 4-3 6-2l93-140-187-81 74 223 12 3zm308-69 519 377-414-584-166 117 61 90zm-5-362-119 180 56 82 166-117-103-145zm-126 191-58 89 59 26 52-37-53-78zm-65 100-77 117 132-94-55-23zm-5-16 63-95-67-98-201 87 7 21 198 85zm70-106 109-166-171 75 62 91zm-608 145 405 110-75-225-32-14-298 129zm313-136 12 5-3-9-9 4zm309 134 96 41-50-74-46 33zm-293-154 198-86-443-655 245 741zm210-91 183-79-503-415c-3-2-3-6-1-9 2-2 6-3 8 0l511 421 1 1 109 152 165-117-180-128-2-2-420-511c-2-2-2-6 0-8 3-2 7-2 9 1l414 503 80-184-674-456-244-85 75 224 469 692zm-645-951 151 222-64-192-87-30zm67-69 15 44 46-3-61-41zm18 56 11 33 210 73-162-110-59 4zm-3 28-9-27-58 4 67 23zm-3-90 68 46 219-15-287-31zm85 57 187 127 757 262 16-36-134-310-555-61-271 18zm226 153 634 429 79-181-713-248zm645 436 98 67 95-62-76-177-37-12-80 184zm109 74 161 109-72-167-89 58zm164 126-175-119-181 120 177 126 179-127zm-186-126-92-63-75 173 167-110zm144-608-129 298 24 55 221 77-116-430zm-136 313-11 25 26 9-15-34zm0-30 128-294h-7l8-8-98-103-64 5-96 100 129 300zm37 85 71 164 139-91-210-73zm76 175 77 179 198-239-126-37-149 97zm-1173-668 365 40 450-30-381-368-434 358zm434 47 473 52-81-78-392 26zm635 946 551 392-373-518-178 126zm781-33c-3-2-3-6-1-9s5-3 8-1l256 193 232-175-23-103-436-128-231 666 618-125-160-120-256 193c-2 2-6 1-8-2-2-2-2-6 1-8l253-191-253-190zm273 190 166 124 109-22 4-33-54-238-225 169zm179 134 84 63 10-82-94 19zm95 72 44 33-29-127-3 1-12 93zm47-7v-94l-20 4 20 90zm0-106v-253l-30 228 7 30 23-5zm12-331v329l177-36 50-52-227-241zm0 341 1 136 161-169-162 33zm-15-342-82 62 48 211 34-271v-2zm-85 49 80-61-101-30 21 91zm298 241 62-13-25-26-37 39zm76-16 365-74-96-397-539 185 231 245 276-287c2-2 6-2 9 0 2 2 2 6 0 8l-277 288 31 32zm366-61-357 72 226 239c2 2 2 6-1 8-2 3-6 3-8 0l-230-244-87 17-178 185 602 208 33-485zm-630 291 449 649 128-172 19-271-596-206zm590 459 151-203-133-46-18 249zm-14 41-117 156 109-47 8-109zm66-786-33 484 139 48 146-292-252-240zm394 359-7-362-120 241 127 121zm-7-408 5-228-73-92-74 84 142 236zm6-247 3-137-63 48-6 7 66 82zm15-147-4 161 25 31 46-244-67 52zm-4 180-4 162 26-134-22-28zm32 40-36 191 241 68-205-259zm-433 210 255 242 128-256-150-249-233 263zm-5-13 232-261-122-203-205 71 95 393zm240-270 74-83-574-721 50 207 14-21 5-7 5 7 301 410 3 4 122 204zm-881 52 531-183-105-437-426 620zm543-187 201-69-294-400-15 23 108 446zm-1342-352c2-3 6-3 8-1 3 2 3 6 1 8l-206 249 410 120 242-698-788 536-2 1 126 37 209-252zm224 380 429 126-187-821-242 695zm442 130 104 30-166-876h-129l-1 1 192 845zm147-14 408-593-55-226-353 819zm352-847 1-3 5 6 465 21-399-320-340 117 268 179zm-383 889 376-874h-542l166 874zm-1122-334 787-535-908 97 119 441 2-3zm-138-462-15-90-66 4 81 86zm-17-102-19-110-83 87 27 28 75-5zm-22-125-34-200-410-95-5 9 361 379 88-93zm-36-213-92-534-63 15-247 426 402 93zm-80-535 93 538 183 42 112-118-264-453-124-9zm95 551 32 186 139-146-171-40zm34 201 21 120 141-9 222-215-233-54-151 158zm23 132 17 97 108-105-125 8zm-753-369 3-3 4 4 392 380 190-13 31-33-364-383-3-3 2-4 6-10-499-115-436 252 674-72zm411 392 81 78 85-89-166 11zm199-1061-105 61 46 41 59-102zm-116 67-289 167 313-74 27-47-51-46zm-326 188-391 225 490 113 242-419-341 81zm-408 221 367-211-631 149-1 1 265 61zm404-233 320-185-150-133-218-45-600 517 648-154zm331-191 121-70-259-52 138 122zm395 686 234 54 125-121 4-4 2 2 461 49-58-135-703-404-216-15 262 450 3 4-3 3-111 117zm248 57 349 81-234-193-115 112zm376 87 302 70-95-221-449-48 242 199zm271 75-250-58 84 69 166-11zm-277-64-380-88-217 210 690-46-93-76zm-879 120-22 23 41-3-19-20zm88-863-44-76-66 69 110 7zm-51-87-39-68-66 115 33 29 72-76zm-22-63 31 54 22-23-53-31zm38 65 50 86 199 14-223-128-26 28zm-52-89h2-2zm-76 145-20 35 47-11-27-24zm1268 846h-1l-100 72h114l-13-72zm-24 1-166 11 71 58 95-69zm-183 12-718 48-115 112 908-97-75-63zm218-19 15 78h534l-265-177-284 99zm1484 3026h10l3-15-13 15zm22 0h16l1-1 6-34-16 4-7 31zm7 13h-9l-4 16 13-16zm4-57 14-4 27-152-41 156zm27-7 125-28 99-196 63-253-94 7-143 186-50 284zm87-7-89 20-6 32 95-52zm60-37 40-30 24-98-64 128zm57-798 39 46 124-249-163 203zm47 56 87 102 42-189 10-191-139 278zm82 115-88-104-150 300 92-7 146-189zm15-1 21 20 3-58-24 38zm32 32 22 21 97-296-114 184-5 91zm32 31 43 43 73-396-2 3-114 350zm37 55-42-42-29 91 71-49zm-51-52-19-18-4 89 23-71zm-30-30-24-23-41 168 58-4 7-141zm-278 174-34 150 121-157-87 7zm113-21 87-7 38-155-125 162zm153 0-57 5-51 207 108-212zm88-53-73 50-135 267-27 108 228-407 7-18zm-40-563 5-1-2 4 18 5-17-73-4 65zm23 21-23-6-8 141 31-135zm16-5 86 73 7-21 37-498-130 446zm82 86-87-75-46 201-6 114 128-207 11-33zm-152 262 4-67-22 97 18-30zm5-605 22 92 7-125-29 33zm32 134 25 105 135-459-150 172-10 182zm-148-542-17 278 62-102-45-176zm54 162 112-185-103-209-60 193 51 201zm111-161-107 177 55 216 33-38 19-355zm13-27 83 50 6-21-62-205c-1-3 1-7 4-8s7 1 8 5l56 187 42-135-1-2-136-157v286zm93 56 5 3-3-9-2 6zm21 12 24 15v-172l-36 118 12 39zm36 22 12 7 18-67-30-110v170zm23 14 33 19-20-70-13 51zm37 36-41-24-19 72 80 122-6-137-12-30-2-3zm-51-31-9-5v39l9-34zm-21-12-19-12 19 63v-51zm-35-21-13-8-52 169c-1 4-4 5-8 5-3-1-5-5-4-8l53-172-79-48-19 353 156-180-34-111zm118 57v1l1 2-10-180-20 74 29 103zm-72-300 1-3v23l41-65-66-440-14-12 38 497zm-507 209 169-59-39-171-130 230zm235-263-40-82-30 53 15 204 55-175zm-33-96 38 79 43-138 62-259-17-76-126 394zm46 95 98 200v-278l-54-63-44 141zm-94-9-15 27 26 111-11-138zm-19 9 17-31-9-121-58-66 50 218zm28-50 25-44-31-40 6 84zm133-104 50 57v-265l-50 208zm62 71 128 148-128-434v286zm-28-452 7-22-14-9 7 31zm10 9-5 14 7 30-2-44zm6-50 28-53-71-112 43 165zm34-65 17-32-92-188-27 26 14 55 88 139zm26-22-18 33 59 93-21-108-20-18zm-25 46-29 56 79 69 19-17-69-108zm28-60 13 12-49-262-59 57 95 193zm78 86-46-41 23 122 20 48 3-129zm57 820 24-89-17-111-41 67v10l34 123zm44 325-82-125-36 488 118-363zM4662 2220l275-96-147-98-222-24 94 218zm290-101 338-118-299-161-189 179 150 100zm364-115 407 326 221 10-239-708-55 3 87 163 3 6-6 3-418 197zm-1839-748 62 36 58-61-120 25zm339 195 667 384-150-348-517-36zm684 394 291 167 189-178-630-339 150 350zm264 166-256-147 55 125 201 22zm225-185 177-167-594-316-223 138 640 345zm188-160-177 166 305 164 418-197-86-163-451 27 10 19-19-16zm3-15 450-27-57-108-287-246-362-132 256 513zm464-28 50-3-96-82 46 85zm-87-137-78-146-161-58 239 204zm-57-132 82 154 121 104-7-123-196-135zm-343 279-248-497-188 116 436 381zm-24-6-423-368-126 77 549 291zm-781-162 208-128-117-62-91 190zm-13-2 94-194-154-81 60 275zm-116-473-200 48 239 127-39-175zm-223 45v-2 2zm-549 205 3-7-148-334-245 186 111 99 279 56zm-487-99 184 38-98-87-86 49zm3685 1643 11-10-15-60 4 70zm21-19 44-38-67-60 23 98zm75-50-13 11 15 14-2-25zm-22 20-49 43 110 453-36-474-25-22zm-60 52-13 12 93 313-80-325zm103-31-7-16 1 11 6 5zm85 268-53-171 53 351 30-48-30-132zm-553-586 134 81 110-133-106-138-138 190zm144 88 155 93-51-220-104 127zm169 102 15 9-53-202-10-16 48 209zm-58-254 3-3-13-52 10 55zm13-13 25-24-67-135 42 159zm-6 23-3 3 6 9-3-12zm-275-661-63 67 15 80 254 254-101-339-105-62zm-73 78-21 23 31 31-10-54zm-29 13 26-28-22-120h-87l83 148zm37-39 54-59-73-44 19 103zm-29 67 101 583 136-187-178-232-1-1v-1l-23-128-35-34zm245 386 59-82-254-255 20 109 175 228zm64-68-57 78 96 124-39-202zm15-185-107-169 92 309 15-140zm-382-574c2 2 2 6-1 8-2 2-6 2-8-1l-225-289-23 93c0 3-4 5-7 5-3-1-5-4-4-8l24-101-139-111 39 96c2 3 0 6-3 8-3 1-7-1-8-4l-48-116-122-97c-2-3-3-6-1-9s6-3 9-1l105 84-19-45c-1-3 0-6 3-8h1l-52-58c-3-3-2-7 0-9 3-2 6-2 9 1l230 254v-1l8 10 232 299zm-393-428 101 81-124-138 23 57zM3115 428h1l74-36-123 21 48 15zm14 8 188 105 127-188-31 13 22-16-203 35-103 51zm330-105 1-2 2 2 22-16-49-30-24 11 48 35zm-417 74 186-32 92-45-317-39-315 3 354 113zm228-39 149-26-78-9-71 35zm232-26 35 7-14-9-21 2zm63 24-63-11 223 107-160-96zm-62-36h3l-1-1-2 1zm22-3 208-25-144-8-70 29 6 4zm277-34 347-43 9-14-375-24-169 71 188 10zm363-45 64-8-57-3-7 11zm129-3-138 17-31 48 397 22-174-84-54-3zm-153 19-270 33 215 11 22 1-2-8 7 6 28-43zm192-36 14 1-140-47-17 26 143 20zm65 6 175 15h2l2 2 19 8-21-17-348-66 171 58zm199 38 40 43 49 17-58-48-31-12zm57 61 6 6 13 1-19-7zm18 19 50 53-10-51-40-2zm36 56-54-57-73-4 127 61zm-66-70-12-13-215-73-35-2 173 83 89 5zm-30-32-41-44-110-7 151 51zm54-7 50 41 107 21-157-62zm59 60 13 62 142 18-155-80zm15 78 24 191 285 58 148-11-7-29-450-209zm11 189-11-89 3 87 8 2zm257 64 204 51-12-54-151 11h-1l-40-8zm-519-195 242 124-7-184-235 60zm697 136-9-41-265-135-142-18 416 194zm2-47 12 53 52 24-127-180-178-22 238 121 2 3 1 1zm16 68 5 23 37-3-42-20zm8 34 13 58 122 25-80-87-55 4zm-741-199 192-49-260 16 66 33h2zm-511-5 181 65-11-76-170 11zm298-31-135-120 17 127 118-7zm-105-109 122 108 83-5-205-103zm229 101 329-20-161-78-407-22 239 120zm-117-212-82-12-3 6 85 6zm-95-14-301-41-61 26 358 22 4-7zm-248-46 255 35 18-28-82-24-191 17zm-415 144 54-22-21-2-33 24zm80-33 169-71-95-6-105 75 31 2zm194-82 69-29-304-82-15 27 173 45c3 1 5 4 4 8l-2 3-30 21 105 7zm-286 109 26-19-62-3 36 22zm42-30 105-76-153-9-44 80 92 5zm120-87 32-22-164-43-30 55 162 10zm-55-142-41 28 456 53-214-52-201-29zm-60 25 40-26-60-4-41 12 61 18zm-110 199 44-81-231-15 133 96h54zm50-93 31-57-50-14-213 56 232 15zm37-68 11-20-44 11 33 9zm-120 192-5 2 20 8-15-10zm-19 9-19 9 57 7-38-16zm-41 6 26-12-49-21-223 3 246 30zm40-19 9-5-14-9h-28l33 14zm21-11 9-4h-15l6 4zm-761-57 47 6 12-14-59 8zm62 8 64 8 210-62-258 35-16 19zm94 12 209 26 284-4-234-98-259 76zm119 27-148-19-71 21 219-2zm-178-23-45-5-22 25 67-20zm368-88-27 4 241 102h40l-135-98-119-8zm107-5 8-2 220-58-61-16-257 70 90 6zm252-66 59-16-62-19-60 18 63 17zm591 49-433-50 248 67 185-17zm-1164-3 193 12 217-59-410 47zm2026 299 167 20-197-77-134-26 164 83zM3023 73l-127 39 222-47 192-36-287 44zm-175 61 528-60 64-19-77-23-243 45-272 57zm272-57zm297-42 43 14 28-9-71-5zm-54-16h1-1z" style="fill:#764bba;fill-rule:nonzero"/>
  <path d="m3550 6879-3-1c-5-2-9-6-9-11 0-15 19-15 28-16 8 0 24-1 31 1 5 2 8 6 9 11 15-1 34-1 42 2 5 2 9 6 9 12 0 11-11 14-19 15l-24 3c-12 1-44 3-55-2-5-2-9-6-9-11v-3zm2606-1379c1 9-7 21-12 27-6 9-20 26-33 19-16-8-2-29 5-38l8-10c-1-3 0-6 1-9-7 7-16 14-25 9-16-8-2-29 5-38s21-26 34-20c8 5 8 13 5 21 7-7 16-14 25-9 16 8 2 29-5 38-2 3-4 7-8 10zm-4-223c-5 2-9 1-14-2-2-1-5-3-6-6-10-19 13-56 24-71 10-13 35-43 54-32l6 6c5 9 3 21-2 34 5-2 9-1 14 2l6 6c10 19-13 56-24 71-10 13-35 43-54 32l-6-6c-5-9-3-21 2-34zm-176-119 2-2c9-10 25-22 38-14 3 2 5 4 6 7 8 14-4 35-14 45-8 9-23 21-36 15l-2 2c-8 10-25 22-38 13l-6-6c-7-14 5-35 14-46 9-9 23-20 36-14zm649-1006c-3 6-6 11-10 15-5 6-13 10-21 8-17-4-19-27-18-41 1-22 9-58 25-74 5-6 13-10 21-8 15 4 18 23 18 37 3-2 7-3 11-2 13 3 14 18 13 28-1 12-5 32-12 41-4 5-9 8-15 7-6-2-10-6-12-11zm239-547-1-1c-10-1-11-10-11-18v-16c0-11 0-37 18-33 6 1 9 6 10 12h4c11 2 12 16 12 24v32c0 10-1 21-3 31-1 9-4 25-18 22-11-3-11-16-12-25l1-28zm-437 231 2-3c5-5 11-8 17-7 13 2 18 15 19 26 2 15-2 37-12 49-4 4-10 7-17 6-13-1-17-15-19-26v-16l-4 5c-5 5-12 7-18 6-12-2-18-14-19-25-2-16 2-37 14-48 5-4 11-7 18-6 12 3 17 15 19 26v13zm-563 2027c0 7-4 14-8 20-7 9-15 18-24 26-8 8-17 16-27 23-8 6-19 13-28 7-12-8-4-22 2-30 6-9 15-18 23-26 9-9 18-17 28-24 5-4 13-9 21-9 0-7 4-14 7-19 7-10 15-19 23-27 8-9 17-18 27-25 7-5 19-13 28-7 12 7 5 21-1 30l-23 27c-8 8-17 17-27 24-5 4-13 10-21 10zm-366 261 9-8c9-7 29-19 38-6 10 12-8 27-17 34-7 5-18 12-28 12l-10 8c-9 6-28 18-37 6-7-8-2-17 5-24-6 1-12 1-17-4-11-13 8-29 17-36s29-21 39-9c8 9 0 20-8 28l9-1zm-896 570-3 1c-4 3-9 5-13 6-7 3-24 10-31 9-5-1-8-4-10-8-2-7 1-12 6-16l5-2c4-3 9-5 14-6 6-3 23-10 31-9l5 3 8-4 27-12c10-4 44-18 55-16 4 1 8 4 9 8 3 7-1 13-7 17l-8 5-26 11c-11 4-45 18-55 16l-7-3zm555-717c-9-15 8-34 19-43 13-9 37-20 49-5 12 14-2 32-14 42 9 16-8 34-20 42-12 9-36 19-48 4-10-13 2-30 14-40zm50 237c-15 7-31 9-39-1-9-10-3-23 4-33 8-10 20-20 31-27 14-10 54-35 70-17 5 6 5 13 2 20 15-6 30-8 38 2s1 23-6 32c-8 9-19 18-30 24-14 9-52 31-67 13-3-4-4-8-3-13zm-1120 428c-16-1-33-6-36-20l-1-7c3-24 44-35 63-38 18-2 56-4 62 18l1 8c-1 10-11 18-22 24 4 3 6 6 7 11 1 14-15 20-25 23-12 3-32 5-43-2-3-2-6-6-6-11v-6zm28-334c2-14 17-23 29-27 16-5 41-6 50 10l3 7c2 17-16 28-29 33-9 3-21 4-32 2-3 13-19 21-30 24-15 4-41 5-51-9-2-2-3-5-3-8-2-17 17-27 31-30 9-3 21-4 32-2zm-282 120c-13 1-28-3-34-14-2-3-2-6-2-8-1-17 16-26 29-30 15-3 40-3 48 13l2 8c1 8-3 14-9 19 14-1 31 1 38 12l3 9c1 17-18 25-32 27-14 3-39 3-48-11-2-2-3-5-3-8 0-7 3-13 8-17zm-364-176c10-3 21-3 30-1 13 2 29 10 31 26 0 5-1 9-4 13-10 16-35 20-52 16-13-2-29-10-30-26-1-4 0-8 2-12-11 4-23 4-33 2-14-2-31-10-32-26-1-5 1-10 4-14l5-6c-5-4-9-10-9-17-1-5 1-10 3-14 11-16 37-20 55-17l8 2c-4-6-5-15 0-23 10-18 35-23 53-19 19 4 38 22 27 43-10 17-35 22-53 18l-5-1 2 7c0 5-1 10-4 14l-5 7c5 4 9 9 9 17 0 4 0 8-2 11zm724-236h1c17-6 43-6 53 13 10 20-10 38-28 45-17 6-43 6-53-13l-2-8-3 1c-17 5-45 4-54-14-11-21 11-39 29-45 17-6 45-5 54 14 2 2 3 5 3 7zm-1141 449-5-1c-13-3-33-11-32-27l2-8c9-15 35-14 49-12 13 3 33 11 33 28l-1 3c13-1 25 0 34 2 20 4 55 18 54 43 0 4-1 8-3 11-14 25-60 24-83 19-20-4-55-18-54-43 0-4 1-8 3-11l3-4zm-58-588a57 57 0 0 1-22-44l2-16c13-39 62-48 97-38 29 8 60 32 60 65 0 5 0 11-2 16-12 37-58 47-93 39 5 7 6 15 3 24-9 21-37 24-56 19-19-4-43-21-34-44 7-17 28-22 45-21zm-1572 246c11 0 24 10 31 15 8 7 26 21 17 33-1 2-3 4-5 4-11 5-27-8-35-14l-6-4c-10 0-23-10-30-16-8-6-26-20-18-33l6-4c10-5 27 8 35 14l5 5zm5026-3026-2 1c-19 2-27-24-29-39s0-42 19-45c19-2 28 24 29 38 4-3 8-5 13-5 30-4 44 41 47 64 2 15 2 31-3 46-3 12-11 25-26 27-29 4-44-41-47-64l-1-23zm-191 361c5-8 12-14 22-14 21-1 29 24 29 41s-8 42-29 42c-5 0-9-2-13-4-5 10-12 18-23 18-8 0-14-4-18-9-5 5-11 9-19 9-11 1-19-7-24-17-4 3-9 5-15 5-22 1-31-24-31-42-1-19 9-43 30-43 11-1 19 5 24 14 4-4 9-6 16-7 8 0 15 4 19 11 4-6 10-9 18-9 5 0 10 2 14 5zm-359-423c8 35-2 83-41 94l-14 1c-34-1-57-33-65-64-8-34 2-83 41-93 5-2 9-2 14-2 18 0 33 10 45 23-2-17 4-39 22-45 22-7 39 17 43 36s1 48-21 55c-9 3-17 0-24-5zM944 5158l3-1c16-7 34 11 42 23 7 11 18 32 5 43-1 2-3 3-5 3-13 6-28-6-37-17l-4 2c-16 5-32-14-40-25-7-12-16-33-3-43l5-3c13-4 26 7 34 18zm-708-611c1-3 3-6 7-7 6-2 11 0 15 4 6 7 12 24 15 33 2 10 6 26-7 30-5 2-11 0-14-4l-2-2-7 4c-5 2-10 0-14-4-6-6-11-20-13-29s-6-24 7-28c4-1 9 0 13 3zm484-569c3-3 7-6 12-7l8-1c19 3 28 30 29 46 2 15-1 39-19 43l-8 1c-8-1-14-7-19-14-3 3-6 6-10 7h-8c-19-2-28-28-29-44-2-15 1-38 18-42l8-1c8 1 14 6 18 12zM41 3546c7 0 12 5 14 11 5 14 6 44 6 60l-1 23c-1 8-4 18-14 19-7 0-12-5-14-11-3-8-4-21-5-33h-1c-8 0-12-6-14-12-3-14-2-37-2-51v-8l1-23c1-8 3-18 14-19 8 0 12 6 13 12 2 9 3 21 3 32zm118-766 3 6c3 9 0 26-3 35-2 10-7 26-20 24-5-1-9-5-11-10-2-8 0-21 2-30l-4-7c-3-9 1-26 4-35l4-13c3-6 9-11 17-10 5 1 9 5 10 10 2 7 0 21-2 30zm62-210h-3c-6-2-9-7-10-12-2-10 3-27 7-36l6-11c4-5 10-9 17-7 6 2 9 6 10 12 1 10-4 26-8 35l-2 5h2c6 2 10 6 11 12 3 10-1 28-5 38l-5 12c-4 6-10 10-17 8-6-1-9-6-11-11-2-10 2-28 6-38l2-7zm439-130c4-2 9-3 14-2 4 2 8 5 10 9 9 13 3 37-4 51-6 11-17 26-32 21-5-1-8-4-11-8-5-9-4-22-1-34-5 2-10 3-16 2-4-2-7-5-10-9-7-14-1-36 6-49 6-10 18-24 32-20 5 2 8 5 10 9 5 8 4 20 2 30zm-225 607h8c5 0 10 3 15 6 20 18 18 62 11 85-5 19-18 48-41 47-5-1-11-3-15-7-20-18-18-61-11-85 1-4 2-10 5-15-4-1-7-2-9-5-11-10-10-34-7-47 3-12 11-29 26-28 4 0 8 2 11 5 10 10 10 31 7 44zm288-171c6-8 14-14 24-13 4 0 7 1 10 4 16 11 15 38 11 54-5 14-15 33-33 31-3 0-7-2-10-4l-4-3c-5 8-13 14-23 13-4 0-8-2-11-4-16-11-15-38-10-55 4-14 15-32 32-31l10 4 4 4zm392 102c-7-13-7-31-3-45 6-20 27-40 49-29 20 11 23 39 17 58-6 20-25 39-46 30 19 24 19 62 8 89-11 25-35 50-65 48-8 0-15-3-22-7-34-20-37-69-24-102 11-26 35-50 65-49 7 1 15 3 21 7zM713 1836c2-11 10-24 15-31 7-9 20-21 33-14 4 2 6 6 7 10 3 13-8 32-16 42-7 9-19 22-32 15-2 11-8 23-14 30-6 10-18 23-31 17-4-2-7-6-8-10-3-13 6-33 14-43 6-10 18-23 31-17l1 1zm-216-66v9c-2 9-9 22-15 30l-7 9c-4 5-11 8-18 4-5-3-7-9-6-15l6-14-1-9c2-9 10-22 15-30l7-9c5-5 11-8 18-4 6 3 7 9 6 15l-5 14zm163-84c3 2 5 5 5 8 2 12-8 29-15 38-6 9-18 21-30 14-4-2-7-6-7-11-2-11 8-28 15-37 5-8 15-17 25-16-3-2-4-5-5-9-2-12 8-29 15-38 6-8 19-20 30-13 4 2 7 6 7 10 3 12-7 29-14 38-6 7-16 17-26 16zm863-1079c0-3 1-5 3-7 6-8 18-16 27-21 8-4 21-10 28 0 3 5 2 12-2 17-5 7-18 16-27 20-5 3-13 7-19 6l-3 6c-6 8-18 17-26 22s-20 12-28 2c-4-6-3-12 1-17 5-8 17-17 25-22 6-3 14-8 21-6zm-326 329-7 6c-8 5-19 13-28 4-4-5-4-12-1-17 5-8 17-18 24-24 6-4 15-10 22-8l7-5c7-6 19-13 27-4 5 5 4 11 1 17-4 8-16 18-24 24-5 4-14 10-21 7zm-260 259c2 3 1 7 0 11-4 9-14 20-21 27-6 7-17 16-26 8-5-4-6-11-3-17 2-5 6-11 11-17v-11c4-9 14-20 21-27 6-7 17-16 27-8 5 5 5 11 3 17-2 5-7 11-12 17zm59 176 6 3c3 2 4 5 5 9 3 13-10 30-19 39-8 8-23 21-35 12l-6-9v-7c-2 0-4-1-5-3-3-2-5-5-6-8-3-14 10-31 19-40 8-8 23-20 35-11 3 2 5 5 6 8v7zm252 240 2-2c9-10 26-20 40-11 3 2 6 6 7 9 7 17-6 39-18 50-9 10-26 20-40 11-3-2-6-5-7-9-2-4-2-9-2-14l-5 5c-10 8-27 17-40 7-3-3-5-6-6-10-5-17 9-37 21-47 11-9 28-17 40-7 4 2 6 6 7 10l1 8zm1728-498c-2-5-4-11-4-16-5-40 37-69 72-74 30-5 68 3 82 33l5 16c4 40-38 68-73 74-21 3-46 0-64-12v3c3 24-22 39-42 42s-49-4-51-28c-3-24 22-39 42-42 10-2 23 0 33 4zm-1867-5c1-12 14-25 23-32 8-7 23-17 33-7 3 3 5 8 4 12-1 12-15 26-23 34-6 4-15 10-23 10-1 12-12 25-20 32s-21 16-32 8c-3-3-5-7-5-12 0-12 12-26 20-34 6-5 14-11 23-11zm155 155c1 15-14 31-24 39-10 7-26 15-37 5-3-3-5-6-5-10-2-15 13-31 24-39 7-5 17-11 25-10-1-14 13-31 22-39s25-17 37-8c3 3 5 6 5 10 3 14-11 32-21 41-7 5-17 12-26 11zm385-34c6 0 12 2 17 7 3 3 5 7 5 11 3 19-14 37-29 46-12 7-31 11-42-1-3-3-5-7-5-11-2-12 5-25 14-34-5-1-9-2-13-6-3-3-5-8-6-12-3-18 13-36 27-44 11-7 28-12 39-1 3 3 5 7 6 12 2 12-5 24-13 33zm-231-283c5 0 11 1 15 5 2 3 4 6 4 9 1 14-15 30-25 38-10 7-27 16-37 5-2-2-4-5-4-8-5 0-10-1-14-5l-4-9c-1-14 15-29 25-36 9-7 27-15 37-4l3 5zm376-491c10-5 23-10 28 2 4 9-2 15-8 20l-15 9c-6 4-20 12-29 10-10 5-23 10-29-1-4-9 3-16 9-20 4-4 9-7 14-9 7-4 21-13 30-11zm64 267 1 5c2 15-16 29-28 35-11 6-30 12-39 0-2-3-3-5-3-8-2-15 16-29 28-35 5-3 12-6 19-7l-2-5c-1-16 18-29 30-35 11-5 30-11 39 2l3 8c1 15-18 28-30 34-5 2-11 5-18 6zm620-89c15-3 35-2 41 13l2 6c1 18-23 31-38 35-14 4-38 5-45-12l-2-5 1-8c-13 2-28 1-35-12l-2-7c-1-18 21-31 35-35s35-5 42 10l2 7-1 8zm93-412c5-3 11-5 16-6 11-3 34-8 39 7 3 9-4 15-12 19l-17 7c-11 3-34 8-39-7v-4l-16 6c-10 3-32 8-37-7-3-9 4-15 11-19l17-7c11-3 33-8 37 7l1 4zm373 498 7 10 1 6c1 18-21 29-36 33-16 3-44 3-52-16l-1-6c-1-10 5-17 12-23-3-2-5-5-6-8l-1-6c-2-19 20-30 35-34 17-4 45-3 53 15l1 6c1 10-5 18-13 23zm3212 705 7 9c7 9 23 31 7 40-13 7-27-13-33-21-5-7-15-19-14-29l-7-9c-6-9-22-30-6-38 8-4 15 1 20 6l13 14c4 6 13 18 13 28zm-946-474c11 9 22 24 16 38l-3 4c-12 13-33 5-44-3-13-8-31-27-23-43-10-10-20-24-14-37 0-2 1-4 3-5 11-12 31-4 43 4s29 26 22 42zM4047 722c7 6 13 13 13 22v6c-5 18-30 21-45 20-17-2-44-12-44-32v-7l7-11c-7-5-12-11-12-20l1-6c4-18 28-22 44-20 17 1 42 11 43 31v6c-2 5-4 9-7 11zM2782 159l-3 1c-11 2-33 5-37-10-3-16 20-21 31-23 8-2 23-4 31 2l4-1c11-2 33-5 36 10 4 16-19 21-30 23-8 2-24 4-32-2zm266 277-9 1c-15 2-40-1-43-20-2-20 23-28 38-29 14-2 39 1 43 18a118 118 0 0 1 80-7c13 4 25 13 27 27s-8 26-19 33c-13 8-29 13-44 15-14 2-31 2-46-3-12-4-25-12-27-27v-8zm1555-182c3 3 3 8 1 12-6 14-27 8-38 4-5-2-11-4-16-8-7-4-14-11-10-20 2-4 4-6 8-7-3-4-5-8-3-13l2-3c8-11 28-3 38 1l16 7c6 4 12 11 9 19l-1 4-6 4zM3612 26l20 2c10 2 23 5 22 17-1 13-14 14-23 15l-31-1c-10 0-21-1-31-3-8-2-21-5-21-15l-20-2c-9-1-23-2-23-15 1-13 15-14 24-14l30-1 30 2c9 1 23 3 23 15zm-2596 991c11-13 25-27 37-38l13-13 5-3c5-4 12-5 17 0 6 6 4 14-1 19-11 14-25 28-38 39l-15 14c-11 13-25 27-37 38l-13 13-5 3c-5 4-12 5-17 0-6-7-3-14 1-19 11-14 25-28 38-40l15-13zm3631 3630c6-11 15-20 26-26 23-11 54-8 65 17s-7 52-29 63l-6 3c-4 9-9 18-17 24-19 18-49 19-64-5-14-22-6-52 13-68l12-8zm35 36c0-3-1-7-3-10-3-5-8-7-14-7l1 8c3 7 9 9 16 9zM1726 6370l-10-8 13 4c9-8 28 2 36 7l14 8 17 8 15 10c5 4 10 9 9 15l10 8-11-3 10 9-13-4c-9 8-27-2-36-7-4-2-9-5-13-9l-17-7-15-10c-5-4-10-10-10-16l-9-7 10 3v-1zm-627-1492c2-4 6-6 11-7 19-5 37 14 44 30 7 14 10 35-4 45l-7 4h-13c-3 4-7 7-13 9-20 5-38-16-46-31-7-15-10-36 4-47 3-2 5-4 8-4 6-2 11-1 16 1zM452 2125c10 4 11 15 11 24-2 22-16 55-28 75-6 10-18 28-33 22-9-4-11-15-10-24l3-17-2-1c-9-4-10-14-10-23 2-21 16-52 28-70 7-10 19-27 33-20 9 4 11 14 10 22l-2 12zm1274-400c-1 24-14 49-30 65-20 21-54 39-82 23-5-3-9-6-13-11a59 59 0 0 1-9-50c4-19 15-37 28-51 14-15 34-27 54-29 2-26 21-51 41-65 24-17 62-27 87-6 3 4 7 7 9 12l3 5c14 33-10 71-37 90a94 94 0 0 1-51 17zm4657 3-1-7 7 13 7 9c7 9 17 25 20 36 4 7 9 15 10 22 2 5 1 11-3 15l6 31-17-28-6-2 1 7-8-13-7-8c-7-10-17-26-20-37-4-7-8-15-10-22-1-5 0-11 4-15l-5-29 16 26 6 2zm-1432-601a27 27 0 0 1-2 25c-10 14-30 12-43 6-17-6-37-23-36-43 1-7 4-12 8-16-2-4-3-8-2-12 0-4 1-7 3-10 10-15 30-12 44-7 16 7 37 23 36 42-1 6-4 11-8 15zM2202 393c18-4 39-5 44 11 3 11-8 22-16 28-11 8-23 14-36 19-14 6-56 21-66 1-17 4-35 5-40-9-3-12 7-22 15-28 10-8 23-14 34-19 14-6 55-23 65-3zm2571 237c13 6 30 18 26 33l-1 5c-8 15-32 10-44 5-11-4-28-14-32-27-11-6-22-17-20-30 4-19 28-17 42-12 11 4 26 13 29 26zM3354 10l10-1 30 2c9 0 23 2 23 14l-1 5 6 2h-7c-4 7-14 7-21 8l-30 1c-10 0-31 0-41-2h-11l-30-1c-9-1-23-2-23-15l1-5-6-2h7c4-6 14-7 21-8l30-1c11 0 31 0 42 3zM39 3319c3 14 2 35 2 49l-1 8-1 23c-1 8-4 18-14 18-8 0-12-5-13-12-2-7-2-15-2-22v-29l-1-2c-3-13-1-37 0-50 0-10 1-36 17-35 6 0 11 5 12 11 2 11 2 29 1 41zm608 1404c12 4 22 21 26 32 5 12 10 35-5 43l-5 2c-14 2-26-15-32-28-12-4-21-18-26-28-5-12-9-31 4-40l7-2c13-2 24 10 31 21zm2530-1547c-2-18 2-36 12-52 27-45 86-56 130-31 45 25 63 80 36 125a95 95 0 0 1-95 42c3 21-1 43-11 62a87 87 0 0 1-124 33c-43-28-57-87-33-132 17-32 50-50 85-47zM3806 56c11 1 36 4 34 20-3 16-28 11-38 10-11-2-37-4-34-21 2-16 27-11 38-9zm-428 8c11 0 39-1 39 16s-28 16-39 16c-12 0-39 1-39-16s27-16 39-16zm165 0c11 0 37 0 37 16 0 17-26 16-37 16s-38 1-38-16c0-16 27-16 38-16zm160 83c12 0 38 3 37 20s-26 17-39 17c-12-1-37-4-36-21s26-17 38-16zm-483 0c12-1 37 0 38 17s-24 20-37 21c-12 0-37 0-38-17s24-21 37-21zm215 109c14 0 39 4 39 22s-25 22-39 22c-13 0-39-4-39-22s26-22 39-22zm436-114c16 2 64 10 62 33-3 24-52 20-68 18-15-2-64-9-61-33s52-19 67-18zm-819 0c16-2 65-4 67 20s-46 31-62 32c-16 2-65 5-67-20-2-24 46-31 62-32zm408 163c21 0 84 4 84 34 0 31-63 35-84 35s-83-4-83-35c0-30 62-34 83-34zM3118 56c11-1 36-4 37 12 2 17-24 18-35 19s-36 3-38-13c-1-16 25-17 36-18zm-98-5c11-1 35-4 37 12 1 16-23 18-34 19-10 1-35 4-36-12-2-16 22-17 33-19zm1100 233c18 4 65 19 61 44-4 27-54 20-72 16s-65-19-61-44c4-28 54-20 72-16zm88-129c12 2 35 8 32 24s-27 13-38 11c-12-2-35-8-32-24s27-13 38-11zm-91-26c11 2 31 8 28 23s-23 13-34 11-31-8-28-23 23-13 34-11zm220 86c7 1 13 4 18 7 7 4 14 11 11 20-5 16-28 10-39 7-6-2-13-4-18-8-7-4-13-11-11-20 5-15 28-10 39-6zm389 111c11 4 23 10 33 16 8 6 17 14 14 25l-1 3c-11 18-51 2-65-3-11-5-23-10-32-17-8-5-18-14-14-25l1-3c10-17 51-2 64 4zm18 76c12 5 25 11 36 19 9 6 20 17 15 29-9 22-55 5-70-1-12-5-25-11-36-19-8-6-19-16-15-28 9-22 55-6 70 0zm244-21 16 8c7 5 12 13 8 21-8 13-27 6-37 2l-16-8c-7-5-12-13-8-21 8-13 27-6 37-2zm148 78c5 2 11 5 15 9 6 5 11 14 5 22-8 11-27 3-36-2-5-3-11-6-15-10-6-5-11-14-6-22 9-11 28-2 37 3zm56 110c9 7 30 22 18 35-9 11-29 0-38-6-10-7-30-22-19-35 10-11 29 0 39 6zm88 91c10 6 32 22 20 36-10 11-31-1-41-7-9-7-32-23-20-36 10-12 31 1 41 7zm201 130 15 14c5 7 9 17 1 24-12 10-31-5-40-13l-14-14c-5-7-9-17-1-24 12-10 31 5 39 13zm-245-67c14 10 52 39 40 61-13 23-56-2-71-12-14-10-52-39-40-61 13-23 56 2 71 12zm-174-48c12 7 35 22 27 38-8 18-34 6-46 0-12-7-35-22-27-38 8-18 35-6 46 0zM3296 552c17 0 45 6 46 27s-27 29-44 30c-17 0-45-6-46-27s27-29 44-30zm-307-102c15-2 43 0 47 19 3 20-24 29-39 31s-42 0-46-19c-4-20 23-29 38-31zm-378-329 31-6c10-1 25-2 27 11 1 12-12 16-20 19l-31 10c-10 2-21 5-32 6-9 1-24 3-26-11-2-11 11-16 20-19l31-10zm874 492c18 0 43 9 44 30 0 21-25 30-42 30-18 1-43-8-44-29 0-21 25-31 42-31zm140-60c17 0 44 8 45 29 0 21-27 28-44 28-17-1-43-8-44-29-1-22 27-28 43-28zm212-59c16 1 40 10 41 29 0 21-26 27-42 25-16-1-40-10-40-29-1-22 25-27 41-25zm94-44c15 2 39 9 40 28l-1 5c-4 17-27 19-41 18-15-2-39-10-40-28v-5c5-17 27-19 42-18zm-46-62c14 1 39 8 40 26 1 21-27 24-41 22-15-1-40-8-41-26-1-20 27-23 42-22zm275 200c16 3 40 15 39 34l-2 6c-6 17-29 18-44 16-16-3-40-15-39-35l2-6c6-16 29-18 44-15zm316-121c14 4 38 14 36 31-2 20-29 19-44 16-14-3-37-13-35-31 2-20 29-19 43-16zm-26 169c9 3 18 7 25 13 8 5 14 14 12 23-4 22-34 18-48 13-9-3-18-7-26-13-7-5-13-14-11-23 4-21 34-18 48-13zm121 49c15 6 35 21 32 40l-2 7c-9 14-30 11-44 6-15-6-35-21-32-39 0-3 1-5 3-7 8-15 30-12 43-7zm979 266c6 4 12 10 16 16 5 7 8 17 1 24-12 11-33-3-43-11-5-4-11-10-15-16-6-7-9-17-1-24 12-11 33 3 42 11zm17 81c10 9 27 30 13 43-13 11-34-4-44-13-9-9-27-30-12-43 12-11 33 4 43 13zm50 101c6 5 11 12 14 19 3 9 4 19-4 25-14 11-34-6-43-16-5-5-10-12-14-19-3-9-4-19 4-25 14-11 34 6 43 16zm180-51c9 8 26 27 12 38-11 11-30-4-38-12-9-8-26-27-13-38 12-11 30 4 39 12zm89 117c8 9 23 30 8 41-13 9-31-8-39-17-8-10-23-31-8-42 13-9 31 8 39 18zm26-106c9 9 42 43 22 56-9 6-20-1-28-7l-26-23c-9-10-42-44-23-57 10-6 21 1 29 7 9 7 18 15 26 24zm99 85c8 8 25 27 10 37-12 7-26-10-33-17-7-8-25-27-9-36 12-8 25 9 32 16zm-73 119c7 9 23 32 7 42-14 9-31-9-39-19s-23-32-7-42c13-9 31 9 39 19zm22 94c8 10 24 32 9 43-14 9-32-9-40-19-9-9-24-32-9-43 14-9 32 9 40 19zm221-43c6 9 21 30 5 38-8 3-15-2-20-8l-10-13c-6-9-21-30-5-37 8-4 15 2 20 7l10 13zm-556-482c5 4 10 9 13 14 5 7 8 17 0 24-11 10-30-4-39-12l-13-15c-5-7-7-16 0-23 12-10 30 4 39 12zm94 33c4 4 9 8 12 13 6 6 9 16 1 23-11 9-27-5-36-12l-12-13c-5-7-8-16 0-23 11-9 27 5 35 12zm-50-68c8 8 28 25 13 36-11 8-27-6-35-13s-27-25-12-36c11-8 26 7 34 13zM2856 623c16-5 43-6 51 13 7 20-17 35-33 40s-43 6-51-13c-7-20 17-36 33-40zm-26 157c17-5 44-3 50 18 7 21-15 37-32 42-18 6-45 4-51-17s15-37 33-43zm-183-512c12-3 37-6 39 12 2 15-20 23-32 26s-37 6-39-12c-2-16 20-24 32-26zm-303-29c11-4 33-11 38 4 3 9-3 16-10 20l-17 7c-10 4-32 11-38-4-3-9 4-16 10-20 6-3 11-6 17-7zm-376 146c10-4 32-13 38 2 3 9-3 16-9 20-5 4-11 7-16 9-11 5-33 13-39-2-3-9 3-15 10-20l16-9zm478 85c12-4 36-8 42 8l2 4c1 17-22 28-35 31-13 4-36 8-43-7l-1-5c-2-16 22-27 35-31zm-289 156c13-4 34-7 42 8l2 6c1 17-20 30-34 34-13 5-34 8-42-7l-1-7c-2-17 20-29 33-34zm-510 30c10-6 27-13 36-1l2 7c1 13-16 25-26 31-10 5-27 13-36 1l-2-8c-1-13 16-25 26-30zm62-36c10-5 27-12 36-1l2 8c1 13-16 25-26 31-10 5-27 12-36 1l-2-8c-1-13 16-25 26-31zm41-99c9-5 30-17 38-2 4 8-1 16-7 21l-15 10c-10 6-31 17-38 2-4-8 1-15 7-20l15-11zm1736 203c19-1 44 9 45 31 0 22-25 32-43 32-19 0-44-9-45-31s25-32 43-32zm-203 80c19-1 47 7 48 30 0 22-27 32-45 33-19 1-47-7-48-30 0-23 27-33 45-33zm355 0c19 0 46 10 47 32 0 23-27 32-46 31-19 0-46-10-47-32 0-23 27-31 46-31zm244 103c19 2 44 15 44 38 1 24-25 33-45 31s-45-16-45-38c-1-24 25-33 46-31zm124 95c19 2 45 14 46 36 0 24-28 32-47 31-19-2-45-15-45-37-1-24 27-32 46-30zm204-156c18 4 41 19 39 39-2 23-29 28-47 24s-41-19-39-40c2-23 29-27 47-23zm307 38c17 5 40 20 38 40l-2 9c-8 16-30 17-45 12-18-5-40-20-39-40l3-9c8-16 30-16 45-12zm106-18c17 5 37 21 36 40-2 23-28 27-46 21-16-5-36-21-35-40 2-23 28-26 45-21zm-648 243c20 2 45 16 46 38 1 25-26 34-47 32-20-2-44-16-45-38-1-25 26-34 46-32zm-1061-108c19-2 47 4 50 28 3 22-22 36-42 39-19 3-47-4-50-27s22-37 42-40zm-512-114c16-6 45-8 52 12 8 21-16 37-33 42-16 6-44 8-52-12-7-20 16-37 33-42zm-68 55c16-8 43-11 52 9 8 20-10 39-26 47s-43 11-52-9c-9-19 10-39 26-47zm-341 130c16-7 44-11 52 9 5 9 2 20-4 28-5 8-14 14-22 18-16 8-44 11-53-8-4-10-1-20 5-28 5-8 13-14 22-19zm235 123c18-8 47-9 55 12 9 22-11 42-29 50s-46 9-55-13c-9-21 11-41 29-49zm1245-9c35 3 84 23 89 63 1 5 0 10-1 15-4 22-22 37-41 45-22 10-49 14-73 11-35-3-84-22-89-63v-15c5-21 23-36 42-45 22-10 48-13 73-11zm-40 190c24 3 44 24 40 48-3 25-29 39-52 36-24-4-44-24-40-49 4-24 29-38 52-35zm935 43c31 17 56 52 48 88l-5 13c-19 40-70 42-104 23-31-17-56-52-48-88l4-13c19-40 70-42 105-23zm317-227c18 4 40 20 39 41-2 23-28 30-48 25-18-4-40-20-38-41 1-23 28-30 47-25zm503 405c33 14 68 51 62 89-1 9-5 17-11 23-19 21-51 19-75 8-32-13-67-50-61-88 1-9 4-17 11-24 18-20 51-18 74-8zm308-307c22 16 50 51 46 80-1 7-4 14-10 19-18 15-45 3-61-9-23-16-51-51-47-80 1-8 5-14 10-19 18-15 45-3 62 9zm-194-50c13 9 31 29 24 46l-4 6c-12 13-33 5-45-3-14-9-32-29-24-46l3-6c12-13 34-5 46 3zm406 24c6 6 11 12 14 20 4 8 5 18-3 24-13 12-34-3-44-12-6-6-11-13-14-20-4-8-4-18 3-25 13-11 34 3 44 13zm18 340c11 10 26 32 17 48l-5 6c-14 11-34-1-44-11-12-10-27-32-17-49l5-5c13-11 33 1 44 11zm147-33c10 12 22 33 14 48-1 3-4 6-7 8-13 8-29-3-38-13-10-11-21-32-14-48l7-7c13-9 29 3 38 12zm149 68c9 10 20 29 18 43 0 6-3 10-8 13-12 7-25-4-32-13-9-10-20-30-18-44 0-5 3-10 7-12 13-8 26 4 33 13zm179-13c13 17 33 50 34 72 0 7-3 14-9 18-16 9-34-12-43-22-13-17-33-50-34-72 0-7 3-14 9-18 16-9 35 12 43 22zm92 69c7 8 17 24 17 35 0 6-2 11-7 14-10 7-21-3-28-10-7-9-17-24-17-35-1-6 2-12 7-15 10-6 21 3 28 11zm-99 109c9 10 19 28 17 42-1 4-4 9-8 11-12 7-25-3-32-12-9-10-20-28-17-42 1-5 4-9 8-11 12-8 25 3 32 12zm75 179c7 11 16 31 11 44-1 5-4 9-9 11-12 5-24-7-30-16-8-11-16-31-12-44 2-5 5-9 10-11 12-5 24 7 30 16zm247 132c10 17 23 49 22 69-1 7-4 14-11 17-15 7-29-14-36-25-10-18-24-50-22-69 0-8 3-15 10-17 16-7 30 14 37 25zm15-158c6 8 13 23 13 32 0 6-2 11-7 14-12 6-20-5-25-14-6-8-13-22-13-32 0-5 2-11 7-13 12-6 20 5 25 13zm34 399c9 19 21 56 17 77-2 7-5 14-13 16-17 5-30-20-36-33-8-19-20-56-16-77 2-7 5-14 13-16 17-5 30 20 35 33zm111-111c7 17 16 41 19 58 2 8 1 16-7 20-6 2-12-1-16-5l-3-6-8-16c-7-17-16-41-19-59-1-7-1-16 8-19 6-2 11 1 15 5l3 6 8 16zm-367 178c7 14 13 37 2 50l-9 5c-15 5-28-10-34-22-7-13-12-36-1-49l8-5c15-5 28 10 34 21zm116 119c5 13 11 36 3 48-2 4-6 7-10 8-15 4-25-12-30-23-5-12-10-35-3-48 3-4 6-6 11-8 14-3 24 12 29 23zm227 95c4 10 8 28 2 39-2 4-5 7-10 8-13 3-20-10-24-20-4-11-8-29-2-40 2-4 6-7 10-8 13-3 21 11 24 21zm58-114c4 10 8 27 5 37-1 5-5 9-10 11-7 1-13-3-17-8l-6-12c-4-10-8-27-5-37 1-5 5-9 10-10 7-2 13 2 17 7l6 12zm87 71c5 16 13 43 13 58 0 7-3 14-11 16-9 3-15-5-18-12l-8-19c-5-15-12-42-12-58 0-7 2-13 10-15 9-3 15 4 18 11l8 19zm-5719-608c8-13 25-28 41-21l7 5c14 14 6 39-4 54-8 12-24 27-41 20l-7-4c-14-14-6-40 4-54zm-330-644c6-6 16-16 26-9 5 4 6 11 3 17-3 8-11 19-17 25-6 7-16 17-26 10-5-4-6-11-3-17 3-8 11-19 17-26zm609-606c8-5 20-12 28-2 4 5 3 12-1 17-5 7-18 16-26 21s-20 12-28 2c-4-5-3-12 1-17 5-7 18-16 26-21zM526 1742c6-8 15-19 26-13 5 3 7 7 7 12 1 10-7 24-12 32-6 8-16 18-27 12-4-2-7-7-7-12-1-9 7-23 13-31zm-135 216c5-8 14-19 25-13 5 2 8 8 7 14 0 9-7 23-12 31s-14 19-25 14c-6-3-8-9-7-15 0-9 7-23 12-31zm1901-302c18-13 47-17 61 4 14 20 2 47-16 60-18 14-47 17-61-4-14-20-2-47 16-60zm-185 331c19-15 48-17 63 3 15 21 4 48-14 63-19 14-48 17-63-4s-4-48 14-62zm-118 116c16-18 44-27 64-9 18 17 13 47-2 65-16 18-44 27-64 9-19-17-14-47 2-65zm-330 185c15-17 42-25 60-8 18 16 14 44-1 61-15 18-42 26-61 9-18-16-13-45 2-62zm622 70c16-20 45-28 66-10 20 17 18 48 3 68-16 20-45 28-66 10-20-17-18-48-3-68zm83-81c22-14 52-11 65 12s1 52-20 65c-22 13-52 11-65-13-13-23-1-51 20-64zm464-411c45-6 94 19 98 67 1 7 0 14-1 20-8 39-44 65-82 70-45 6-94-19-98-67l1-20c8-39 44-65 82-70zm-956 941c16-42 60-73 104-55s57 72 42 114-60 73-104 55-57-72-42-114zm-868 96c6-20 25-41 47-29 19 11 21 39 15 58-6 20-25 41-47 28-19-10-21-39-15-57zm-221-79c6-18 25-37 45-26 17 11 17 37 11 54-6 18-25 37-45 26-17-11-18-37-11-54zm-158 27c5-14 17-29 33-27l9 4c15 11 14 35 9 51-5 13-17 28-33 26-3 0-7-2-10-4-15-10-14-35-8-50zm-172 128c3-12 11-30 27-29 4 0 8 2 11 5 11 12 10 36 7 50-3 13-11 30-26 29-5 0-9-2-12-5-11-11-10-36-7-50zm101 309c2-14 10-34 26-35 4 0 7 0 10 2 17 8 19 34 17 50-2 14-9 34-26 35l-10-2c-16-8-19-34-17-50zm-406-252c3-13 9-45 27-44 6 1 11 5 13 10 9 17 5 55 1 73-2 13-8 45-27 43-6 0-10-4-13-10-8-16-4-54-1-72zm0 174c2-10 5-28 19-27 5 0 10 3 12 7 5 10 4 30 3 41-1 10-5 27-19 27-5 0-9-3-12-8-5-10-4-29-3-40zm-91-100c1-10 3-27 17-26 6 1 10 5 12 10 2 9 1 25 0 34-2 9-3 26-17 25-6 0-10-5-12-10-2-8-1-24 0-33zm-3-100c1-10 4-26 18-25 6 1 10 5 11 11 2 8-1 24-2 33-2 10-5 26-18 25-6-1-10-6-11-11-2-9 0-25 2-33zm581-867c6-10 18-24 31-19 5 1 8 5 10 9 6 14-1 36-9 48-6 11-18 25-31 19-5-1-8-5-10-9-6-14 1-36 9-48zm-162 290c5-11 15-26 29-22 5 1 9 4 11 8 7 13 2 35-4 48-5 10-15 25-29 21-5-1-8-4-11-8-7-13-2-35 4-47zm414-31c6-16 21-40 42-33 20 7 18 35 13 51-6 16-22 40-42 33s-18-35-13-51zm54-64c7-16 25-35 44-30 21 6 21 32 14 49-7 16-24 35-44 30-21-6-21-33-14-49zm254-107c8-17 27-39 48-33 23 6 22 36 15 53-8 18-27 40-48 34-23-7-22-36-15-54zm-923 405c4-10 12-23 24-20 5 1 9 4 11 9 5 11 0 29-4 40-4 9-12 23-24 20-5-1-9-5-11-9-5-11-1-29 4-40zm-146-44 7-17c3-7 9-14 18-12 7 2 10 9 10 16 1 15-6 40-10 55l-7 17c-3 7-9 14-17 12s-11-8-11-15c-1-15 6-41 10-56zm116-257 6-11c4-5 10-9 17-7 5 2 9 7 10 12 1 10-4 26-8 36-2 4-3 8-6 11-4 5-10 9-17 7-5-2-9-7-10-12-1-10 4-26 8-36zm2857-492c25 2 48 22 44 49-4 26-31 41-56 39-25-1-48-21-44-48 4-26 31-41 56-40zm749 5c24 9 40 34 27 59-12 23-42 28-65 20-23-10-39-35-27-59 12-23 42-29 65-20zm274 27c41 19 69 65 46 108-22 42-78 49-118 31-41-18-69-64-46-107 22-42 77-50 118-32zm701 117c18 17 22 45 2 62-19 16-48 10-65-7s-21-45-1-62c19-15 48-9 64 7zm518-41c25 26 45 74 23 108-4 7-10 13-18 17-27 13-58-2-77-22-26-25-45-74-24-107 5-8 11-13 18-17 27-14 58 2 78 21zm405-177c12 12 24 35 18 52-1 5-5 10-10 13-12 7-27-1-36-11-12-12-24-34-19-51 2-6 5-10 10-13 13-7 28 1 37 10zm-485 511c16 16 24 43 8 62s-44 13-61-2c-16-16-24-44-8-62 16-19 44-14 61 2zm89 231c10 20 10 49-10 62-22 15-46 0-57-20s-10-49 10-63c21-14 46 1 57 21zm486-128c8 18 11 45-6 58l-9 5c-18 4-34-12-41-27-8-17-11-45 6-58l9-4c18-4 34 12 41 26zm140-61c10 15 16 40 2 54-17 17-39 2-49-14-10-15-16-41-2-55 17-16 39-1 49 15zm-1281-123c14 21 14 51-7 66-21 16-50 6-64-14s-14-50 7-66 50-6 64 14zm-161 64c26 1 50 21 51 47 2 28-21 47-48 46-25 0-50-20-51-46-2-28 21-47 48-47zm-1203 102c27 3 49 26 45 54-4 27-31 45-58 42s-49-26-45-54c4-27 31-45 58-42zm274-1c27 3 50 26 46 54s-32 45-59 43c-27-3-49-26-45-55 4-27 31-45 58-42zm493 251c23 14 34 45 18 68-16 24-48 27-71 13-24-14-34-45-18-68 16-24 48-27 71-13zm-464 237c9-50 55-86 105-75 51 11 80 62 70 112-9 49-55 85-105 74s-79-62-70-111zm-834-200c2-28 27-48 54-47 28 1 51 24 49 52s-27 49-55 47c-28-1-50-24-48-52zm-190 192c2-28 24-52 53-51 28 2 47 28 46 56-2 27-24 52-53 50-28-1-47-28-46-55zm-766 239c3-25 24-48 50-44 27 3 41 30 38 55s-24 48-51 45c-26-4-41-31-37-56zM65 3374c1-10 3-26 16-26 6 0 10 3 12 8 4 9 4 26 3 35s-3 26-16 26c-6 0-10-4-12-9-4-8-3-25-3-34zm-1 160c1-9 3-26 16-26 6 0 10 4 12 9 4 8 4 25 3 34-1 10-3 26-16 26-6 0-10-3-12-8-4-9-3-26-3-35zm85 152c1-9 4-20 16-21 8 0 13 6 15 13 4 11 5 29 3 40-1 9-4 21-16 22-8 0-13-6-15-13-4-11-5-29-3-41zm158-244c2-18 7-62 32-63 5-1 11 2 15 5 20 18 22 72 20 97-2 18-7 62-32 63-5 0-11-2-15-6-20-17-22-71-20-96zm-50-15c1-12 5-30 20-31 4 0 8 1 11 3 11 9 13 31 12 44-1 12-6 31-21 32-4 0-7-1-10-4-12-8-13-31-12-44zm357 52c2-17 14-41 36-36 19 6 24 31 23 48-2 18-14 42-36 36-19-5-25-31-23-48zm-60 141c0-15 6-36 23-38h9c17 6 22 32 22 48-1 15-7 36-24 38h-8c-18-6-23-32-22-48zm170-138c1-19 14-43 36-38 21 4 29 29 27 48-1 19-14 42-36 37-21-4-28-29-27-47zm80 152c1-19 11-47 35-43 21 3 29 30 29 49s-10 47-34 43c-21-4-30-31-30-49zm-660 204c1-12 3-33 18-35 10-1 17 8 20 16 9 21 12 56 11 79 0 11-2 33-18 34-10 1-16-8-20-16-8-21-12-56-11-78zm-89-39c-1-10-2-26 12-28 5-1 10 2 13 6 5 8 7 25 8 34s2 26-12 28c-5 1-10-2-13-7-5-7-7-24-8-33zm440 35c-1-14 3-35 19-38h9c17 3 24 28 25 43 1 14-3 35-19 39h-8c-18-4-25-28-26-44zm-105 48c-1-13 0-36 17-39l7 1c15 4 21 29 21 43 1 13 0 36-16 39l-8-1c-15-4-20-29-21-43zm61 46c-1-14 1-36 17-39h8c17 4 23 29 24 43 1 13-1 35-17 39h-8c-16-4-23-29-24-43zm-168 183c-3-18-5-54 17-61h9c24 4 35 45 39 64 2 18 4 55-18 61l-9 1c-23-5-35-46-38-65zm307 46c-3-14-2-35 13-40l9-2c17 2 28 25 31 40 2 14 1 34-14 40-3 1-6 2-8 1-18-1-28-24-31-39zm317-278c-1-20 10-45 34-43 22 2 34 27 35 46 1 21-10 46-34 43-22-2-34-26-35-46zm94 124c-1-20 10-46 34-44 22 2 33 28 34 47 1 20-10 47-34 44-21-2-33-27-34-47zm108-29c-1-21 10-49 35-46 22 2 34 29 35 49 1 21-10 48-34 46-23-3-35-29-36-49zm80-532c4-33 21-77 58-82 7-1 14 0 21 3 21 7 34 26 42 45 9 23 12 49 9 74-3 32-21 76-57 81-8 1-15 0-22-2-20-8-34-27-41-46-10-23-12-49-10-73zm-383-164c3-18 16-44 38-38 21 6 25 34 23 52-3 18-16 44-38 38-21-6-25-34-23-52zm571 142c3-24 23-44 48-40 25 5 38 31 35 54-4 23-23 44-48 39-25-4-38-30-35-53zm467 412c-2-25 12-53 39-54s45 24 47 49c3 25-12 52-39 53-27 2-45-24-47-48zM129 4105c-2-10-4-27 10-29 5-2 10 1 13 6 6 7 9 24 10 34 1 9 4 26-10 29-5 1-10-1-14-6-5-7-8-25-9-34zm28 95c-2-10-5-27 8-30 6-2 11 1 14 5 6 7 10 24 11 33 2 10 5 27-8 30-6 2-11-1-14-5-6-7-10-24-11-33zm57 127c-2-10-5-27 8-31 5-2 11 0 14 5 7 7 12 25 14 35s5 28-8 31c-5 2-11 0-14-4-7-8-12-26-14-36zm107 382c-4-12-15-41 1-48 6-3 12-1 17 3 12 11 26 44 32 60 4 11 15 40-1 47-6 3-12 1-17-3-12-11-26-43-32-59zm76 17c-4-13-12-43 5-51 6-2 12 0 17 3 16 12 31 48 37 67 3 13 12 43-5 51-6 2-13 0-18-3-16-12-30-48-36-67zm73-251c-3-12-7-36 9-41l5-1c16 0 25 23 28 36 3 12 7 36-9 41l-5 1c-16 0-25-24-28-36zm164-29c-4-14-4-36 12-42l8-2c18 0 30 24 33 39 4 14 4 36-12 43l-8 1c-18 0-30-23-33-39zm52 124c-4-14-7-35 8-43l7-2c18-2 32 19 37 33 5 13 7 35-7 43l-8 2c-18 2-31-19-37-33zm184 56c-6-14-8-35 7-44 2-2 5-3 8-3 19-4 35 16 41 32 6 14 8 34-7 44l-8 3c-19 4-35-16-41-32zm17-108c-5-17-6-46 16-50 20-4 35 20 40 36 5 17 6 46-16 50-20 3-35-20-40-36zm-42-312c-2-19 5-45 29-44 20 2 33 26 35 44 3 19-5 45-28 43-21-1-33-25-36-43zm2757-958a91 91 0 0 1-35-126c27-44 86-55 130-30s63 80 35 125c-27 44-86 55-130 31zm-774 552c-44-25-63-80-36-125 27-44 86-55 130-30 44 24 62 80 35 124s-85 55-129 31zm296-67c-43-29-56-89-31-133 25-45 82-62 125-33 44 28 56 88 31 133a88 88 0 0 1-125 33zm-754-411c1-27 23-52 51-50 29 1 47 28 46 55-2 27-23 52-52 50-28-1-47-28-45-55zm1 274c2-27 23-51 50-50 28 1 46 28 45 55-2 26-22 51-50 49-28-1-46-28-45-54zm-502 508c-11-43 6-96 53-107s87 29 98 71c11 44-6 97-53 108s-87-29-98-72zm-449 264c-18-34-17-86 23-105l13-4c36-8 70 18 86 49 18 35 17 86-22 105l-14 5c-36 7-70-19-86-50zm-849 826c-5-9-17-28-8-39 7-8 17-3 24 4l11 15c6 9 18 28 9 38-8 9-18 4-24-3l-12-15zm-110-57c-5-8-14-24-6-33l4-2c8-4 14 1 19 7l8 12c4 9 13 24 5 33l-4 3c-8 4-14-1-19-7l-7-13zm200 143c-6-9-18-28-9-38 8-9 18-4 24 3l12 15c5 9 18 29 8 39-7 8-17 3-23-4-5-4-9-10-12-15zm-277-291c-4-9-13-24-5-33l4-3c8-4 14 1 19 7l7 13c5 8 14 24 6 32l-4 3c-8 4-14-1-19-7l-8-12zm290 70c-5-11-13-32 0-40l6-2c14-2 27 17 32 28 6 11 14 32 0 40-1 2-3 2-5 3-15 2-27-18-33-29zm47 172c-9-14-28-49-10-64l6-3c22-6 48 28 58 44 9 14 29 50 11 64l-6 3c-22 7-49-28-59-44zm65 246c-6-9-16-26-5-35 2-2 3-3 5-3 8-2 14 2 19 7l13 14c6 9 16 26 5 35l-6 3c-7 2-13-2-18-7l-13-14zm79 145c-7-8-20-25-9-35 2-2 3-3 5-3 13-4 27 11 34 20 7 8 19 25 8 35-1 2-3 3-5 3-12 4-27-11-33-20zm83-76c-7-9-20-30-8-40l6-3c14-5 30 14 37 24 8 10 21 30 8 41l-5 3c-14 4-30-15-38-25zm82 18c-8-10-22-29-11-41l5-3c14-6 32 11 40 21 8 9 22 29 11 40l-5 4c-14 6-32-12-40-21zm99 51c-8-10-23-28-12-41l4-3c14-8 34 7 43 17 9 9 23 28 13 40l-5 4c-14 8-33-8-43-17zm133 90c-9-10-22-29-11-41l5-4c14-8 33 8 42 18s22 29 11 41l-4 4c-15 8-34-8-43-18zm-23-404c-8-12-15-33-2-45l7-4c18-6 37 12 46 26 8 12 15 33 2 45l-7 4c-18 6-37-12-46-26zm60 205c-15-17-34-50-17-71l8-8c27-14 66 13 83 33 15 17 34 50 17 71l-9 8c-27 14-65-13-82-33zm-218 289c-8-8-21-25-11-36l5-4c13-4 28 11 36 19 7 8 21 25 11 36l-6 3c-12 5-27-10-35-18zm-182-80c-7-7-22-23-11-33l9-3c9-1 21 13 27 20 7 8 21 23 10 33-2 2-5 4-8 4-10 0-22-14-27-21zm-68-48c-7-8-21-23-11-33 3-2 6-4 9-4 9 0 21 14 27 21 7 7 21 23 11 33l-9 3c-9 0-21-14-27-20zm366 215c-9-8-25-24-15-36l5-4c13-6 30 9 38 17 9 8 25 25 15 37-2 1-3 3-5 3-13 6-30-9-38-17zm-110 24c-10-9-36-34-23-49l5-4c16-6 43 19 54 29 9 9 35 34 23 49l-6 4c-15 6-43-19-53-29zm207 27c-9-8-25-25-15-37l5-4c12-5 31 10 39 18 9 8 25 25 15 37l-5 4c-13 6-31-10-39-18zm94 24c-5-4-10-9-14-15-4-7-7-15-2-22l5-4c13-7 32 7 41 15l14 16c4 6 7 15 1 22l-4 4c-13 7-32-8-41-16zm-213 51c-7-7-23-21-13-32 2-2 5-4 8-4 9-1 23 11 29 17 7 7 23 21 14 32-2 2-5 4-9 4-9 1-22-11-29-17zm20-1317c-7-18-7-48 16-54 22-5 41 17 48 35s7 48-17 54c-21 5-40-17-47-35zm415 519c-18-25-30-65-8-90l9-8 7-4c32-15 69 9 88 35 18 24 29 64 7 90l-8 8-7 4c-33 14-70-10-88-35zm358 145c-27-17-53-53-41-86l6-11 5-6c27-27 73-16 101 3 26 17 52 53 40 86l-6 11-5 6c-27 27-73 16-100-3zm17-543c-12-20-12-49 10-62 22-12 48 2 60 21 12 20 12 49-10 62s-48-1-60-21zm216-119c-20-16-26-45-8-65 17-19 47-17 66-1s25 45 8 64c-18 20-47 18-66 2zm71-145c-8-24 3-53 29-60 25-7 50 11 58 35 8 25-3 53-29 60-25 7-50-11-58-35zm340-476c-2-27 17-52 45-53 28 0 49 24 51 51 1 27-18 52-46 52-28 1-49-23-50-50zm654 134c27 1 52 21 52 49s-26 48-53 47c-27 0-52-21-51-49 0-28 25-48 52-47zm410-77a97 97 0 0 1-30-129c24-44 78-60 121-33 42 28 54 86 30 130a85 85 0 0 1-121 32zm277-415a96 96 0 0 1 104-82c50 4 89 47 84 98-2 16-8 30-18 43a94 94 0 0 1-85 38c-50-4-90-46-85-97zm253-62c2-27 25-50 54-48 28 3 47 30 44 57-3 28-26 51-54 48-29-2-47-29-44-57zm0-391c3-27 25-49 53-47 28 3 46 29 44 56-3 27-26 50-54 47-28-2-46-29-43-56zm603 26c-39-28-50-85-29-127s71-60 112-31c39 27 50 84 29 126-21 43-71 60-112 32zm-15 495c-32-35-31-93-1-129 30-38 83-43 116-6 32 35 31 93 1 130s-83 42-116 5zm-1158 517c-25-11-38-40-26-65 13-25 43-35 68-24 26 10 38 39 26 64a54 54 0 0 1-68 25zm1765-1135c4 23-6 51-31 57s-44-17-48-41c-4-22 6-51 31-56 25-6 44 17 48 40zm143 256c4 23-9 48-33 53-25 5-45-15-48-38s9-49 34-54c24-5 44 15 47 39zm-142 322c2 24-9 52-34 57-26 6-45-17-47-41-3-24 9-52 34-57 26-6 45 17 47 41zm253-809c5 21-1 50-24 57-24 7-42-16-47-38-5-20 1-49 24-56 24-7 43 16 47 37zm398-169c5 17 3 45-17 53-21 9-37-16-41-33-5-18-3-46 17-54 21-8 37 16 41 34zm87 61c6 17 6 44-12 53-20 11-38-10-44-27s-6-43 12-53c20-10 38 10 44 27zm-181 582c2 32-10 80-46 89l-6 1h-10c-35-6-51-48-53-79-2-32 10-80 47-89l5-1h10c35 6 51 48 53 79zm547 12c0 16-2 33-8 48-5 12-15 25-29 25-31 0-38-52-38-74 0-16 2-33 8-48 5-12 15-25 30-25 30 0 37 52 37 74zm96-365c2 13 3 39-15 42-18 4-25-22-27-36-1-13-2-39 16-42s25 23 26 36zm-303-201c4 15 5 41-11 50l-9 3c-16 2-28-15-32-29-5-16-5-41 11-50 2-2 5-3 8-3 17-2 28 15 33 29zm58-36c4 14 6 40-8 50l-8 4c-17 2-26-17-30-30-4-15-6-41 7-51l9-4c17-2 26 17 30 31zm303-28c3 10 6 31-1 41-2 3-5 5-9 6-14 2-21-16-23-27-3-11-6-31 1-41 2-3 5-5 9-6 14-2 21 16 23 27zm103-100c3 10 7 26 5 35 0 6-4 11-10 12-7 2-13-3-16-9l-5-11c-3-10-6-26-5-35 1-6 5-11 11-12 7-2 13 3 16 9l4 11zm29 74c3 9 6 25 5 34-1 6-4 11-10 13-8 1-13-4-17-10l-4-11c-3-9-6-25-5-34 1-6 4-11 10-13 8-1 13 4 17 9l4 12zm-90 490c1 12 1 38-16 40-18 2-22-25-23-37s0-38 17-40 21 24 22 37zm-36 183c0 13-4 37-22 37-17 0-21-24-21-37 0-14 4-38 22-38 17 1 21 25 21 38zm150-134c1 15 3 64-20 64-22-1-24-49-25-63-1-15-3-65 21-64 21 1 24 48 24 63zm56-283 2 20c1 7 1 16-7 20s-15 0-18-7l-2-7-5-19-2-20c0-8-1-17 8-21 7-3 14 1 17 8l3 7 4 19zm30 135 1 32c0 7 1 19-7 24-9 5-17-2-19-11l-2-9-3-31-1-31c0-8-1-19 7-24 9-5 17 2 19 10l2 10 3 30zm-19 195c0 11 0 33-15 35-17 3-19-22-19-33s1-33 15-35c18-3 19 22 19 33zm31-39v29c0 8 0 20-8 23-9 4-16-2-18-11l-2-9-2-28v-29c0-8 0-20 9-23 9-4 16 2 18 11l1 9 2 28zm-590-1773c6 9 19 30 3 37-8 3-15-2-20-7l-10-14c-6-9-18-30-2-37 8-3 14 2 19 7l10 14zm90 162c5 9 18 30 2 37-8 3-15-2-20-8l-10-13c-5-10-18-30-2-37 8-3 15 2 20 7l10 14zm44 64c6 9 18 29 2 36-8 4-14-1-19-7l-10-14c-6-9-19-30-3-36 8-4 15 1 20 7l10 14zM3162 4922c-42-22-62-72-35-114 27-40 84-49 126-28 42 22 62 73 35 114s-84 49-126 28zm598 0c-42 22-99 13-126-28-28-41-8-91 35-113 41-22 99-13 126 27 27 42 7 92-35 114zm-1468 344c-18-13-28-40-15-60 14-21 42-19 60-5s28 40 15 61c-14 20-42 18-60 4zm233 88c-22-7-43-29-35-53 8-25 37-30 59-23s42 29 34 53c-7 24-37 30-58 23zm-951 519c-10-8-23-25-14-39l5-5c14-9 35 3 46 12 10 9 22 26 14 40l-6 5c-14 9-35-3-45-13zm29-148c-10-10-20-29-10-42l6-6c16-8 38 6 49 17 9 11 20 29 10 43l-7 5c-16 9-37-5-48-17zm178 25c-11-9-25-27-17-42l5-6c16-12 40 0 53 10 12 9 26 26 17 42l-5 6c-15 12-40 0-53-10zm-138 277c-10-9-24-24-16-38l5-5c13-10 34 2 45 10 10 8 23 24 15 38l-5 5c-13 9-33-2-44-10zm-4 182c-13-8-45-32-34-51 1-2 4-5 7-6 18-10 55 12 69 22 13 9 44 32 34 51-2 3-4 5-7 6-18 10-55-12-69-22zm-295-30c-8-6-25-20-17-32l5-4c11-5 27 8 35 14s25 20 17 32l-5 4c-11 5-27-8-35-14zm467 19c-10-7-27-23-19-36l3-4c12-11 33 1 44 9 10 7 27 22 18 36 0 2-1 3-3 4-12 10-33-1-43-9zm180 75c-11-6-28-19-22-34l3-5c11-12 34-4 45 3 12 6 28 19 22 34 0 2-1 4-3 5-11 12-33 4-45-3zm-287 25-16-13c-6-6-10-16-3-23 11-11 31 0 41 6 5 4 11 8 15 13 6 6 10 16 3 23-10 11-30 0-40-6zm429 226c-14-7-56-29-42-50 12-17 53 0 67 7 14 6 56 29 42 49-12 18-53 1-67-6zm-164 12c-6-2-11-5-16-9-7-4-14-11-10-20 7-15 29-5 39 0l16 9c7 5 13 12 9 20-6 15-28 5-38 0zm297 149-30-13-10-5c-6-4-10-10-8-17 5-13 19-9 28-7l32 10c10 4 21 8 30 13l10 6c6 4 10 9 8 17-4 12-19 8-28 6l-32-10zm110-111c-12-4-25-10-36-17-9-6-21-17-14-30 11-19 56-6 71 0 12 4 26 10 37 17 9 6 20 17 13 29-10 20-55 6-71 1zm47-267c-11-6-24-19-20-33 2-4 4-7 7-9 13-9 35-3 48 4 11 7 24 19 19 33-1 4-4 7-7 9-13 10-35 3-47-4zm124 120c-12-5-31-16-28-32l4-7c10-13 35-8 48-3 13 4 31 15 28 31l-4 7c-10 13-35 8-48 4zm-222-453c-12-8-23-24-17-39 1-4 4-7 7-10 15-12 40-5 54 5 12 9 24 24 18 40-1 4-4 7-7 10-15 12-40 4-55-6zm60-142c-13-9-25-24-19-40 1-4 4-8 7-11 16-13 42-7 58 4 12 8 24 23 19 39-2 5-4 8-8 11-15 13-42 7-57-3zm142 878-14-7c-6-4-11-10-8-18 1-3 3-5 6-7 9-6 26-1 36 3l13 7c7 4 11 10 9 18-1 3-3 5-6 7-9 6-26 1-36-3zm113-57c-10-3-27-10-24-24 0-4 2-6 4-9 9-9 29-6 40-2 11 3 27 10 25 24 0 3-2 6-4 9-10 9-29 6-41 2zm-35 145-24-8-8-3c-6-3-11-9-9-16 1-5 5-8 9-9 10-3 42 6 51 9l25 8 8 4c6 3 10 8 9 15-2 5-5 8-9 9-10 3-42-6-52-9zm90-32-15-6c-6-3-11-9-10-17l5-8c9-6 27-2 37 0l14 6c6 4 12 9 10 17-1 4-2 6-5 8-9 7-27 3-36 0zm73 29c-5-1-10-3-14-6-6-3-12-9-10-17 0-3 2-6 5-8 9-6 26-2 36 0l14 6c7 4 12 9 11 17-1 4-3 6-6 8-8 7-26 3-36 0zm20-134c-6-2-12-4-17-8-6-4-12-10-10-18 0-3 2-6 5-9 10-8 32-4 43 0 6 1 12 4 17 7 7 4 12 10 11 18-1 4-3 7-6 9-10 8-32 4-43 1zm-1254-338-12-9c-5-6-9-13-4-21l4-4c10-5 25 6 33 11l12 10c5 6 10 13 5 21l-5 4c-10 5-25-6-33-12zm163 89-13-9c-6-5-12-12-7-20l4-5c10-6 27 4 35 9l14 9c5 5 11 12 6 20l-4 5c-10 6-27-4-35-9zm65 45-14-9c-6-5-11-12-7-20l5-5c10-6 26 4 35 9 4 2 9 5 13 9 6 5 11 12 7 20l-4 5c-10 6-27-4-35-9zm1169-802c-21-6-43-26-35-50 8-22 38-27 58-22 21 6 44 26 35 50-8 22-37 27-58 22zm-111 482c-13-6-26-19-23-35 1-4 3-8 6-11 13-15 39-12 54-4 14 6 27 20 24 36-1 4-3 8-6 11-13 14-39 11-55 3zm27 159c-12-5-26-16-23-31 0-5 3-9 6-12 13-13 37-11 52-4 12 5 26 16 24 31-1 5-3 9-7 12-13 13-37 11-52 4zm201 306c-12-3-33-9-32-25 0-4 1-7 3-9 10-12 35-10 48-7 12 2 34 8 32 24 0 4-1 7-3 9-10 12-35 10-48 8zm112-1201c-22-6-44-27-36-53 8-24 38-31 60-25 23 6 45 27 37 52-8 24-38 31-61 26zm602 0c-22 6-52-2-60-26-8-25 13-46 36-52s53 1 61 26-14 46-37 52zm-333 61c24 1 47 18 46 43s-25 41-49 41c-24-1-46-18-45-43s24-41 48-41zm562 192c-21 6-50 1-58-22-9-24 13-43 34-49 21-5 50-1 58 22 9 24-13 44-34 49zm-484 306c-31 0-74-15-80-49l-1-11 1-5c7-36 54-51 86-50 31 0 73 15 80 49l1 11-1 5c-7 36-54 51-86 50zm432-17c-19 4-48 1-56-19-10-23 15-40 34-45 19-4 48-1 56 20 10 22-15 39-34 44zm-47 70c-19 5-45 0-53-20-8-22 13-40 32-45s45 0 53 20c8 22-13 40-32 45zm471-509c-29 13-67 14-90-10-5-6-9-12-11-19-15-41 16-82 52-98 28-13 66-13 89 11 5 6 9 12 12 19 15 40-17 81-52 97zm38-152c-21 8-51 5-60-18-10-24 10-47 31-55s51-5 60 18c10 24-10 47-31 55zm543 9c-27 15-67 20-90-5-4-4-7-8-9-14-7-17-3-36 6-52 10-18 26-32 44-42 27-14 67-20 90 5 4 4 7 9 9 14 7 18 3 37-6 53-10 18-26 32-44 41zm407-397c-19 23-52 43-83 30-5-2-11-6-15-10-29-30-14-80 9-108 19-23 52-44 83-31 5 3 11 6 15 11 29 29 14 80-9 108zM3481 6505c-18-3-50-11-52-35 0-6 2-12 6-17 18-22 64-25 90-21 18 2 51 11 52 34 0 6-2 12-6 17-18 22-64 25-90 22zm-237 197c-11-2-28-8-28-22 0-5 3-9 7-12 10-8 32-7 44-5 11 2 29 8 28 22 0 5-3 9-6 12-11 8-33 7-45 5zm182-36c-12-2-27-7-28-21 0-4 1-9 4-12 10-10 31-11 44-10 11 2 27 7 27 21 1 4-1 8-4 12-10 10-30 11-43 10zm-144 149c-13-2-44-7-43-25 0-6 4-11 9-14 17-9 55-7 73-5 13 2 44 6 44 24 0 7-4 12-10 15-16 8-54 7-73 5zm63 68c-10-1-28-4-28-18-1-3 1-6 3-9 7-8 25-8 35-7 11 1 29 4 29 18l-3 9c-8 8-26 8-36 7zm295-67c-18 2-56 4-72-5-6-3-10-8-10-14 0-19 30-23 44-25 18-2 56-4 72 5 6 3 10 8 10 14 0 19-30 23-44 25zm39-114c-13 3-34 4-45-5-4-2-6-7-6-11-1-15 16-20 27-22 13-2 35-3 45 5 4 3 6 7 6 12 1 14-16 19-27 21zm195-100c-13 2-37 4-46-8-2-2-3-5-3-8-2-16 19-23 31-25 12-3 36-4 46 7l3 9c1 16-19 22-31 25zm351 164c-11 3-35 6-46 0-4-2-8-6-8-11-2-15 18-20 28-22 12-3 35-6 46 0 5 2 9 6 9 11 2 15-18 20-29 22zm152-340c-13 5-37 10-48 0-3-3-4-6-5-9-4-15 14-26 26-31 13-5 37-10 48 1 3 2 4 5 5 8 4 16-14 26-26 31zm203-194c-13 8-36 15-48 2l-4-6c-6-15 7-30 19-37 13-8 36-15 48-2 2 1 3 4 4 6 6 15-7 30-19 37zm-42 345c-15 4-54 13-62-7l-1-7c1-21 42-35 58-40 15-4 55-14 62 7 1 2 2 4 1 7-1 21-42 35-58 40zm180 22c-13 5-46 18-55 0v-10c4-16 39-31 53-36 12-5 46-17 54 0 1 3 2 7 1 10-5 16-39 31-53 36zm33-285c-12 7-35 14-45 1l-3-5c-5-15 11-28 22-35 13-6 35-13 45 0 2 1 3 3 3 5 6 15-10 28-22 34zm179-40c-12 6-36 15-45 1-6-8-2-18 4-24 5-6 12-11 19-14 11-7 35-15 45-1 6 8 2 17-4 24-5 6-12 10-19 14zm-400-437c-18 7-45 8-55-11-11-21 9-41 26-48 18-7 45-7 55 12 11 20-9 40-26 47zm103 213c-15 8-41 12-52-6-10-18 9-37 24-44 15-8 41-12 51 5 11 18-8 37-23 45zm296-232c-14 11-39 20-52 5-15-17 1-39 14-50 14-10 39-20 53-4s-1 39-15 49zm210-64c-14 10-38 19-51 3l-3-4c-8-16 6-34 18-44 14-10 39-18 52-3l2 5c8 16-5 34-18 43zm379-140c-11 13-25 24-41 30-13 5-29 7-41-2l-5-5c-19-23 2-60 19-78 11-12 25-23 40-29 14-5 30-7 42 2l5 5c18 23-3 59-19 77zm101-105c-11 12-25 22-40 28-12 5-28 7-40-2l-4-5c-18-22 4-57 20-74 11-12 25-22 40-28 12-5 28-7 40 2l4 5c18 22-4 57-20 74zm-343 520c-12 8-36 18-46 4-6-8-3-18 2-25 5-6 11-12 18-16 11-8 35-19 46-4 5 8 2 18-3 25-4 6-11 12-17 16zm68-152c-11 9-36 22-47 7-13-15 7-36 18-44 12-9 36-22 48-7s-7 35-19 44zm-151 475c-9 6-29 18-38 6-10-14 9-28 19-34 9-7 28-19 38-6 9 13-10 27-19 34zm-50 65c-10 5-29 14-36 1-8-13 10-25 19-30 10-5 29-14 36-1 8 13-10 24-19 30zm81-4c-9 6-29 18-37 3-3-8 2-15 8-20l13-10c10-5 29-17 37-2 4 8-2 14-7 19l-14 10zm161-88c-9 6-29 18-36 3-4-8 1-15 7-20l14-9c9-6 29-18 36-3 4 8-1 15-7 20-4 3-9 7-14 9zm183-434c-10 9-30 22-42 10-13-13 2-33 12-42 9-9 29-22 42-10 12 13-2 33-12 42zm60 45c-9 8-28 22-39 10-12-12 4-30 13-38s28-22 39-10c12 12-4 30-13 38zm-5 120c-8 7-28 22-38 10-11-12 7-29 16-36 9-8 28-23 38-10 11 12-7 29-16 36zm46 35c-8 7-25 24-36 13-12-12 7-28 15-35 8-8 25-25 36-14 12 12-7 28-15 36zm-81 80c-8 7-24 21-34 10-6-8-1-16 4-21l12-11c7-6 23-21 33-9 7 7 2 15-3 21l-12 10zm136-286c-9 8-28 22-40 11-12-12 4-30 13-39 9-8 28-22 40-10s-4 30-13 38zm-108-92c-10 9-31 23-44 10s3-34 13-43c10-10 31-23 44-11 13 14-2 34-13 44zm270-70c-8 8-26 26-39 16-14-11 3-32 11-41s26-27 39-16c14 11-3 32-11 41zm-94-108c-9 9-29 26-42 15-14-12 1-34 10-44 9-9 29-26 42-14 14 12-1 33-10 43zm99-50c-9 10-29 27-42 15-14-12 1-33 10-43s29-26 42-15c14 12-1 34-10 43zm46 60c-7 9-25 28-38 20-17-10 1-33 9-42 8-10 25-29 39-21 16 10-2 33-10 43zm119-1c-7 8-22 24-35 17-15-10 0-30 8-39 7-8 22-24 34-17 16 10 1 30-7 39zm-310-476c-9 9-23 17-35 11-5-3-9-8-11-14-5-16 5-38 16-50 9-9 23-17 35-11 6 3 9 8 11 13 6 17-4 39-16 51zm64-210c-10 9-26 16-38 8-5-3-8-8-10-13-5-18 8-40 21-52 10-8 26-16 39-7 4 3 7 7 9 12 5 19-8 41-21 52zm-322-545c-20 21-51 35-80 24-10-3-18-9-25-17-28-33-17-85 10-115 20-21 52-34 80-24 10 3 19 9 26 18 28 33 17 84-11 114zm-142 19c-14 19-41 28-59 10-17-17-13-46 0-64 14-18 41-28 59-9 16 17 13 45 0 63zm484 128c-8 12-23 23-38 18-5-1-10-5-13-9-11-17-4-43 6-58 8-13 23-24 39-19 5 2 9 5 12 9 12 17 5 43-6 59zm210 106c-8 9-21 16-32 11-7-3-11-9-13-15-5-17 3-39 15-51 8-9 20-16 32-11 6 3 11 9 13 15 5 17-4 39-15 51zm28-416c-11 17-33 27-48 8-11-15-8-40 1-55 11-17 34-27 48-8 12 15 9 39-1 55zm-415-270c6 20-1 47-19 60-21 15-44 2-50-21-6-20 1-47 19-60 21-15 43-2 50 21zm290-52c5 20 0 47-17 60-20 16-42 2-47-21-5-20 0-46 17-59 20-17 42-2 47 20zm70-44c6 19-1 44-17 56-20 14-41 2-47-20-5-19 1-44 17-55 20-14 41-3 47 19zm320 272c5 15-1 37-11 49-14 16-36 14-42-8-4-15 1-37 12-49 14-17 35-14 41 8zm270-284c1 14-3 34-11 45-4 4-10 8-16 6-13-2-16-16-16-26-1-14 3-34 11-44 4-5 10-8 16-7 13 2 16 16 16 26zm99-183c0 12-5 37-22 35-17-1-17-26-17-38 1-13 5-38 23-36 16 1 17 26 16 39zm114-47c-1 14-3 61-26 59-21-2-20-48-19-62 0-15 2-62 25-60 21 2 20 48 20 63zm-49 580c0 12-2 32-8 43-2 5-8 9-14 9-14-2-14-20-13-30 0-12 2-32 8-43 2-5 8-9 14-9 14 2 14 20 13 30zm-336 144c0 15-6 35-15 47-13 19-34 12-34-11-1-15 5-35 14-47 13-20 34-13 35 11zm-207 246c-7 8-17 14-28 10-7-3-11-10-13-17-2-16 5-37 16-49 6-7 16-14 27-10 8 3 12 10 13 18 3 16-5 36-15 48zm82 170c-6 8-17 16-27 12-7-3-10-9-11-16-1-14 7-33 15-44 7-8 17-16 28-11 6 3 9 9 10 16 2 14-6 32-15 43zm-40 182c-7 8-17 16-28 11-6-3-10-9-10-16-2-14 6-32 15-43 6-8 16-16 27-12 7 3 10 9 11 16 1 14-7 33-15 44zm316-193c-5 9-15 25-28 19-10-3-10-15-8-23 3-20 14-48 24-65 6-10 15-25 28-20 10 4 10 15 9 24-3 20-15 48-25 65zm2-247c-1 24-13 57-26 76-6 9-15 20-27 16-13-4-14-20-13-31 1-23 12-57 25-76 6-9 16-19 28-15 13 4 14 19 13 30zm88 182-6 12c-4 6-10 10-17 7-12-4-9-16-7-25 5-19 14-42 22-60l6-11c4-6 10-11 18-8 11 4 8 17 6 25-5 20-14 42-22 60zm-798 662c-8 10-24 25-38 16-3-1-5-3-6-6-8-14 4-35 13-46 8-10 24-24 38-16l6 6c8 14-4 35-13 46zm152-70-14 14c-7 4-15 7-22 3l-5-6c-8-13 4-33 11-43 4-6 9-11 15-15s14-6 21-2c3 1 4 3 6 5 7 13-4 34-12 44zm325-84c-7 9-19 26-32 18l-4-4c-6-10 5-27 11-36s19-26 31-18l5 4c6 11-6 27-11 36zm65-49-10 14c-5 6-12 11-20 7l-5-4c-7-10 4-28 9-37l9-14c5-6 13-11 21-7l4 4c7 10-3 28-8 37zm-3 78-9 12c-4 6-11 12-19 7-2 0-3-2-4-3-7-9 3-24 8-33l8-12c5-6 12-12 20-7l3 3c8 9-2 24-7 33zm126-236-8 13c-4 6-10 12-19 8l-4-3c-8-8 2-24 6-33l8-13c4-6 10-12 19-8l3 3c8 8-1 24-5 33zM4990 6539c-9 5-30 15-36 0-3-8 2-15 8-19l15-9c9-5 30-16 36 0 4 8-2 14-8 19l-15 9zm-1973 331c-10-2-28-5-26-19 1-4 4-8 9-10 7-3 24 0 31 1 10 2 28 5 26 19 0 5-4 9-8 10-8 3-24 0-32-1zm129 31c-8-1-16-1-23-3-9-1-20-3-19-15 0-6 5-10 11-12h21l32 2 24 3c8 1 19 4 18 15 0 7-5 11-11 12h-21l-32-2zm157 13-24-3c-8-1-19-3-19-14 0-7 5-11 11-12 6-2 15-1 21-1l32 1 24 2c8 2 19 3 19 15 0 7-5 11-11 12l-21 1-32-1zm476-14-32 3h-21c-6-1-11-5-12-12-1-11 11-14 19-15l24-3 32-3h21c6 1 11 6 11 12 1 12-10 14-18 15l-24 3zm422-60-32 7-21 3c-6 0-11-4-13-10-1-5 2-11 6-14l3-1 8-3 23-6 32-8 21-3c6 1 11 4 13 10 1 6-2 11-6 14l-3 1-8 3-23 7zm1892-1174c-5 6-16 19-25 20-3 0-7-1-9-3-11-10 2-24 8-32 5-6 16-19 24-20 4 0 8 1 10 3 11 10-2 24-8 32zm81-81c-5 6-15 19-24 20-3 1-7 0-10-3-11-10 2-24 9-32 5-6 16-19 24-20 4 0 7 1 10 3 11 10-2 25-9 32zm729-1817c0 11-1 21-3 31-1 10-4 25-18 22-11-2-11-15-11-24v-32l2-30c2-10 5-25 18-22 12 2 12 15 12 24v31zM4191 80c9 2 18 3 26 6l8 2c6 2 11 7 10 15 0 3-2 5-3 7-6 5-16 3-23 2l-27-4-25-6-8-2c-6-3-12-8-10-15 0-3 2-5 3-7 6-5 16-4 22-3l27 5zM623 5431l-13-17c-4-7-11-16-2-24 7-5 14-2 18 2l5 6 14 16 12 17c5 7 11 16 2 24-6 5-13 2-18-2l-5-6-13-16zM80 4192l-4-27c-1-9-3-21 9-23 4-1 8 0 11 2 7 6 12 39 14 48l4 27c1 9 3 21-9 23-4 1-8 0-10-3-8-6-13-38-15-47z" style="fill:#764bba"/>
</svg>
