<svg width="109" height="99" viewBox="0 0 109 99" fill="none" xmlns="http://www.w3.org/2000/svg">
<path fill-rule="evenodd" clip-rule="evenodd" d="M109 0.556645V18.1455L109 98.847H108.762H92.8166L13.5655 98.847L13.5655 81.2582H13.5655V72.9811H29.7489V81.2582H46.4993L46.1284 81.202L55.6888 18.1455L29.7488 18.1455V25.3879H13.5654V0.55666H13.8035V0.556641L92.8166 0.556645H109ZM70.1315 18.1455L67.0862 38.2308L67.7222 39.1193L92.8166 22.2951V18.1455L70.1315 18.1455ZM92.8166 39.4868L76.038 50.7358L92.8166 74.1739V39.4868ZM80.3268 81.2582L64.1719 58.6912L63.9628 58.8314L60.5625 81.2582L80.3268 81.2582Z" fill="#5722AA"/>
<path fill-rule="evenodd" clip-rule="evenodd" d="M32.9584 31.2578H44.0284V68.3843H32.9584V49.1292L22.0142 65.6257L11.07 49.1291V68.3844H0V31.2579H11.07V36.2353L22.0142 50.8918L32.9584 36.2353V31.2578Z" fill="#E0DEE4"/>
</svg>
