<svg width="458" height="413" viewBox="0 0 458 413" fill="none" xmlns="http://www.w3.org/2000/svg">
<path fill-rule="evenodd" clip-rule="evenodd" d="M458 1.74846e-05V73.9053V413H457H390H57L57 408.653V339.095V304.316H125V339.095H195.382L193.824 338.858L233.995 73.9053L125 73.9053V104.337H57V1.74846e-05L58 0L125 1.74846e-05H390H458ZM294.681 73.9053L281.885 158.301L284.558 162.035L390 91.3424V73.9053L294.681 73.9053ZM390 163.579L319.499 210.845L390 309.328V163.579ZM337.52 339.095L269.64 244.273L268.761 244.862L254.474 339.095L337.52 339.095Z" fill="#0A66A0"/>
<path fill-rule="evenodd" clip-rule="evenodd" d="M0 129.001H46.5143V149.916L92.5 211.5L138.486 149.916V129.001H185V285H138.486V204.094L92.5 273.409L46.5143 204.093V285H0V129.001Z" fill="#233141"/>
</svg>
